M48
;DRILL file {Pcbnew (2012-jan-04)-stable} date Sun 27 Jan 2013 19:14:25 CET
;FORMAT={2:4/ absolute / inch / suppress leading zeros}
FMAT,2
INCH,TZ
T1C0.025
T2C0.028
T3C0.032
T4C0.079
T5C0.118
%
G90
G05
M72
T1
X50075Y25725
X50300Y25200
X50350Y26100
X51600Y26450
X52775Y24250
X52850Y25725
X53200Y24450
X53200Y26100
X53675Y20800
X54050Y26350
X54050Y30450
X54200Y23150
X54500Y26925
X55100Y24800
X55150Y31750
X55825Y23600
X55950Y20075
X56300Y23850
X56300Y24800
X56500Y21900
X56575Y25500
X57025Y25675
X57075Y31375
X57100Y30825
X57525Y27275
X57525Y27775
X58175Y29300
X58400Y21450
X58400Y23850
X58500Y26350
X58825Y24100
X59250Y19600
X59250Y21450
X59250Y25325
X59275Y26975
X59375Y24200
X59625Y25650
X59650Y19350
X59700Y27200
X59950Y30825
X60000Y19000
X60150Y27425
X60650Y25450
X60700Y19300
X60900Y24800
X61300Y22750
X61675Y24150
X61700Y20600
X61700Y25600
X61775Y29425
X62150Y25650
X62700Y26000
X63500Y31375
X63800Y24800
X64500Y24800
X65025Y28700
X65050Y30850
X65100Y24800
X65575Y23025
X66000Y20600
X66050Y24150
X66500Y19200
X66600Y32600
X66900Y30450
X67150Y21250
X67200Y25300
X67300Y19200
X67550Y25650
X68350Y21250
X68800Y29775
X69050Y21450
X69475Y32600
X69550Y23000
X69550Y30500
X70000Y24800
X70200Y19825
X70550Y32600
X70750Y19550
X71350Y30350
X72000Y24800
X72050Y29500
X72425Y32600
X72550Y30500
X72825Y19975
X74050Y19550
X74175Y23850
X74175Y26850
X74425Y31275
X74600Y19200
X75025Y20500
X75050Y30225
T2
X67100Y32246
X67100Y32954
X70000Y32246
X70000Y32954
X72900Y32246
X72900Y32954
T3
X51500Y18250
X51500Y32500
X52500Y18250
X52500Y32500
X53500Y18250
X53500Y32500
X54500Y18250
X54500Y32500
X55500Y18250
X55500Y32500
X56500Y18250
X56500Y32500
X57500Y18250
X57500Y32500
X58500Y18250
X58500Y32500
X59500Y18250
X59500Y32500
X60500Y18250
X60500Y32500
X61500Y18250
X61500Y32500
X62500Y18250
X62500Y32500
X63500Y18250
X63500Y32500
X64500Y18250
X64500Y32500
T4
X52114Y24800
X73586Y25900
T5
X50000Y18500
X50000Y32250
X75500Y18500
X75500Y32250
T0
M30
