G04 (created by PCBNEW-RS274X (2012-jan-04)-stable) date Sun 27 Jan 2013 19:14:15 CET*
G01*
G70*
G90*
%MOIN*%
G04 Gerber Fmt 3.4, Leading zero omitted, Abs format*
%FSLAX34Y34*%
G04 APERTURE LIST*
%ADD10C,0.006000*%
%ADD11C,0.047600*%
%ADD12R,0.075000X0.075000*%
%ADD13C,0.075000*%
%ADD14C,0.138100*%
%ADD15R,0.309000X0.270000*%
%ADD16C,0.098700*%
G04 APERTURE END LIST*
G54D10*
G54D11*
X70000Y-32954D03*
X70000Y-32246D03*
X67100Y-32954D03*
X67100Y-32246D03*
G54D12*
X64500Y-18250D03*
G54D13*
X63500Y-18250D03*
X62500Y-18250D03*
X61500Y-18250D03*
X60500Y-18250D03*
X59500Y-18250D03*
X58500Y-18250D03*
X57500Y-18250D03*
X56500Y-18250D03*
X55500Y-18250D03*
X54500Y-18250D03*
X53500Y-18250D03*
X52500Y-18250D03*
X51500Y-18250D03*
G54D11*
X72900Y-32954D03*
X72900Y-32246D03*
G54D12*
X64500Y-32500D03*
G54D13*
X63500Y-32500D03*
X62500Y-32500D03*
X61500Y-32500D03*
X60500Y-32500D03*
X59500Y-32500D03*
X58500Y-32500D03*
X57500Y-32500D03*
X56500Y-32500D03*
X55500Y-32500D03*
X54500Y-32500D03*
X53500Y-32500D03*
X52500Y-32500D03*
X51500Y-32500D03*
G54D14*
X75500Y-18500D03*
X75500Y-32250D03*
X50000Y-18500D03*
X50000Y-32250D03*
G54D15*
X74960Y-28550D03*
X50740Y-28550D03*
G54D16*
X73586Y-25900D03*
G54D15*
X50740Y-22150D03*
X74960Y-22150D03*
G54D16*
X52114Y-24800D03*
M02*
