G04 (created by PCBNEW-RS274X (2012-jan-04)-stable) date Sun 27 Jan 2013 19:14:15 CET*
G01*
G70*
G90*
%MOIN*%
G04 Gerber Fmt 3.4, Leading zero omitted, Abs format*
%FSLAX34Y34*%
G04 APERTURE LIST*
%ADD10C,0.006000*%
%ADD11C,0.027600*%
%ADD12R,0.055000X0.055000*%
%ADD13C,0.055000*%
%ADD14C,0.118100*%
%ADD15R,0.289000X0.250000*%
%ADD16C,0.078700*%
%ADD17C,0.035000*%
%ADD18C,0.010000*%
%ADD19C,0.016000*%
%ADD20C,0.100000*%
G04 APERTURE END LIST*
G54D10*
G54D11*
X70000Y-32954D03*
X70000Y-32246D03*
X67100Y-32954D03*
X67100Y-32246D03*
G54D12*
X64500Y-18250D03*
G54D13*
X63500Y-18250D03*
X62500Y-18250D03*
X61500Y-18250D03*
X60500Y-18250D03*
X59500Y-18250D03*
X58500Y-18250D03*
X57500Y-18250D03*
X56500Y-18250D03*
X55500Y-18250D03*
X54500Y-18250D03*
X53500Y-18250D03*
X52500Y-18250D03*
X51500Y-18250D03*
G54D11*
X72900Y-32954D03*
X72900Y-32246D03*
G54D12*
X64500Y-32500D03*
G54D13*
X63500Y-32500D03*
X62500Y-32500D03*
X61500Y-32500D03*
X60500Y-32500D03*
X59500Y-32500D03*
X58500Y-32500D03*
X57500Y-32500D03*
X56500Y-32500D03*
X55500Y-32500D03*
X54500Y-32500D03*
X53500Y-32500D03*
X52500Y-32500D03*
X51500Y-32500D03*
G54D14*
X75500Y-18500D03*
X75500Y-32250D03*
X50000Y-18500D03*
X50000Y-32250D03*
G54D15*
X74960Y-28550D03*
X50740Y-28550D03*
G54D16*
X73586Y-25900D03*
G54D15*
X50740Y-22150D03*
X74960Y-22150D03*
G54D16*
X52114Y-24800D03*
G54D17*
X69550Y-30500D03*
X65050Y-30850D03*
X63800Y-24800D03*
X55100Y-24800D03*
X72000Y-24800D03*
X65100Y-24800D03*
X56300Y-24800D03*
X64500Y-24800D03*
X72550Y-30500D03*
X60900Y-24800D03*
X70000Y-24800D03*
X56500Y-21900D03*
X66500Y-19200D03*
X62700Y-26000D03*
X50300Y-25200D03*
X65575Y-23025D03*
X72825Y-19975D03*
X71350Y-30350D03*
X65025Y-28700D03*
X72050Y-29500D03*
X75050Y-30225D03*
X74175Y-23850D03*
X75025Y-20500D03*
X74175Y-26850D03*
X69550Y-23000D03*
X68800Y-29775D03*
X72425Y-32600D03*
X69475Y-32600D03*
X66600Y-32600D03*
X70200Y-19825D03*
X61300Y-22750D03*
X60650Y-25450D03*
X55825Y-23600D03*
X54200Y-23150D03*
X58175Y-29300D03*
X53675Y-20800D03*
X61775Y-29425D03*
X58500Y-26350D03*
X51600Y-26450D03*
X54050Y-26350D03*
X66900Y-30450D03*
X54050Y-30450D03*
X67550Y-25650D03*
X62150Y-25650D03*
X74600Y-19200D03*
X67300Y-19200D03*
X61675Y-24150D03*
X66050Y-24150D03*
X55950Y-20075D03*
X60150Y-27425D03*
X57525Y-27775D03*
X67200Y-25300D03*
X61700Y-25600D03*
X67150Y-21250D03*
X68350Y-21250D03*
X61700Y-20600D03*
X66000Y-20600D03*
X70750Y-19550D03*
X74050Y-19550D03*
X74425Y-31275D03*
X56575Y-25500D03*
X59250Y-25325D03*
X63500Y-31375D03*
X57075Y-31375D03*
X59950Y-30825D03*
X57025Y-25675D03*
X57100Y-30825D03*
X59625Y-25650D03*
X54500Y-26925D03*
X59275Y-26975D03*
X57525Y-27275D03*
X59700Y-27200D03*
X60700Y-19300D03*
X60000Y-19000D03*
X59650Y-19350D03*
X59250Y-19600D03*
X70550Y-32600D03*
X55150Y-31750D03*
X69050Y-21450D03*
X59250Y-21450D03*
X58400Y-21450D03*
X58400Y-23850D03*
X56300Y-23850D03*
X59375Y-24200D03*
X53200Y-24450D03*
X53200Y-26100D03*
X50350Y-26100D03*
X50075Y-25725D03*
X52850Y-25725D03*
X52775Y-24250D03*
X58825Y-24100D03*
G54D18*
X69550Y-30500D02*
X69550Y-30850D01*
X65050Y-30850D02*
X67450Y-30850D01*
X67450Y-30850D02*
X69550Y-30850D01*
G54D19*
X55100Y-24800D02*
X56300Y-24800D01*
X70000Y-24800D02*
X72000Y-24800D01*
X68400Y-24800D02*
X70000Y-24800D01*
X65100Y-24800D02*
X68400Y-24800D01*
X64500Y-24800D02*
X65100Y-24800D01*
X63800Y-24800D02*
X64500Y-24800D01*
X61400Y-24800D02*
X63800Y-24800D01*
X60900Y-24800D02*
X61400Y-24800D01*
X56300Y-24800D02*
X60900Y-24800D01*
G54D18*
X72550Y-30700D02*
X72550Y-30500D01*
X72400Y-30850D02*
X72550Y-30700D01*
X70000Y-30850D02*
X72400Y-30850D01*
X69550Y-30850D02*
X70000Y-30850D01*
X53400Y-26450D02*
X51600Y-26450D01*
X53500Y-26350D02*
X53400Y-26450D01*
X58500Y-26350D02*
X54050Y-26350D01*
X54050Y-26350D02*
X53500Y-26350D01*
X54400Y-30100D02*
X66550Y-30100D01*
X66550Y-30100D02*
X66900Y-30450D01*
X54050Y-30450D02*
X54400Y-30100D01*
X62150Y-25650D02*
X67550Y-25650D01*
X74600Y-19200D02*
X67300Y-19200D01*
X61675Y-24150D02*
X66050Y-24150D01*
G54D19*
X50740Y-22150D02*
X50740Y-20385D01*
X51050Y-20075D02*
X55950Y-20075D01*
X50740Y-20385D02*
X51050Y-20075D01*
G54D20*
X74960Y-22150D02*
X74960Y-28550D01*
G54D18*
X60000Y-27575D02*
X57725Y-27575D01*
X60150Y-27425D02*
X60000Y-27575D01*
X57725Y-27575D02*
X57525Y-27775D01*
X62400Y-25400D02*
X67100Y-25400D01*
X62000Y-25300D02*
X62300Y-25300D01*
X61700Y-25600D02*
X62000Y-25300D01*
X62300Y-25300D02*
X62400Y-25400D01*
X67100Y-25400D02*
X67200Y-25300D01*
X67150Y-21250D02*
X68350Y-21250D01*
X61700Y-20600D02*
X66000Y-20600D01*
X71450Y-19550D02*
X70750Y-19550D01*
X74050Y-19550D02*
X71450Y-19550D01*
X56750Y-25325D02*
X56575Y-25500D01*
X59125Y-25450D02*
X57325Y-25450D01*
X57200Y-25325D02*
X56750Y-25325D01*
X57325Y-25450D02*
X57200Y-25325D01*
X57075Y-31375D02*
X63500Y-31375D01*
X59250Y-25325D02*
X59125Y-25450D01*
X63500Y-31375D02*
X74325Y-31375D01*
X74325Y-31375D02*
X74425Y-31275D01*
X59600Y-25675D02*
X57025Y-25675D01*
X57100Y-30825D02*
X59950Y-30825D01*
X59625Y-25650D02*
X59600Y-25675D01*
X59150Y-27100D02*
X57900Y-27100D01*
X59275Y-26975D02*
X59150Y-27100D01*
X57900Y-27100D02*
X57725Y-26925D01*
X57725Y-26925D02*
X54500Y-26925D01*
X57575Y-27325D02*
X57525Y-27275D01*
X59575Y-27325D02*
X57575Y-27325D01*
X59700Y-27200D02*
X59575Y-27325D01*
X63300Y-19300D02*
X63500Y-19100D01*
X60700Y-19300D02*
X63300Y-19300D01*
X63500Y-19100D02*
X63500Y-18250D01*
X57500Y-18700D02*
X57500Y-18250D01*
X57800Y-19000D02*
X57500Y-18700D01*
X60000Y-19000D02*
X57800Y-19000D01*
X59550Y-19250D02*
X57700Y-19250D01*
X54500Y-18600D02*
X54500Y-18250D01*
X57300Y-18850D02*
X54750Y-18850D01*
X59650Y-19350D02*
X59550Y-19250D01*
X57700Y-19250D02*
X57300Y-18850D01*
X54750Y-18850D02*
X54500Y-18600D01*
X59250Y-19600D02*
X59150Y-19500D01*
X59150Y-19500D02*
X57600Y-19500D01*
X57600Y-19500D02*
X57200Y-19100D01*
X57200Y-19100D02*
X52750Y-19100D01*
X52750Y-19100D02*
X52500Y-18850D01*
X52500Y-18850D02*
X52500Y-18250D01*
X58400Y-21450D02*
X59250Y-21450D01*
X70550Y-32600D02*
X70550Y-32000D01*
X70550Y-32000D02*
X70300Y-31750D01*
X70300Y-31750D02*
X55150Y-31750D01*
X68500Y-21600D02*
X68650Y-21450D01*
X68650Y-21450D02*
X69050Y-21450D01*
X67000Y-21600D02*
X68500Y-21600D01*
X63000Y-21450D02*
X64200Y-21450D01*
X64200Y-21450D02*
X65950Y-21450D01*
X66850Y-21450D02*
X67000Y-21600D01*
X59250Y-21450D02*
X61000Y-21450D01*
X61000Y-21450D02*
X63000Y-21450D01*
X65950Y-21450D02*
X66850Y-21450D01*
X56300Y-23850D02*
X58400Y-23850D01*
X59125Y-24450D02*
X53200Y-24450D01*
X59375Y-24200D02*
X59125Y-24450D01*
X53200Y-26100D02*
X50350Y-26100D01*
X51575Y-25725D02*
X50075Y-25725D01*
X52850Y-25725D02*
X51575Y-25725D01*
X52925Y-24100D02*
X52775Y-24250D01*
X53325Y-24100D02*
X52925Y-24100D01*
X53450Y-24225D02*
X53325Y-24100D01*
X58700Y-24225D02*
X53450Y-24225D01*
X58825Y-24100D02*
X58700Y-24225D01*
G54D10*
G36*
X76450Y-33045D02*
X76240Y-33045D01*
X76240Y-32398D01*
X76240Y-32104D01*
X76128Y-31832D01*
X75920Y-31624D01*
X75648Y-31510D01*
X75354Y-31510D01*
X75082Y-31622D01*
X74874Y-31830D01*
X74760Y-32102D01*
X74760Y-32396D01*
X74872Y-32668D01*
X75080Y-32876D01*
X75352Y-32990D01*
X75646Y-32990D01*
X75918Y-32878D01*
X76126Y-32670D01*
X76240Y-32398D01*
X76240Y-33045D01*
X74750Y-33045D01*
X74750Y-31340D01*
X74750Y-31211D01*
X74701Y-31091D01*
X74610Y-31000D01*
X74490Y-30950D01*
X74361Y-30950D01*
X74241Y-30999D01*
X74150Y-31090D01*
X74114Y-31175D01*
X65114Y-31175D01*
X65234Y-31126D01*
X65310Y-31050D01*
X67450Y-31050D01*
X69550Y-31050D01*
X70000Y-31050D01*
X72400Y-31050D01*
X72400Y-31049D01*
X72476Y-31035D01*
X72477Y-31035D01*
X72541Y-30991D01*
X72691Y-30842D01*
X72691Y-30841D01*
X72713Y-30809D01*
X72735Y-30777D01*
X72735Y-30776D01*
X72735Y-30774D01*
X72825Y-30685D01*
X72875Y-30565D01*
X72875Y-30436D01*
X72826Y-30316D01*
X72735Y-30225D01*
X72615Y-30175D01*
X72486Y-30175D01*
X72366Y-30224D01*
X72325Y-30265D01*
X72325Y-24865D01*
X72325Y-24736D01*
X72276Y-24616D01*
X72185Y-24525D01*
X72065Y-24475D01*
X71936Y-24475D01*
X71816Y-24524D01*
X71770Y-24570D01*
X70230Y-24570D01*
X70185Y-24525D01*
X70065Y-24475D01*
X69936Y-24475D01*
X69816Y-24524D01*
X69770Y-24570D01*
X69375Y-24570D01*
X69375Y-21515D01*
X69375Y-21386D01*
X69326Y-21266D01*
X69235Y-21175D01*
X69115Y-21125D01*
X68986Y-21125D01*
X68866Y-21174D01*
X68790Y-21250D01*
X68675Y-21250D01*
X68675Y-21186D01*
X68626Y-21066D01*
X68535Y-20975D01*
X68415Y-20925D01*
X68286Y-20925D01*
X68166Y-20974D01*
X68090Y-21050D01*
X67410Y-21050D01*
X67335Y-20975D01*
X67215Y-20925D01*
X67086Y-20925D01*
X66966Y-20974D01*
X66875Y-21065D01*
X66825Y-21185D01*
X66825Y-21250D01*
X66325Y-21250D01*
X66325Y-20665D01*
X66325Y-20536D01*
X66276Y-20416D01*
X66185Y-20325D01*
X66065Y-20275D01*
X65936Y-20275D01*
X65816Y-20324D01*
X65740Y-20400D01*
X64924Y-20400D01*
X64924Y-18554D01*
X64924Y-18495D01*
X64924Y-17945D01*
X64901Y-17890D01*
X64859Y-17848D01*
X64804Y-17826D01*
X64745Y-17826D01*
X64195Y-17826D01*
X64140Y-17849D01*
X64098Y-17891D01*
X64076Y-17946D01*
X64076Y-18005D01*
X64076Y-18555D01*
X64099Y-18610D01*
X64141Y-18652D01*
X64196Y-18674D01*
X64255Y-18674D01*
X64805Y-18674D01*
X64860Y-18651D01*
X64902Y-18609D01*
X64924Y-18554D01*
X64924Y-20400D01*
X63925Y-20400D01*
X63925Y-18335D01*
X63925Y-18166D01*
X63861Y-18010D01*
X63741Y-17890D01*
X63585Y-17825D01*
X63416Y-17825D01*
X63260Y-17889D01*
X63140Y-18009D01*
X63075Y-18165D01*
X63075Y-18334D01*
X63139Y-18490D01*
X63259Y-18610D01*
X63300Y-18627D01*
X63300Y-19017D01*
X63217Y-19100D01*
X63019Y-19100D01*
X63019Y-18324D01*
X63008Y-18120D01*
X62952Y-17983D01*
X62861Y-17960D01*
X62790Y-18031D01*
X62790Y-17889D01*
X62767Y-17798D01*
X62574Y-17731D01*
X62370Y-17742D01*
X62233Y-17798D01*
X62210Y-17889D01*
X62500Y-18179D01*
X62790Y-17889D01*
X62790Y-18031D01*
X62571Y-18250D01*
X62861Y-18540D01*
X62952Y-18517D01*
X63019Y-18324D01*
X63019Y-19100D01*
X62790Y-19100D01*
X62790Y-18611D01*
X62500Y-18321D01*
X62429Y-18392D01*
X62429Y-18250D01*
X62139Y-17960D01*
X62048Y-17983D01*
X61981Y-18176D01*
X61992Y-18380D01*
X62048Y-18517D01*
X62139Y-18540D01*
X62429Y-18250D01*
X62429Y-18392D01*
X62210Y-18611D01*
X62233Y-18702D01*
X62426Y-18769D01*
X62630Y-18758D01*
X62767Y-18702D01*
X62790Y-18611D01*
X62790Y-19100D01*
X61925Y-19100D01*
X61925Y-18335D01*
X61925Y-18166D01*
X61861Y-18010D01*
X61741Y-17890D01*
X61585Y-17825D01*
X61416Y-17825D01*
X61260Y-17889D01*
X61140Y-18009D01*
X61075Y-18165D01*
X61075Y-18334D01*
X61139Y-18490D01*
X61259Y-18610D01*
X61415Y-18675D01*
X61584Y-18675D01*
X61740Y-18611D01*
X61860Y-18491D01*
X61925Y-18335D01*
X61925Y-19100D01*
X60960Y-19100D01*
X60925Y-19065D01*
X60925Y-18335D01*
X60925Y-18166D01*
X60861Y-18010D01*
X60741Y-17890D01*
X60585Y-17825D01*
X60416Y-17825D01*
X60260Y-17889D01*
X60140Y-18009D01*
X60075Y-18165D01*
X60075Y-18334D01*
X60139Y-18490D01*
X60259Y-18610D01*
X60415Y-18675D01*
X60584Y-18675D01*
X60740Y-18611D01*
X60860Y-18491D01*
X60925Y-18335D01*
X60925Y-19065D01*
X60885Y-19025D01*
X60765Y-18975D01*
X60636Y-18975D01*
X60516Y-19024D01*
X60425Y-19115D01*
X60375Y-19235D01*
X60375Y-19364D01*
X60424Y-19484D01*
X60515Y-19575D01*
X60635Y-19625D01*
X60764Y-19625D01*
X60884Y-19576D01*
X60960Y-19500D01*
X63300Y-19500D01*
X63300Y-19499D01*
X63376Y-19485D01*
X63377Y-19485D01*
X63441Y-19441D01*
X63641Y-19242D01*
X63641Y-19241D01*
X63685Y-19177D01*
X63699Y-19101D01*
X63700Y-19100D01*
X63700Y-18627D01*
X63740Y-18611D01*
X63860Y-18491D01*
X63925Y-18335D01*
X63925Y-20400D01*
X61960Y-20400D01*
X61885Y-20325D01*
X61765Y-20275D01*
X61636Y-20275D01*
X61516Y-20324D01*
X61425Y-20415D01*
X61375Y-20535D01*
X61375Y-20664D01*
X61424Y-20784D01*
X61515Y-20875D01*
X61635Y-20925D01*
X61764Y-20925D01*
X61884Y-20876D01*
X61960Y-20800D01*
X65740Y-20800D01*
X65815Y-20875D01*
X65935Y-20925D01*
X66064Y-20925D01*
X66184Y-20876D01*
X66275Y-20785D01*
X66325Y-20665D01*
X66325Y-21250D01*
X65950Y-21250D01*
X64200Y-21250D01*
X63000Y-21250D01*
X61000Y-21250D01*
X60325Y-21250D01*
X60325Y-19065D01*
X60325Y-18936D01*
X60276Y-18816D01*
X60185Y-18725D01*
X60065Y-18675D01*
X60019Y-18675D01*
X60019Y-18324D01*
X60008Y-18120D01*
X59952Y-17983D01*
X59861Y-17960D01*
X59790Y-18031D01*
X59790Y-17889D01*
X59767Y-17798D01*
X59574Y-17731D01*
X59370Y-17742D01*
X59233Y-17798D01*
X59210Y-17889D01*
X59500Y-18179D01*
X59790Y-17889D01*
X59790Y-18031D01*
X59571Y-18250D01*
X59861Y-18540D01*
X59952Y-18517D01*
X60019Y-18324D01*
X60019Y-18675D01*
X59936Y-18675D01*
X59816Y-18724D01*
X59790Y-18750D01*
X59790Y-18611D01*
X59500Y-18321D01*
X59429Y-18392D01*
X59429Y-18250D01*
X59139Y-17960D01*
X59048Y-17983D01*
X58981Y-18176D01*
X58992Y-18380D01*
X59048Y-18517D01*
X59139Y-18540D01*
X59429Y-18250D01*
X59429Y-18392D01*
X59210Y-18611D01*
X59233Y-18702D01*
X59426Y-18769D01*
X59630Y-18758D01*
X59767Y-18702D01*
X59790Y-18611D01*
X59790Y-18750D01*
X59740Y-18800D01*
X58925Y-18800D01*
X58925Y-18335D01*
X58925Y-18166D01*
X58861Y-18010D01*
X58741Y-17890D01*
X58585Y-17825D01*
X58416Y-17825D01*
X58260Y-17889D01*
X58140Y-18009D01*
X58075Y-18165D01*
X58075Y-18334D01*
X58139Y-18490D01*
X58259Y-18610D01*
X58415Y-18675D01*
X58584Y-18675D01*
X58740Y-18611D01*
X58860Y-18491D01*
X58925Y-18335D01*
X58925Y-18800D01*
X57882Y-18800D01*
X57706Y-18624D01*
X57740Y-18611D01*
X57860Y-18491D01*
X57925Y-18335D01*
X57925Y-18166D01*
X57861Y-18010D01*
X57741Y-17890D01*
X57585Y-17825D01*
X57416Y-17825D01*
X57260Y-17889D01*
X57140Y-18009D01*
X57075Y-18165D01*
X57075Y-18334D01*
X57139Y-18490D01*
X57259Y-18610D01*
X57300Y-18627D01*
X57300Y-18650D01*
X57019Y-18650D01*
X57019Y-18324D01*
X57008Y-18120D01*
X56952Y-17983D01*
X56861Y-17960D01*
X56790Y-18031D01*
X56790Y-17889D01*
X56767Y-17798D01*
X56574Y-17731D01*
X56370Y-17742D01*
X56233Y-17798D01*
X56210Y-17889D01*
X56500Y-18179D01*
X56790Y-17889D01*
X56790Y-18031D01*
X56571Y-18250D01*
X56861Y-18540D01*
X56952Y-18517D01*
X57019Y-18324D01*
X57019Y-18650D01*
X56780Y-18650D01*
X56790Y-18611D01*
X56500Y-18321D01*
X56429Y-18392D01*
X56429Y-18250D01*
X56139Y-17960D01*
X56048Y-17983D01*
X55981Y-18176D01*
X55992Y-18380D01*
X56048Y-18517D01*
X56139Y-18540D01*
X56429Y-18250D01*
X56429Y-18392D01*
X56210Y-18611D01*
X56219Y-18650D01*
X55644Y-18650D01*
X55740Y-18611D01*
X55860Y-18491D01*
X55925Y-18335D01*
X55925Y-18166D01*
X55861Y-18010D01*
X55741Y-17890D01*
X55585Y-17825D01*
X55416Y-17825D01*
X55260Y-17889D01*
X55140Y-18009D01*
X55075Y-18165D01*
X55075Y-18334D01*
X55139Y-18490D01*
X55259Y-18610D01*
X55355Y-18650D01*
X54832Y-18650D01*
X54766Y-18584D01*
X54860Y-18491D01*
X54925Y-18335D01*
X54925Y-18166D01*
X54861Y-18010D01*
X54741Y-17890D01*
X54585Y-17825D01*
X54416Y-17825D01*
X54260Y-17889D01*
X54140Y-18009D01*
X54075Y-18165D01*
X54075Y-18334D01*
X54139Y-18490D01*
X54259Y-18610D01*
X54305Y-18629D01*
X54315Y-18677D01*
X54359Y-18741D01*
X54517Y-18900D01*
X54019Y-18900D01*
X54019Y-18324D01*
X54008Y-18120D01*
X53952Y-17983D01*
X53861Y-17960D01*
X53790Y-18031D01*
X53790Y-17889D01*
X53767Y-17798D01*
X53574Y-17731D01*
X53370Y-17742D01*
X53233Y-17798D01*
X53210Y-17889D01*
X53500Y-18179D01*
X53790Y-17889D01*
X53790Y-18031D01*
X53571Y-18250D01*
X53861Y-18540D01*
X53952Y-18517D01*
X54019Y-18324D01*
X54019Y-18900D01*
X53790Y-18900D01*
X53790Y-18611D01*
X53500Y-18321D01*
X53429Y-18392D01*
X53429Y-18250D01*
X53139Y-17960D01*
X53048Y-17983D01*
X52981Y-18176D01*
X52992Y-18380D01*
X53048Y-18517D01*
X53139Y-18540D01*
X53429Y-18250D01*
X53429Y-18392D01*
X53210Y-18611D01*
X53233Y-18702D01*
X53426Y-18769D01*
X53630Y-18758D01*
X53767Y-18702D01*
X53790Y-18611D01*
X53790Y-18900D01*
X52832Y-18900D01*
X52700Y-18767D01*
X52700Y-18627D01*
X52740Y-18611D01*
X52860Y-18491D01*
X52925Y-18335D01*
X52925Y-18166D01*
X52861Y-18010D01*
X52741Y-17890D01*
X52585Y-17825D01*
X52416Y-17825D01*
X52260Y-17889D01*
X52140Y-18009D01*
X52075Y-18165D01*
X52075Y-18334D01*
X52139Y-18490D01*
X52259Y-18610D01*
X52300Y-18627D01*
X52300Y-18850D01*
X52315Y-18927D01*
X52359Y-18991D01*
X52608Y-19241D01*
X52609Y-19241D01*
X52673Y-19285D01*
X52750Y-19300D01*
X57117Y-19300D01*
X57458Y-19641D01*
X57459Y-19641D01*
X57523Y-19685D01*
X57600Y-19700D01*
X58939Y-19700D01*
X58974Y-19784D01*
X59065Y-19875D01*
X59185Y-19925D01*
X59314Y-19925D01*
X59434Y-19876D01*
X59525Y-19785D01*
X59572Y-19669D01*
X59585Y-19675D01*
X59714Y-19675D01*
X59834Y-19626D01*
X59925Y-19535D01*
X59975Y-19415D01*
X59975Y-19325D01*
X60064Y-19325D01*
X60184Y-19276D01*
X60275Y-19185D01*
X60325Y-19065D01*
X60325Y-21250D01*
X59510Y-21250D01*
X59435Y-21175D01*
X59315Y-21125D01*
X59186Y-21125D01*
X59066Y-21174D01*
X58990Y-21250D01*
X58660Y-21250D01*
X58585Y-21175D01*
X58465Y-21125D01*
X58336Y-21125D01*
X58216Y-21174D01*
X58125Y-21265D01*
X58075Y-21385D01*
X58075Y-21514D01*
X58124Y-21634D01*
X58215Y-21725D01*
X58335Y-21775D01*
X58464Y-21775D01*
X58584Y-21726D01*
X58660Y-21650D01*
X58990Y-21650D01*
X59065Y-21725D01*
X59185Y-21775D01*
X59314Y-21775D01*
X59434Y-21726D01*
X59510Y-21650D01*
X61000Y-21650D01*
X63000Y-21650D01*
X64200Y-21650D01*
X65950Y-21650D01*
X66767Y-21650D01*
X66858Y-21741D01*
X66859Y-21741D01*
X66891Y-21763D01*
X66923Y-21785D01*
X66924Y-21785D01*
X67000Y-21800D01*
X68500Y-21800D01*
X68500Y-21799D01*
X68576Y-21785D01*
X68577Y-21785D01*
X68641Y-21741D01*
X68732Y-21650D01*
X68790Y-21650D01*
X68865Y-21725D01*
X68985Y-21775D01*
X69114Y-21775D01*
X69234Y-21726D01*
X69325Y-21635D01*
X69375Y-21515D01*
X69375Y-24570D01*
X68400Y-24570D01*
X66375Y-24570D01*
X66375Y-24215D01*
X66375Y-24086D01*
X66326Y-23966D01*
X66235Y-23875D01*
X66115Y-23825D01*
X65986Y-23825D01*
X65866Y-23874D01*
X65790Y-23950D01*
X61935Y-23950D01*
X61860Y-23875D01*
X61740Y-23825D01*
X61611Y-23825D01*
X61491Y-23874D01*
X61400Y-23965D01*
X61350Y-24085D01*
X61350Y-24214D01*
X61399Y-24334D01*
X61490Y-24425D01*
X61610Y-24475D01*
X61739Y-24475D01*
X61859Y-24426D01*
X61935Y-24350D01*
X65790Y-24350D01*
X65865Y-24425D01*
X65985Y-24475D01*
X66114Y-24475D01*
X66234Y-24426D01*
X66325Y-24335D01*
X66375Y-24215D01*
X66375Y-24570D01*
X65330Y-24570D01*
X65285Y-24525D01*
X65165Y-24475D01*
X65036Y-24475D01*
X64916Y-24524D01*
X64870Y-24570D01*
X64730Y-24570D01*
X64685Y-24525D01*
X64565Y-24475D01*
X64436Y-24475D01*
X64316Y-24524D01*
X64270Y-24570D01*
X64030Y-24570D01*
X63985Y-24525D01*
X63865Y-24475D01*
X63736Y-24475D01*
X63616Y-24524D01*
X63570Y-24570D01*
X61400Y-24570D01*
X61130Y-24570D01*
X61085Y-24525D01*
X60965Y-24475D01*
X60836Y-24475D01*
X60716Y-24524D01*
X60670Y-24570D01*
X59287Y-24570D01*
X59332Y-24525D01*
X59439Y-24525D01*
X59559Y-24476D01*
X59650Y-24385D01*
X59700Y-24265D01*
X59700Y-24136D01*
X59651Y-24016D01*
X59560Y-23925D01*
X59440Y-23875D01*
X59311Y-23875D01*
X59191Y-23924D01*
X59129Y-23985D01*
X59101Y-23916D01*
X59010Y-23825D01*
X58890Y-23775D01*
X58761Y-23775D01*
X58725Y-23789D01*
X58725Y-23786D01*
X58676Y-23666D01*
X58585Y-23575D01*
X58465Y-23525D01*
X58336Y-23525D01*
X58216Y-23574D01*
X58140Y-23650D01*
X56560Y-23650D01*
X56485Y-23575D01*
X56365Y-23525D01*
X56236Y-23525D01*
X56116Y-23574D01*
X56025Y-23665D01*
X55975Y-23785D01*
X55975Y-23914D01*
X56020Y-24025D01*
X53532Y-24025D01*
X53466Y-23959D01*
X53402Y-23915D01*
X53325Y-23900D01*
X52925Y-23900D01*
X52848Y-23915D01*
X52833Y-23925D01*
X52711Y-23925D01*
X52591Y-23974D01*
X52500Y-24065D01*
X52450Y-24185D01*
X52450Y-24314D01*
X52488Y-24407D01*
X52422Y-24341D01*
X52223Y-24258D01*
X52007Y-24258D01*
X51808Y-24340D01*
X51655Y-24492D01*
X51572Y-24691D01*
X51572Y-24907D01*
X51654Y-25106D01*
X51806Y-25259D01*
X52005Y-25342D01*
X52221Y-25342D01*
X52420Y-25260D01*
X52573Y-25108D01*
X52656Y-24909D01*
X52656Y-24693D01*
X52584Y-24519D01*
X52590Y-24525D01*
X52710Y-24575D01*
X52839Y-24575D01*
X52891Y-24553D01*
X52924Y-24634D01*
X53015Y-24725D01*
X53135Y-24775D01*
X53264Y-24775D01*
X53384Y-24726D01*
X53460Y-24650D01*
X54810Y-24650D01*
X54775Y-24735D01*
X54775Y-24864D01*
X54824Y-24984D01*
X54915Y-25075D01*
X55035Y-25125D01*
X55164Y-25125D01*
X55284Y-25076D01*
X55330Y-25030D01*
X56070Y-25030D01*
X56115Y-25075D01*
X56235Y-25125D01*
X56364Y-25125D01*
X56484Y-25076D01*
X56530Y-25030D01*
X59112Y-25030D01*
X59066Y-25049D01*
X58975Y-25140D01*
X58929Y-25250D01*
X57407Y-25250D01*
X57341Y-25184D01*
X57277Y-25140D01*
X57200Y-25125D01*
X56750Y-25125D01*
X56673Y-25140D01*
X56621Y-25175D01*
X56511Y-25175D01*
X56391Y-25224D01*
X56300Y-25315D01*
X56250Y-25435D01*
X56250Y-25564D01*
X56299Y-25684D01*
X56390Y-25775D01*
X56510Y-25825D01*
X56639Y-25825D01*
X56721Y-25791D01*
X56749Y-25859D01*
X56840Y-25950D01*
X56960Y-26000D01*
X57089Y-26000D01*
X57209Y-25951D01*
X57285Y-25875D01*
X59390Y-25875D01*
X59440Y-25925D01*
X59560Y-25975D01*
X59689Y-25975D01*
X59809Y-25926D01*
X59900Y-25835D01*
X59950Y-25715D01*
X59950Y-25586D01*
X59901Y-25466D01*
X59810Y-25375D01*
X59690Y-25325D01*
X59575Y-25325D01*
X59575Y-25261D01*
X59526Y-25141D01*
X59435Y-25050D01*
X59387Y-25030D01*
X60670Y-25030D01*
X60715Y-25075D01*
X60835Y-25125D01*
X60964Y-25125D01*
X61084Y-25076D01*
X61130Y-25030D01*
X61400Y-25030D01*
X63570Y-25030D01*
X63615Y-25075D01*
X63735Y-25125D01*
X63864Y-25125D01*
X63984Y-25076D01*
X64030Y-25030D01*
X64270Y-25030D01*
X64315Y-25075D01*
X64435Y-25125D01*
X64564Y-25125D01*
X64684Y-25076D01*
X64730Y-25030D01*
X64870Y-25030D01*
X64915Y-25075D01*
X65035Y-25125D01*
X65164Y-25125D01*
X65284Y-25076D01*
X65330Y-25030D01*
X67010Y-25030D01*
X66925Y-25115D01*
X66889Y-25200D01*
X62482Y-25200D01*
X62441Y-25159D01*
X62377Y-25115D01*
X62300Y-25100D01*
X62000Y-25100D01*
X61923Y-25115D01*
X61858Y-25159D01*
X61742Y-25275D01*
X61636Y-25275D01*
X61516Y-25324D01*
X61425Y-25415D01*
X61375Y-25535D01*
X61375Y-25664D01*
X61424Y-25784D01*
X61515Y-25875D01*
X61635Y-25925D01*
X61764Y-25925D01*
X61884Y-25876D01*
X61900Y-25860D01*
X61965Y-25925D01*
X62085Y-25975D01*
X62214Y-25975D01*
X62334Y-25926D01*
X62410Y-25850D01*
X67290Y-25850D01*
X67365Y-25925D01*
X67485Y-25975D01*
X67614Y-25975D01*
X67734Y-25926D01*
X67825Y-25835D01*
X67875Y-25715D01*
X67875Y-25586D01*
X67826Y-25466D01*
X67735Y-25375D01*
X67615Y-25325D01*
X67525Y-25325D01*
X67525Y-25236D01*
X67476Y-25116D01*
X67390Y-25030D01*
X68400Y-25030D01*
X69770Y-25030D01*
X69815Y-25075D01*
X69935Y-25125D01*
X70064Y-25125D01*
X70184Y-25076D01*
X70230Y-25030D01*
X71770Y-25030D01*
X71815Y-25075D01*
X71935Y-25125D01*
X72064Y-25125D01*
X72184Y-25076D01*
X72275Y-24985D01*
X72325Y-24865D01*
X72325Y-30265D01*
X72275Y-30315D01*
X72225Y-30435D01*
X72225Y-30564D01*
X72260Y-30650D01*
X70000Y-30650D01*
X69839Y-30650D01*
X69875Y-30565D01*
X69875Y-30436D01*
X69826Y-30316D01*
X69735Y-30225D01*
X69615Y-30175D01*
X69486Y-30175D01*
X69366Y-30224D01*
X69275Y-30315D01*
X69225Y-30435D01*
X69225Y-30564D01*
X69260Y-30650D01*
X67450Y-30650D01*
X67160Y-30650D01*
X67175Y-30635D01*
X67225Y-30515D01*
X67225Y-30386D01*
X67176Y-30266D01*
X67085Y-30175D01*
X66965Y-30125D01*
X66857Y-30125D01*
X66691Y-29959D01*
X66627Y-29915D01*
X66550Y-29900D01*
X60475Y-29900D01*
X60475Y-27490D01*
X60475Y-27361D01*
X60426Y-27241D01*
X60335Y-27150D01*
X60215Y-27100D01*
X60086Y-27100D01*
X60021Y-27126D01*
X59976Y-27016D01*
X59885Y-26925D01*
X59765Y-26875D01*
X59636Y-26875D01*
X59592Y-26892D01*
X59551Y-26791D01*
X59460Y-26700D01*
X59340Y-26650D01*
X59211Y-26650D01*
X59091Y-26699D01*
X59000Y-26790D01*
X58954Y-26900D01*
X58825Y-26900D01*
X58825Y-26415D01*
X58825Y-26286D01*
X58776Y-26166D01*
X58685Y-26075D01*
X58565Y-26025D01*
X58436Y-26025D01*
X58316Y-26074D01*
X58240Y-26150D01*
X54310Y-26150D01*
X54235Y-26075D01*
X54115Y-26025D01*
X53986Y-26025D01*
X53866Y-26074D01*
X53790Y-26150D01*
X53525Y-26150D01*
X53525Y-26036D01*
X53476Y-25916D01*
X53385Y-25825D01*
X53265Y-25775D01*
X53175Y-25775D01*
X53175Y-25661D01*
X53126Y-25541D01*
X53035Y-25450D01*
X52915Y-25400D01*
X52786Y-25400D01*
X52666Y-25449D01*
X52590Y-25525D01*
X51575Y-25525D01*
X50335Y-25525D01*
X50260Y-25450D01*
X50140Y-25400D01*
X50011Y-25400D01*
X49891Y-25449D01*
X49800Y-25540D01*
X49750Y-25660D01*
X49750Y-25789D01*
X49799Y-25909D01*
X49890Y-26000D01*
X50010Y-26050D01*
X50025Y-26050D01*
X50025Y-26164D01*
X50074Y-26284D01*
X50165Y-26375D01*
X50285Y-26425D01*
X50414Y-26425D01*
X50534Y-26376D01*
X50610Y-26300D01*
X51310Y-26300D01*
X51275Y-26385D01*
X51275Y-26514D01*
X51324Y-26634D01*
X51415Y-26725D01*
X51535Y-26775D01*
X51664Y-26775D01*
X51784Y-26726D01*
X51860Y-26650D01*
X53400Y-26650D01*
X53400Y-26649D01*
X53476Y-26635D01*
X53477Y-26635D01*
X53541Y-26591D01*
X53582Y-26550D01*
X53790Y-26550D01*
X53865Y-26625D01*
X53985Y-26675D01*
X54114Y-26675D01*
X54234Y-26626D01*
X54310Y-26550D01*
X58240Y-26550D01*
X58315Y-26625D01*
X58435Y-26675D01*
X58564Y-26675D01*
X58684Y-26626D01*
X58775Y-26535D01*
X58825Y-26415D01*
X58825Y-26900D01*
X57982Y-26900D01*
X57866Y-26784D01*
X57802Y-26740D01*
X57725Y-26725D01*
X54760Y-26725D01*
X54685Y-26650D01*
X54565Y-26600D01*
X54436Y-26600D01*
X54316Y-26649D01*
X54225Y-26740D01*
X54175Y-26860D01*
X54175Y-26989D01*
X54224Y-27109D01*
X54315Y-27200D01*
X54435Y-27250D01*
X54564Y-27250D01*
X54684Y-27201D01*
X54760Y-27125D01*
X57235Y-27125D01*
X57200Y-27210D01*
X57200Y-27339D01*
X57249Y-27459D01*
X57315Y-27525D01*
X57250Y-27590D01*
X57200Y-27710D01*
X57200Y-27839D01*
X57249Y-27959D01*
X57340Y-28050D01*
X57460Y-28100D01*
X57589Y-28100D01*
X57709Y-28051D01*
X57800Y-27960D01*
X57850Y-27840D01*
X57850Y-27775D01*
X60000Y-27775D01*
X60000Y-27774D01*
X60076Y-27760D01*
X60077Y-27760D01*
X60090Y-27750D01*
X60091Y-27750D01*
X60214Y-27750D01*
X60334Y-27701D01*
X60425Y-27610D01*
X60475Y-27490D01*
X60475Y-29900D01*
X54400Y-29900D01*
X54323Y-29915D01*
X54258Y-29959D01*
X54092Y-30125D01*
X53986Y-30125D01*
X53866Y-30174D01*
X53775Y-30265D01*
X53725Y-30385D01*
X53725Y-30514D01*
X53774Y-30634D01*
X53865Y-30725D01*
X53985Y-30775D01*
X54114Y-30775D01*
X54234Y-30726D01*
X54325Y-30635D01*
X54375Y-30515D01*
X54375Y-30407D01*
X54482Y-30300D01*
X66467Y-30300D01*
X66575Y-30407D01*
X66575Y-30514D01*
X66624Y-30634D01*
X66640Y-30650D01*
X65310Y-30650D01*
X65235Y-30575D01*
X65115Y-30525D01*
X64986Y-30525D01*
X64866Y-30574D01*
X64775Y-30665D01*
X64725Y-30785D01*
X64725Y-30914D01*
X64774Y-31034D01*
X64865Y-31125D01*
X64985Y-31175D01*
X63760Y-31175D01*
X63685Y-31100D01*
X63565Y-31050D01*
X63436Y-31050D01*
X63316Y-31099D01*
X63240Y-31175D01*
X57335Y-31175D01*
X57267Y-31107D01*
X57284Y-31101D01*
X57360Y-31025D01*
X59690Y-31025D01*
X59765Y-31100D01*
X59885Y-31150D01*
X60014Y-31150D01*
X60134Y-31101D01*
X60225Y-31010D01*
X60275Y-30890D01*
X60275Y-30761D01*
X60226Y-30641D01*
X60135Y-30550D01*
X60015Y-30500D01*
X59886Y-30500D01*
X59766Y-30549D01*
X59690Y-30625D01*
X57360Y-30625D01*
X57285Y-30550D01*
X57165Y-30500D01*
X57036Y-30500D01*
X56916Y-30549D01*
X56825Y-30640D01*
X56775Y-30760D01*
X56775Y-30889D01*
X56824Y-31009D01*
X56907Y-31092D01*
X56891Y-31099D01*
X56800Y-31190D01*
X56750Y-31310D01*
X56750Y-31439D01*
X56795Y-31550D01*
X55410Y-31550D01*
X55335Y-31475D01*
X55215Y-31425D01*
X55086Y-31425D01*
X54966Y-31474D01*
X54875Y-31565D01*
X54825Y-31685D01*
X54825Y-31814D01*
X54874Y-31934D01*
X54965Y-32025D01*
X55085Y-32075D01*
X55214Y-32075D01*
X55334Y-32026D01*
X55410Y-31950D01*
X70217Y-31950D01*
X70350Y-32082D01*
X70350Y-32340D01*
X70287Y-32403D01*
X70287Y-32303D01*
X70287Y-32189D01*
X70243Y-32084D01*
X70163Y-32003D01*
X70057Y-31959D01*
X69943Y-31959D01*
X69838Y-32003D01*
X69757Y-32083D01*
X69713Y-32189D01*
X69713Y-32303D01*
X69757Y-32408D01*
X69837Y-32489D01*
X69943Y-32533D01*
X70057Y-32533D01*
X70162Y-32489D01*
X70243Y-32409D01*
X70287Y-32303D01*
X70287Y-32403D01*
X70275Y-32415D01*
X70225Y-32535D01*
X70225Y-32664D01*
X70274Y-32784D01*
X70365Y-32875D01*
X70485Y-32925D01*
X70614Y-32925D01*
X70734Y-32876D01*
X70825Y-32785D01*
X70875Y-32665D01*
X70875Y-32536D01*
X70826Y-32416D01*
X70750Y-32340D01*
X70750Y-32000D01*
X70735Y-31923D01*
X70691Y-31859D01*
X70691Y-31858D01*
X70441Y-31609D01*
X70391Y-31575D01*
X74300Y-31575D01*
X74360Y-31600D01*
X74489Y-31600D01*
X74609Y-31551D01*
X74700Y-31460D01*
X74750Y-31340D01*
X74750Y-33045D01*
X73172Y-33045D01*
X73187Y-33011D01*
X73187Y-32897D01*
X73187Y-32303D01*
X73187Y-32189D01*
X73143Y-32084D01*
X73063Y-32003D01*
X72957Y-31959D01*
X72843Y-31959D01*
X72738Y-32003D01*
X72657Y-32083D01*
X72613Y-32189D01*
X72613Y-32303D01*
X72657Y-32408D01*
X72737Y-32489D01*
X72843Y-32533D01*
X72957Y-32533D01*
X73062Y-32489D01*
X73143Y-32409D01*
X73187Y-32303D01*
X73187Y-32897D01*
X73143Y-32792D01*
X73063Y-32711D01*
X72957Y-32667D01*
X72843Y-32667D01*
X72738Y-32711D01*
X72657Y-32791D01*
X72613Y-32897D01*
X72613Y-33011D01*
X72627Y-33045D01*
X70272Y-33045D01*
X70287Y-33011D01*
X70287Y-32897D01*
X70243Y-32792D01*
X70163Y-32711D01*
X70057Y-32667D01*
X69943Y-32667D01*
X69838Y-32711D01*
X69757Y-32791D01*
X69713Y-32897D01*
X69713Y-33011D01*
X69727Y-33045D01*
X67372Y-33045D01*
X67387Y-33011D01*
X67387Y-32897D01*
X67387Y-32303D01*
X67387Y-32189D01*
X67343Y-32084D01*
X67263Y-32003D01*
X67157Y-31959D01*
X67043Y-31959D01*
X66938Y-32003D01*
X66857Y-32083D01*
X66813Y-32189D01*
X66813Y-32303D01*
X66857Y-32408D01*
X66937Y-32489D01*
X67043Y-32533D01*
X67157Y-32533D01*
X67262Y-32489D01*
X67343Y-32409D01*
X67387Y-32303D01*
X67387Y-32897D01*
X67343Y-32792D01*
X67263Y-32711D01*
X67157Y-32667D01*
X67043Y-32667D01*
X66938Y-32711D01*
X66857Y-32791D01*
X66813Y-32897D01*
X66813Y-33011D01*
X66827Y-33045D01*
X64924Y-33045D01*
X64924Y-32804D01*
X64924Y-32745D01*
X64924Y-32195D01*
X64901Y-32140D01*
X64859Y-32098D01*
X64804Y-32076D01*
X64745Y-32076D01*
X64195Y-32076D01*
X64140Y-32099D01*
X64098Y-32141D01*
X64076Y-32196D01*
X64076Y-32255D01*
X64076Y-32805D01*
X64099Y-32860D01*
X64141Y-32902D01*
X64196Y-32924D01*
X64255Y-32924D01*
X64805Y-32924D01*
X64860Y-32901D01*
X64902Y-32859D01*
X64924Y-32804D01*
X64924Y-33045D01*
X63925Y-33045D01*
X63925Y-32585D01*
X63925Y-32416D01*
X63861Y-32260D01*
X63741Y-32140D01*
X63585Y-32075D01*
X63416Y-32075D01*
X63260Y-32139D01*
X63140Y-32259D01*
X63075Y-32415D01*
X63075Y-32584D01*
X63139Y-32740D01*
X63259Y-32860D01*
X63415Y-32925D01*
X63584Y-32925D01*
X63740Y-32861D01*
X63860Y-32741D01*
X63925Y-32585D01*
X63925Y-33045D01*
X63019Y-33045D01*
X63019Y-32574D01*
X63008Y-32370D01*
X62952Y-32233D01*
X62861Y-32210D01*
X62790Y-32281D01*
X62790Y-32139D01*
X62767Y-32048D01*
X62574Y-31981D01*
X62370Y-31992D01*
X62233Y-32048D01*
X62210Y-32139D01*
X62500Y-32429D01*
X62790Y-32139D01*
X62790Y-32281D01*
X62571Y-32500D01*
X62861Y-32790D01*
X62952Y-32767D01*
X63019Y-32574D01*
X63019Y-33045D01*
X62790Y-33045D01*
X62790Y-32861D01*
X62500Y-32571D01*
X62429Y-32642D01*
X62429Y-32500D01*
X62139Y-32210D01*
X62048Y-32233D01*
X61981Y-32426D01*
X61992Y-32630D01*
X62048Y-32767D01*
X62139Y-32790D01*
X62429Y-32500D01*
X62429Y-32642D01*
X62210Y-32861D01*
X62233Y-32952D01*
X62426Y-33019D01*
X62630Y-33008D01*
X62767Y-32952D01*
X62790Y-32861D01*
X62790Y-33045D01*
X61925Y-33045D01*
X61925Y-32585D01*
X61925Y-32416D01*
X61861Y-32260D01*
X61741Y-32140D01*
X61585Y-32075D01*
X61416Y-32075D01*
X61260Y-32139D01*
X61140Y-32259D01*
X61075Y-32415D01*
X61075Y-32584D01*
X61139Y-32740D01*
X61259Y-32860D01*
X61415Y-32925D01*
X61584Y-32925D01*
X61740Y-32861D01*
X61860Y-32741D01*
X61925Y-32585D01*
X61925Y-33045D01*
X60925Y-33045D01*
X60925Y-32585D01*
X60925Y-32416D01*
X60861Y-32260D01*
X60741Y-32140D01*
X60585Y-32075D01*
X60416Y-32075D01*
X60260Y-32139D01*
X60140Y-32259D01*
X60075Y-32415D01*
X60075Y-32584D01*
X60139Y-32740D01*
X60259Y-32860D01*
X60415Y-32925D01*
X60584Y-32925D01*
X60740Y-32861D01*
X60860Y-32741D01*
X60925Y-32585D01*
X60925Y-33045D01*
X60019Y-33045D01*
X60019Y-32574D01*
X60008Y-32370D01*
X59952Y-32233D01*
X59861Y-32210D01*
X59790Y-32281D01*
X59790Y-32139D01*
X59767Y-32048D01*
X59574Y-31981D01*
X59370Y-31992D01*
X59233Y-32048D01*
X59210Y-32139D01*
X59500Y-32429D01*
X59790Y-32139D01*
X59790Y-32281D01*
X59571Y-32500D01*
X59861Y-32790D01*
X59952Y-32767D01*
X60019Y-32574D01*
X60019Y-33045D01*
X59790Y-33045D01*
X59790Y-32861D01*
X59500Y-32571D01*
X59429Y-32642D01*
X59429Y-32500D01*
X59139Y-32210D01*
X59048Y-32233D01*
X58981Y-32426D01*
X58992Y-32630D01*
X59048Y-32767D01*
X59139Y-32790D01*
X59429Y-32500D01*
X59429Y-32642D01*
X59210Y-32861D01*
X59233Y-32952D01*
X59426Y-33019D01*
X59630Y-33008D01*
X59767Y-32952D01*
X59790Y-32861D01*
X59790Y-33045D01*
X58925Y-33045D01*
X58925Y-32585D01*
X58925Y-32416D01*
X58861Y-32260D01*
X58741Y-32140D01*
X58585Y-32075D01*
X58416Y-32075D01*
X58260Y-32139D01*
X58140Y-32259D01*
X58075Y-32415D01*
X58075Y-32584D01*
X58139Y-32740D01*
X58259Y-32860D01*
X58415Y-32925D01*
X58584Y-32925D01*
X58740Y-32861D01*
X58860Y-32741D01*
X58925Y-32585D01*
X58925Y-33045D01*
X57925Y-33045D01*
X57925Y-32585D01*
X57925Y-32416D01*
X57861Y-32260D01*
X57741Y-32140D01*
X57585Y-32075D01*
X57416Y-32075D01*
X57260Y-32139D01*
X57140Y-32259D01*
X57075Y-32415D01*
X57075Y-32584D01*
X57139Y-32740D01*
X57259Y-32860D01*
X57415Y-32925D01*
X57584Y-32925D01*
X57740Y-32861D01*
X57860Y-32741D01*
X57925Y-32585D01*
X57925Y-33045D01*
X57019Y-33045D01*
X57019Y-32574D01*
X57008Y-32370D01*
X56952Y-32233D01*
X56861Y-32210D01*
X56790Y-32281D01*
X56790Y-32139D01*
X56767Y-32048D01*
X56574Y-31981D01*
X56370Y-31992D01*
X56233Y-32048D01*
X56210Y-32139D01*
X56500Y-32429D01*
X56790Y-32139D01*
X56790Y-32281D01*
X56571Y-32500D01*
X56861Y-32790D01*
X56952Y-32767D01*
X57019Y-32574D01*
X57019Y-33045D01*
X56790Y-33045D01*
X56790Y-32861D01*
X56500Y-32571D01*
X56429Y-32642D01*
X56429Y-32500D01*
X56139Y-32210D01*
X56048Y-32233D01*
X55981Y-32426D01*
X55992Y-32630D01*
X56048Y-32767D01*
X56139Y-32790D01*
X56429Y-32500D01*
X56429Y-32642D01*
X56210Y-32861D01*
X56233Y-32952D01*
X56426Y-33019D01*
X56630Y-33008D01*
X56767Y-32952D01*
X56790Y-32861D01*
X56790Y-33045D01*
X55925Y-33045D01*
X55925Y-32585D01*
X55925Y-32416D01*
X55861Y-32260D01*
X55741Y-32140D01*
X55585Y-32075D01*
X55416Y-32075D01*
X55260Y-32139D01*
X55140Y-32259D01*
X55075Y-32415D01*
X55075Y-32584D01*
X55139Y-32740D01*
X55259Y-32860D01*
X55415Y-32925D01*
X55584Y-32925D01*
X55740Y-32861D01*
X55860Y-32741D01*
X55925Y-32585D01*
X55925Y-33045D01*
X54925Y-33045D01*
X54925Y-32585D01*
X54925Y-32416D01*
X54861Y-32260D01*
X54741Y-32140D01*
X54585Y-32075D01*
X54416Y-32075D01*
X54260Y-32139D01*
X54140Y-32259D01*
X54075Y-32415D01*
X54075Y-32584D01*
X54139Y-32740D01*
X54259Y-32860D01*
X54415Y-32925D01*
X54584Y-32925D01*
X54740Y-32861D01*
X54860Y-32741D01*
X54925Y-32585D01*
X54925Y-33045D01*
X54019Y-33045D01*
X54019Y-32574D01*
X54008Y-32370D01*
X53952Y-32233D01*
X53861Y-32210D01*
X53790Y-32281D01*
X53790Y-32139D01*
X53767Y-32048D01*
X53574Y-31981D01*
X53370Y-31992D01*
X53233Y-32048D01*
X53210Y-32139D01*
X53500Y-32429D01*
X53790Y-32139D01*
X53790Y-32281D01*
X53571Y-32500D01*
X53861Y-32790D01*
X53952Y-32767D01*
X54019Y-32574D01*
X54019Y-33045D01*
X53790Y-33045D01*
X53790Y-32861D01*
X53500Y-32571D01*
X53429Y-32642D01*
X53429Y-32500D01*
X53139Y-32210D01*
X53048Y-32233D01*
X53003Y-32359D01*
X52952Y-32233D01*
X52861Y-32210D01*
X52790Y-32281D01*
X52790Y-32139D01*
X52767Y-32048D01*
X52574Y-31981D01*
X52435Y-31988D01*
X52435Y-28662D01*
X52435Y-28438D01*
X52434Y-27349D01*
X52434Y-27250D01*
X52396Y-27159D01*
X52326Y-27089D01*
X52234Y-27051D01*
X50852Y-27050D01*
X50790Y-27112D01*
X50790Y-28500D01*
X52373Y-28500D01*
X52435Y-28438D01*
X52435Y-28662D01*
X52373Y-28600D01*
X50790Y-28600D01*
X50790Y-29988D01*
X50852Y-30050D01*
X52234Y-30049D01*
X52326Y-30011D01*
X52396Y-29941D01*
X52434Y-29850D01*
X52434Y-29751D01*
X52435Y-28662D01*
X52435Y-31988D01*
X52370Y-31992D01*
X52233Y-32048D01*
X52210Y-32139D01*
X52500Y-32429D01*
X52790Y-32139D01*
X52790Y-32281D01*
X52571Y-32500D01*
X52861Y-32790D01*
X52952Y-32767D01*
X52996Y-32640D01*
X53048Y-32767D01*
X53139Y-32790D01*
X53429Y-32500D01*
X53429Y-32642D01*
X53210Y-32861D01*
X53233Y-32952D01*
X53426Y-33019D01*
X53630Y-33008D01*
X53767Y-32952D01*
X53790Y-32861D01*
X53790Y-33045D01*
X52790Y-33045D01*
X52790Y-32861D01*
X52500Y-32571D01*
X52429Y-32642D01*
X52429Y-32500D01*
X52139Y-32210D01*
X52048Y-32233D01*
X52003Y-32359D01*
X51952Y-32233D01*
X51861Y-32210D01*
X51790Y-32281D01*
X51790Y-32139D01*
X51767Y-32048D01*
X51574Y-31981D01*
X51370Y-31992D01*
X51233Y-32048D01*
X51210Y-32139D01*
X51500Y-32429D01*
X51790Y-32139D01*
X51790Y-32281D01*
X51571Y-32500D01*
X51861Y-32790D01*
X51952Y-32767D01*
X51996Y-32640D01*
X52048Y-32767D01*
X52139Y-32790D01*
X52429Y-32500D01*
X52429Y-32642D01*
X52210Y-32861D01*
X52233Y-32952D01*
X52426Y-33019D01*
X52630Y-33008D01*
X52767Y-32952D01*
X52790Y-32861D01*
X52790Y-33045D01*
X51790Y-33045D01*
X51790Y-32861D01*
X51500Y-32571D01*
X51429Y-32642D01*
X51429Y-32500D01*
X51139Y-32210D01*
X51048Y-32233D01*
X50981Y-32426D01*
X50992Y-32630D01*
X51048Y-32767D01*
X51139Y-32790D01*
X51429Y-32500D01*
X51429Y-32642D01*
X51210Y-32861D01*
X51233Y-32952D01*
X51426Y-33019D01*
X51630Y-33008D01*
X51767Y-32952D01*
X51790Y-32861D01*
X51790Y-33045D01*
X50740Y-33045D01*
X50740Y-32398D01*
X50740Y-32104D01*
X50628Y-31832D01*
X50420Y-31624D01*
X50148Y-31510D01*
X49854Y-31510D01*
X49582Y-31622D01*
X49374Y-31830D01*
X49260Y-32102D01*
X49260Y-32396D01*
X49372Y-32668D01*
X49580Y-32876D01*
X49852Y-32990D01*
X50146Y-32990D01*
X50418Y-32878D01*
X50626Y-32670D01*
X50740Y-32398D01*
X50740Y-33045D01*
X49205Y-33045D01*
X49205Y-31750D01*
X49205Y-30032D01*
X49246Y-30049D01*
X50628Y-30050D01*
X50690Y-29988D01*
X50690Y-28650D01*
X50690Y-28600D01*
X50690Y-28500D01*
X50690Y-28450D01*
X50690Y-27112D01*
X50628Y-27050D01*
X49246Y-27051D01*
X49205Y-27067D01*
X49205Y-23521D01*
X49211Y-23527D01*
X49266Y-23549D01*
X49325Y-23549D01*
X52215Y-23549D01*
X52270Y-23526D01*
X52312Y-23484D01*
X52334Y-23429D01*
X52334Y-23370D01*
X52334Y-20870D01*
X52311Y-20815D01*
X52269Y-20773D01*
X52214Y-20751D01*
X52155Y-20751D01*
X50970Y-20751D01*
X50970Y-20480D01*
X51145Y-20305D01*
X55720Y-20305D01*
X55765Y-20350D01*
X55885Y-20400D01*
X56014Y-20400D01*
X56134Y-20351D01*
X56225Y-20260D01*
X56275Y-20140D01*
X56275Y-20011D01*
X56226Y-19891D01*
X56135Y-19800D01*
X56015Y-19750D01*
X55886Y-19750D01*
X55766Y-19799D01*
X55720Y-19845D01*
X52019Y-19845D01*
X52019Y-18324D01*
X52008Y-18120D01*
X51952Y-17983D01*
X51861Y-17960D01*
X51790Y-18031D01*
X51790Y-17889D01*
X51767Y-17798D01*
X51574Y-17731D01*
X51370Y-17742D01*
X51233Y-17798D01*
X51210Y-17889D01*
X51500Y-18179D01*
X51790Y-17889D01*
X51790Y-18031D01*
X51571Y-18250D01*
X51861Y-18540D01*
X51952Y-18517D01*
X52019Y-18324D01*
X52019Y-19845D01*
X51790Y-19845D01*
X51790Y-18611D01*
X51500Y-18321D01*
X51429Y-18392D01*
X51429Y-18250D01*
X51139Y-17960D01*
X51048Y-17983D01*
X50981Y-18176D01*
X50992Y-18380D01*
X51048Y-18517D01*
X51139Y-18540D01*
X51429Y-18250D01*
X51429Y-18392D01*
X51210Y-18611D01*
X51233Y-18702D01*
X51426Y-18769D01*
X51630Y-18758D01*
X51767Y-18702D01*
X51790Y-18611D01*
X51790Y-19845D01*
X51050Y-19845D01*
X50962Y-19863D01*
X50887Y-19912D01*
X50885Y-19914D01*
X50740Y-20059D01*
X50740Y-18648D01*
X50740Y-18354D01*
X50628Y-18082D01*
X50420Y-17874D01*
X50148Y-17760D01*
X49854Y-17760D01*
X49582Y-17872D01*
X49374Y-18080D01*
X49260Y-18352D01*
X49260Y-18646D01*
X49372Y-18918D01*
X49580Y-19126D01*
X49852Y-19240D01*
X50146Y-19240D01*
X50418Y-19128D01*
X50626Y-18920D01*
X50740Y-18648D01*
X50740Y-20059D01*
X50577Y-20222D01*
X50528Y-20297D01*
X50509Y-20385D01*
X50510Y-20389D01*
X50510Y-20751D01*
X49265Y-20751D01*
X49210Y-20774D01*
X49205Y-20779D01*
X49205Y-17705D01*
X76450Y-17705D01*
X76450Y-20757D01*
X76434Y-20751D01*
X76375Y-20751D01*
X76240Y-20751D01*
X76240Y-18648D01*
X76240Y-18354D01*
X76128Y-18082D01*
X75920Y-17874D01*
X75648Y-17760D01*
X75354Y-17760D01*
X75082Y-17872D01*
X74874Y-18080D01*
X74760Y-18352D01*
X74760Y-18646D01*
X74872Y-18918D01*
X75080Y-19126D01*
X75352Y-19240D01*
X75646Y-19240D01*
X75918Y-19128D01*
X76126Y-18920D01*
X76240Y-18648D01*
X76240Y-20751D01*
X74925Y-20751D01*
X74925Y-19265D01*
X74925Y-19136D01*
X74876Y-19016D01*
X74785Y-18925D01*
X74665Y-18875D01*
X74536Y-18875D01*
X74416Y-18924D01*
X74340Y-19000D01*
X67560Y-19000D01*
X67485Y-18925D01*
X67365Y-18875D01*
X67236Y-18875D01*
X67116Y-18924D01*
X67025Y-19015D01*
X66975Y-19135D01*
X66975Y-19264D01*
X67024Y-19384D01*
X67115Y-19475D01*
X67235Y-19525D01*
X67364Y-19525D01*
X67484Y-19476D01*
X67560Y-19400D01*
X70460Y-19400D01*
X70425Y-19485D01*
X70425Y-19614D01*
X70474Y-19734D01*
X70565Y-19825D01*
X70685Y-19875D01*
X70814Y-19875D01*
X70934Y-19826D01*
X71010Y-19750D01*
X71450Y-19750D01*
X73790Y-19750D01*
X73865Y-19825D01*
X73985Y-19875D01*
X74114Y-19875D01*
X74234Y-19826D01*
X74325Y-19735D01*
X74375Y-19615D01*
X74375Y-19486D01*
X74340Y-19400D01*
X74415Y-19475D01*
X74535Y-19525D01*
X74664Y-19525D01*
X74784Y-19476D01*
X74875Y-19385D01*
X74925Y-19265D01*
X74925Y-20751D01*
X73485Y-20751D01*
X73430Y-20774D01*
X73388Y-20816D01*
X73366Y-20871D01*
X73366Y-20930D01*
X73366Y-23430D01*
X73389Y-23485D01*
X73431Y-23527D01*
X73486Y-23549D01*
X73545Y-23549D01*
X74310Y-23549D01*
X74310Y-27151D01*
X74128Y-27151D01*
X74128Y-26009D01*
X74128Y-25793D01*
X74046Y-25594D01*
X73894Y-25441D01*
X73695Y-25358D01*
X73479Y-25358D01*
X73280Y-25440D01*
X73127Y-25592D01*
X73044Y-25791D01*
X73044Y-26007D01*
X73126Y-26206D01*
X73278Y-26359D01*
X73477Y-26442D01*
X73693Y-26442D01*
X73892Y-26360D01*
X74045Y-26208D01*
X74128Y-26009D01*
X74128Y-27151D01*
X73485Y-27151D01*
X73430Y-27174D01*
X73388Y-27216D01*
X73366Y-27271D01*
X73366Y-27330D01*
X73366Y-29830D01*
X73389Y-29885D01*
X73431Y-29927D01*
X73486Y-29949D01*
X73545Y-29949D01*
X76435Y-29949D01*
X76450Y-29942D01*
X76450Y-33045D01*
X76450Y-33045D01*
G37*
G54D18*
X76450Y-33045D02*
X76240Y-33045D01*
X76240Y-32398D01*
X76240Y-32104D01*
X76128Y-31832D01*
X75920Y-31624D01*
X75648Y-31510D01*
X75354Y-31510D01*
X75082Y-31622D01*
X74874Y-31830D01*
X74760Y-32102D01*
X74760Y-32396D01*
X74872Y-32668D01*
X75080Y-32876D01*
X75352Y-32990D01*
X75646Y-32990D01*
X75918Y-32878D01*
X76126Y-32670D01*
X76240Y-32398D01*
X76240Y-33045D01*
X74750Y-33045D01*
X74750Y-31340D01*
X74750Y-31211D01*
X74701Y-31091D01*
X74610Y-31000D01*
X74490Y-30950D01*
X74361Y-30950D01*
X74241Y-30999D01*
X74150Y-31090D01*
X74114Y-31175D01*
X65114Y-31175D01*
X65234Y-31126D01*
X65310Y-31050D01*
X67450Y-31050D01*
X69550Y-31050D01*
X70000Y-31050D01*
X72400Y-31050D01*
X72400Y-31049D01*
X72476Y-31035D01*
X72477Y-31035D01*
X72541Y-30991D01*
X72691Y-30842D01*
X72691Y-30841D01*
X72713Y-30809D01*
X72735Y-30777D01*
X72735Y-30776D01*
X72735Y-30774D01*
X72825Y-30685D01*
X72875Y-30565D01*
X72875Y-30436D01*
X72826Y-30316D01*
X72735Y-30225D01*
X72615Y-30175D01*
X72486Y-30175D01*
X72366Y-30224D01*
X72325Y-30265D01*
X72325Y-24865D01*
X72325Y-24736D01*
X72276Y-24616D01*
X72185Y-24525D01*
X72065Y-24475D01*
X71936Y-24475D01*
X71816Y-24524D01*
X71770Y-24570D01*
X70230Y-24570D01*
X70185Y-24525D01*
X70065Y-24475D01*
X69936Y-24475D01*
X69816Y-24524D01*
X69770Y-24570D01*
X69375Y-24570D01*
X69375Y-21515D01*
X69375Y-21386D01*
X69326Y-21266D01*
X69235Y-21175D01*
X69115Y-21125D01*
X68986Y-21125D01*
X68866Y-21174D01*
X68790Y-21250D01*
X68675Y-21250D01*
X68675Y-21186D01*
X68626Y-21066D01*
X68535Y-20975D01*
X68415Y-20925D01*
X68286Y-20925D01*
X68166Y-20974D01*
X68090Y-21050D01*
X67410Y-21050D01*
X67335Y-20975D01*
X67215Y-20925D01*
X67086Y-20925D01*
X66966Y-20974D01*
X66875Y-21065D01*
X66825Y-21185D01*
X66825Y-21250D01*
X66325Y-21250D01*
X66325Y-20665D01*
X66325Y-20536D01*
X66276Y-20416D01*
X66185Y-20325D01*
X66065Y-20275D01*
X65936Y-20275D01*
X65816Y-20324D01*
X65740Y-20400D01*
X64924Y-20400D01*
X64924Y-18554D01*
X64924Y-18495D01*
X64924Y-17945D01*
X64901Y-17890D01*
X64859Y-17848D01*
X64804Y-17826D01*
X64745Y-17826D01*
X64195Y-17826D01*
X64140Y-17849D01*
X64098Y-17891D01*
X64076Y-17946D01*
X64076Y-18005D01*
X64076Y-18555D01*
X64099Y-18610D01*
X64141Y-18652D01*
X64196Y-18674D01*
X64255Y-18674D01*
X64805Y-18674D01*
X64860Y-18651D01*
X64902Y-18609D01*
X64924Y-18554D01*
X64924Y-20400D01*
X63925Y-20400D01*
X63925Y-18335D01*
X63925Y-18166D01*
X63861Y-18010D01*
X63741Y-17890D01*
X63585Y-17825D01*
X63416Y-17825D01*
X63260Y-17889D01*
X63140Y-18009D01*
X63075Y-18165D01*
X63075Y-18334D01*
X63139Y-18490D01*
X63259Y-18610D01*
X63300Y-18627D01*
X63300Y-19017D01*
X63217Y-19100D01*
X63019Y-19100D01*
X63019Y-18324D01*
X63008Y-18120D01*
X62952Y-17983D01*
X62861Y-17960D01*
X62790Y-18031D01*
X62790Y-17889D01*
X62767Y-17798D01*
X62574Y-17731D01*
X62370Y-17742D01*
X62233Y-17798D01*
X62210Y-17889D01*
X62500Y-18179D01*
X62790Y-17889D01*
X62790Y-18031D01*
X62571Y-18250D01*
X62861Y-18540D01*
X62952Y-18517D01*
X63019Y-18324D01*
X63019Y-19100D01*
X62790Y-19100D01*
X62790Y-18611D01*
X62500Y-18321D01*
X62429Y-18392D01*
X62429Y-18250D01*
X62139Y-17960D01*
X62048Y-17983D01*
X61981Y-18176D01*
X61992Y-18380D01*
X62048Y-18517D01*
X62139Y-18540D01*
X62429Y-18250D01*
X62429Y-18392D01*
X62210Y-18611D01*
X62233Y-18702D01*
X62426Y-18769D01*
X62630Y-18758D01*
X62767Y-18702D01*
X62790Y-18611D01*
X62790Y-19100D01*
X61925Y-19100D01*
X61925Y-18335D01*
X61925Y-18166D01*
X61861Y-18010D01*
X61741Y-17890D01*
X61585Y-17825D01*
X61416Y-17825D01*
X61260Y-17889D01*
X61140Y-18009D01*
X61075Y-18165D01*
X61075Y-18334D01*
X61139Y-18490D01*
X61259Y-18610D01*
X61415Y-18675D01*
X61584Y-18675D01*
X61740Y-18611D01*
X61860Y-18491D01*
X61925Y-18335D01*
X61925Y-19100D01*
X60960Y-19100D01*
X60925Y-19065D01*
X60925Y-18335D01*
X60925Y-18166D01*
X60861Y-18010D01*
X60741Y-17890D01*
X60585Y-17825D01*
X60416Y-17825D01*
X60260Y-17889D01*
X60140Y-18009D01*
X60075Y-18165D01*
X60075Y-18334D01*
X60139Y-18490D01*
X60259Y-18610D01*
X60415Y-18675D01*
X60584Y-18675D01*
X60740Y-18611D01*
X60860Y-18491D01*
X60925Y-18335D01*
X60925Y-19065D01*
X60885Y-19025D01*
X60765Y-18975D01*
X60636Y-18975D01*
X60516Y-19024D01*
X60425Y-19115D01*
X60375Y-19235D01*
X60375Y-19364D01*
X60424Y-19484D01*
X60515Y-19575D01*
X60635Y-19625D01*
X60764Y-19625D01*
X60884Y-19576D01*
X60960Y-19500D01*
X63300Y-19500D01*
X63300Y-19499D01*
X63376Y-19485D01*
X63377Y-19485D01*
X63441Y-19441D01*
X63641Y-19242D01*
X63641Y-19241D01*
X63685Y-19177D01*
X63699Y-19101D01*
X63700Y-19100D01*
X63700Y-18627D01*
X63740Y-18611D01*
X63860Y-18491D01*
X63925Y-18335D01*
X63925Y-20400D01*
X61960Y-20400D01*
X61885Y-20325D01*
X61765Y-20275D01*
X61636Y-20275D01*
X61516Y-20324D01*
X61425Y-20415D01*
X61375Y-20535D01*
X61375Y-20664D01*
X61424Y-20784D01*
X61515Y-20875D01*
X61635Y-20925D01*
X61764Y-20925D01*
X61884Y-20876D01*
X61960Y-20800D01*
X65740Y-20800D01*
X65815Y-20875D01*
X65935Y-20925D01*
X66064Y-20925D01*
X66184Y-20876D01*
X66275Y-20785D01*
X66325Y-20665D01*
X66325Y-21250D01*
X65950Y-21250D01*
X64200Y-21250D01*
X63000Y-21250D01*
X61000Y-21250D01*
X60325Y-21250D01*
X60325Y-19065D01*
X60325Y-18936D01*
X60276Y-18816D01*
X60185Y-18725D01*
X60065Y-18675D01*
X60019Y-18675D01*
X60019Y-18324D01*
X60008Y-18120D01*
X59952Y-17983D01*
X59861Y-17960D01*
X59790Y-18031D01*
X59790Y-17889D01*
X59767Y-17798D01*
X59574Y-17731D01*
X59370Y-17742D01*
X59233Y-17798D01*
X59210Y-17889D01*
X59500Y-18179D01*
X59790Y-17889D01*
X59790Y-18031D01*
X59571Y-18250D01*
X59861Y-18540D01*
X59952Y-18517D01*
X60019Y-18324D01*
X60019Y-18675D01*
X59936Y-18675D01*
X59816Y-18724D01*
X59790Y-18750D01*
X59790Y-18611D01*
X59500Y-18321D01*
X59429Y-18392D01*
X59429Y-18250D01*
X59139Y-17960D01*
X59048Y-17983D01*
X58981Y-18176D01*
X58992Y-18380D01*
X59048Y-18517D01*
X59139Y-18540D01*
X59429Y-18250D01*
X59429Y-18392D01*
X59210Y-18611D01*
X59233Y-18702D01*
X59426Y-18769D01*
X59630Y-18758D01*
X59767Y-18702D01*
X59790Y-18611D01*
X59790Y-18750D01*
X59740Y-18800D01*
X58925Y-18800D01*
X58925Y-18335D01*
X58925Y-18166D01*
X58861Y-18010D01*
X58741Y-17890D01*
X58585Y-17825D01*
X58416Y-17825D01*
X58260Y-17889D01*
X58140Y-18009D01*
X58075Y-18165D01*
X58075Y-18334D01*
X58139Y-18490D01*
X58259Y-18610D01*
X58415Y-18675D01*
X58584Y-18675D01*
X58740Y-18611D01*
X58860Y-18491D01*
X58925Y-18335D01*
X58925Y-18800D01*
X57882Y-18800D01*
X57706Y-18624D01*
X57740Y-18611D01*
X57860Y-18491D01*
X57925Y-18335D01*
X57925Y-18166D01*
X57861Y-18010D01*
X57741Y-17890D01*
X57585Y-17825D01*
X57416Y-17825D01*
X57260Y-17889D01*
X57140Y-18009D01*
X57075Y-18165D01*
X57075Y-18334D01*
X57139Y-18490D01*
X57259Y-18610D01*
X57300Y-18627D01*
X57300Y-18650D01*
X57019Y-18650D01*
X57019Y-18324D01*
X57008Y-18120D01*
X56952Y-17983D01*
X56861Y-17960D01*
X56790Y-18031D01*
X56790Y-17889D01*
X56767Y-17798D01*
X56574Y-17731D01*
X56370Y-17742D01*
X56233Y-17798D01*
X56210Y-17889D01*
X56500Y-18179D01*
X56790Y-17889D01*
X56790Y-18031D01*
X56571Y-18250D01*
X56861Y-18540D01*
X56952Y-18517D01*
X57019Y-18324D01*
X57019Y-18650D01*
X56780Y-18650D01*
X56790Y-18611D01*
X56500Y-18321D01*
X56429Y-18392D01*
X56429Y-18250D01*
X56139Y-17960D01*
X56048Y-17983D01*
X55981Y-18176D01*
X55992Y-18380D01*
X56048Y-18517D01*
X56139Y-18540D01*
X56429Y-18250D01*
X56429Y-18392D01*
X56210Y-18611D01*
X56219Y-18650D01*
X55644Y-18650D01*
X55740Y-18611D01*
X55860Y-18491D01*
X55925Y-18335D01*
X55925Y-18166D01*
X55861Y-18010D01*
X55741Y-17890D01*
X55585Y-17825D01*
X55416Y-17825D01*
X55260Y-17889D01*
X55140Y-18009D01*
X55075Y-18165D01*
X55075Y-18334D01*
X55139Y-18490D01*
X55259Y-18610D01*
X55355Y-18650D01*
X54832Y-18650D01*
X54766Y-18584D01*
X54860Y-18491D01*
X54925Y-18335D01*
X54925Y-18166D01*
X54861Y-18010D01*
X54741Y-17890D01*
X54585Y-17825D01*
X54416Y-17825D01*
X54260Y-17889D01*
X54140Y-18009D01*
X54075Y-18165D01*
X54075Y-18334D01*
X54139Y-18490D01*
X54259Y-18610D01*
X54305Y-18629D01*
X54315Y-18677D01*
X54359Y-18741D01*
X54517Y-18900D01*
X54019Y-18900D01*
X54019Y-18324D01*
X54008Y-18120D01*
X53952Y-17983D01*
X53861Y-17960D01*
X53790Y-18031D01*
X53790Y-17889D01*
X53767Y-17798D01*
X53574Y-17731D01*
X53370Y-17742D01*
X53233Y-17798D01*
X53210Y-17889D01*
X53500Y-18179D01*
X53790Y-17889D01*
X53790Y-18031D01*
X53571Y-18250D01*
X53861Y-18540D01*
X53952Y-18517D01*
X54019Y-18324D01*
X54019Y-18900D01*
X53790Y-18900D01*
X53790Y-18611D01*
X53500Y-18321D01*
X53429Y-18392D01*
X53429Y-18250D01*
X53139Y-17960D01*
X53048Y-17983D01*
X52981Y-18176D01*
X52992Y-18380D01*
X53048Y-18517D01*
X53139Y-18540D01*
X53429Y-18250D01*
X53429Y-18392D01*
X53210Y-18611D01*
X53233Y-18702D01*
X53426Y-18769D01*
X53630Y-18758D01*
X53767Y-18702D01*
X53790Y-18611D01*
X53790Y-18900D01*
X52832Y-18900D01*
X52700Y-18767D01*
X52700Y-18627D01*
X52740Y-18611D01*
X52860Y-18491D01*
X52925Y-18335D01*
X52925Y-18166D01*
X52861Y-18010D01*
X52741Y-17890D01*
X52585Y-17825D01*
X52416Y-17825D01*
X52260Y-17889D01*
X52140Y-18009D01*
X52075Y-18165D01*
X52075Y-18334D01*
X52139Y-18490D01*
X52259Y-18610D01*
X52300Y-18627D01*
X52300Y-18850D01*
X52315Y-18927D01*
X52359Y-18991D01*
X52608Y-19241D01*
X52609Y-19241D01*
X52673Y-19285D01*
X52750Y-19300D01*
X57117Y-19300D01*
X57458Y-19641D01*
X57459Y-19641D01*
X57523Y-19685D01*
X57600Y-19700D01*
X58939Y-19700D01*
X58974Y-19784D01*
X59065Y-19875D01*
X59185Y-19925D01*
X59314Y-19925D01*
X59434Y-19876D01*
X59525Y-19785D01*
X59572Y-19669D01*
X59585Y-19675D01*
X59714Y-19675D01*
X59834Y-19626D01*
X59925Y-19535D01*
X59975Y-19415D01*
X59975Y-19325D01*
X60064Y-19325D01*
X60184Y-19276D01*
X60275Y-19185D01*
X60325Y-19065D01*
X60325Y-21250D01*
X59510Y-21250D01*
X59435Y-21175D01*
X59315Y-21125D01*
X59186Y-21125D01*
X59066Y-21174D01*
X58990Y-21250D01*
X58660Y-21250D01*
X58585Y-21175D01*
X58465Y-21125D01*
X58336Y-21125D01*
X58216Y-21174D01*
X58125Y-21265D01*
X58075Y-21385D01*
X58075Y-21514D01*
X58124Y-21634D01*
X58215Y-21725D01*
X58335Y-21775D01*
X58464Y-21775D01*
X58584Y-21726D01*
X58660Y-21650D01*
X58990Y-21650D01*
X59065Y-21725D01*
X59185Y-21775D01*
X59314Y-21775D01*
X59434Y-21726D01*
X59510Y-21650D01*
X61000Y-21650D01*
X63000Y-21650D01*
X64200Y-21650D01*
X65950Y-21650D01*
X66767Y-21650D01*
X66858Y-21741D01*
X66859Y-21741D01*
X66891Y-21763D01*
X66923Y-21785D01*
X66924Y-21785D01*
X67000Y-21800D01*
X68500Y-21800D01*
X68500Y-21799D01*
X68576Y-21785D01*
X68577Y-21785D01*
X68641Y-21741D01*
X68732Y-21650D01*
X68790Y-21650D01*
X68865Y-21725D01*
X68985Y-21775D01*
X69114Y-21775D01*
X69234Y-21726D01*
X69325Y-21635D01*
X69375Y-21515D01*
X69375Y-24570D01*
X68400Y-24570D01*
X66375Y-24570D01*
X66375Y-24215D01*
X66375Y-24086D01*
X66326Y-23966D01*
X66235Y-23875D01*
X66115Y-23825D01*
X65986Y-23825D01*
X65866Y-23874D01*
X65790Y-23950D01*
X61935Y-23950D01*
X61860Y-23875D01*
X61740Y-23825D01*
X61611Y-23825D01*
X61491Y-23874D01*
X61400Y-23965D01*
X61350Y-24085D01*
X61350Y-24214D01*
X61399Y-24334D01*
X61490Y-24425D01*
X61610Y-24475D01*
X61739Y-24475D01*
X61859Y-24426D01*
X61935Y-24350D01*
X65790Y-24350D01*
X65865Y-24425D01*
X65985Y-24475D01*
X66114Y-24475D01*
X66234Y-24426D01*
X66325Y-24335D01*
X66375Y-24215D01*
X66375Y-24570D01*
X65330Y-24570D01*
X65285Y-24525D01*
X65165Y-24475D01*
X65036Y-24475D01*
X64916Y-24524D01*
X64870Y-24570D01*
X64730Y-24570D01*
X64685Y-24525D01*
X64565Y-24475D01*
X64436Y-24475D01*
X64316Y-24524D01*
X64270Y-24570D01*
X64030Y-24570D01*
X63985Y-24525D01*
X63865Y-24475D01*
X63736Y-24475D01*
X63616Y-24524D01*
X63570Y-24570D01*
X61400Y-24570D01*
X61130Y-24570D01*
X61085Y-24525D01*
X60965Y-24475D01*
X60836Y-24475D01*
X60716Y-24524D01*
X60670Y-24570D01*
X59287Y-24570D01*
X59332Y-24525D01*
X59439Y-24525D01*
X59559Y-24476D01*
X59650Y-24385D01*
X59700Y-24265D01*
X59700Y-24136D01*
X59651Y-24016D01*
X59560Y-23925D01*
X59440Y-23875D01*
X59311Y-23875D01*
X59191Y-23924D01*
X59129Y-23985D01*
X59101Y-23916D01*
X59010Y-23825D01*
X58890Y-23775D01*
X58761Y-23775D01*
X58725Y-23789D01*
X58725Y-23786D01*
X58676Y-23666D01*
X58585Y-23575D01*
X58465Y-23525D01*
X58336Y-23525D01*
X58216Y-23574D01*
X58140Y-23650D01*
X56560Y-23650D01*
X56485Y-23575D01*
X56365Y-23525D01*
X56236Y-23525D01*
X56116Y-23574D01*
X56025Y-23665D01*
X55975Y-23785D01*
X55975Y-23914D01*
X56020Y-24025D01*
X53532Y-24025D01*
X53466Y-23959D01*
X53402Y-23915D01*
X53325Y-23900D01*
X52925Y-23900D01*
X52848Y-23915D01*
X52833Y-23925D01*
X52711Y-23925D01*
X52591Y-23974D01*
X52500Y-24065D01*
X52450Y-24185D01*
X52450Y-24314D01*
X52488Y-24407D01*
X52422Y-24341D01*
X52223Y-24258D01*
X52007Y-24258D01*
X51808Y-24340D01*
X51655Y-24492D01*
X51572Y-24691D01*
X51572Y-24907D01*
X51654Y-25106D01*
X51806Y-25259D01*
X52005Y-25342D01*
X52221Y-25342D01*
X52420Y-25260D01*
X52573Y-25108D01*
X52656Y-24909D01*
X52656Y-24693D01*
X52584Y-24519D01*
X52590Y-24525D01*
X52710Y-24575D01*
X52839Y-24575D01*
X52891Y-24553D01*
X52924Y-24634D01*
X53015Y-24725D01*
X53135Y-24775D01*
X53264Y-24775D01*
X53384Y-24726D01*
X53460Y-24650D01*
X54810Y-24650D01*
X54775Y-24735D01*
X54775Y-24864D01*
X54824Y-24984D01*
X54915Y-25075D01*
X55035Y-25125D01*
X55164Y-25125D01*
X55284Y-25076D01*
X55330Y-25030D01*
X56070Y-25030D01*
X56115Y-25075D01*
X56235Y-25125D01*
X56364Y-25125D01*
X56484Y-25076D01*
X56530Y-25030D01*
X59112Y-25030D01*
X59066Y-25049D01*
X58975Y-25140D01*
X58929Y-25250D01*
X57407Y-25250D01*
X57341Y-25184D01*
X57277Y-25140D01*
X57200Y-25125D01*
X56750Y-25125D01*
X56673Y-25140D01*
X56621Y-25175D01*
X56511Y-25175D01*
X56391Y-25224D01*
X56300Y-25315D01*
X56250Y-25435D01*
X56250Y-25564D01*
X56299Y-25684D01*
X56390Y-25775D01*
X56510Y-25825D01*
X56639Y-25825D01*
X56721Y-25791D01*
X56749Y-25859D01*
X56840Y-25950D01*
X56960Y-26000D01*
X57089Y-26000D01*
X57209Y-25951D01*
X57285Y-25875D01*
X59390Y-25875D01*
X59440Y-25925D01*
X59560Y-25975D01*
X59689Y-25975D01*
X59809Y-25926D01*
X59900Y-25835D01*
X59950Y-25715D01*
X59950Y-25586D01*
X59901Y-25466D01*
X59810Y-25375D01*
X59690Y-25325D01*
X59575Y-25325D01*
X59575Y-25261D01*
X59526Y-25141D01*
X59435Y-25050D01*
X59387Y-25030D01*
X60670Y-25030D01*
X60715Y-25075D01*
X60835Y-25125D01*
X60964Y-25125D01*
X61084Y-25076D01*
X61130Y-25030D01*
X61400Y-25030D01*
X63570Y-25030D01*
X63615Y-25075D01*
X63735Y-25125D01*
X63864Y-25125D01*
X63984Y-25076D01*
X64030Y-25030D01*
X64270Y-25030D01*
X64315Y-25075D01*
X64435Y-25125D01*
X64564Y-25125D01*
X64684Y-25076D01*
X64730Y-25030D01*
X64870Y-25030D01*
X64915Y-25075D01*
X65035Y-25125D01*
X65164Y-25125D01*
X65284Y-25076D01*
X65330Y-25030D01*
X67010Y-25030D01*
X66925Y-25115D01*
X66889Y-25200D01*
X62482Y-25200D01*
X62441Y-25159D01*
X62377Y-25115D01*
X62300Y-25100D01*
X62000Y-25100D01*
X61923Y-25115D01*
X61858Y-25159D01*
X61742Y-25275D01*
X61636Y-25275D01*
X61516Y-25324D01*
X61425Y-25415D01*
X61375Y-25535D01*
X61375Y-25664D01*
X61424Y-25784D01*
X61515Y-25875D01*
X61635Y-25925D01*
X61764Y-25925D01*
X61884Y-25876D01*
X61900Y-25860D01*
X61965Y-25925D01*
X62085Y-25975D01*
X62214Y-25975D01*
X62334Y-25926D01*
X62410Y-25850D01*
X67290Y-25850D01*
X67365Y-25925D01*
X67485Y-25975D01*
X67614Y-25975D01*
X67734Y-25926D01*
X67825Y-25835D01*
X67875Y-25715D01*
X67875Y-25586D01*
X67826Y-25466D01*
X67735Y-25375D01*
X67615Y-25325D01*
X67525Y-25325D01*
X67525Y-25236D01*
X67476Y-25116D01*
X67390Y-25030D01*
X68400Y-25030D01*
X69770Y-25030D01*
X69815Y-25075D01*
X69935Y-25125D01*
X70064Y-25125D01*
X70184Y-25076D01*
X70230Y-25030D01*
X71770Y-25030D01*
X71815Y-25075D01*
X71935Y-25125D01*
X72064Y-25125D01*
X72184Y-25076D01*
X72275Y-24985D01*
X72325Y-24865D01*
X72325Y-30265D01*
X72275Y-30315D01*
X72225Y-30435D01*
X72225Y-30564D01*
X72260Y-30650D01*
X70000Y-30650D01*
X69839Y-30650D01*
X69875Y-30565D01*
X69875Y-30436D01*
X69826Y-30316D01*
X69735Y-30225D01*
X69615Y-30175D01*
X69486Y-30175D01*
X69366Y-30224D01*
X69275Y-30315D01*
X69225Y-30435D01*
X69225Y-30564D01*
X69260Y-30650D01*
X67450Y-30650D01*
X67160Y-30650D01*
X67175Y-30635D01*
X67225Y-30515D01*
X67225Y-30386D01*
X67176Y-30266D01*
X67085Y-30175D01*
X66965Y-30125D01*
X66857Y-30125D01*
X66691Y-29959D01*
X66627Y-29915D01*
X66550Y-29900D01*
X60475Y-29900D01*
X60475Y-27490D01*
X60475Y-27361D01*
X60426Y-27241D01*
X60335Y-27150D01*
X60215Y-27100D01*
X60086Y-27100D01*
X60021Y-27126D01*
X59976Y-27016D01*
X59885Y-26925D01*
X59765Y-26875D01*
X59636Y-26875D01*
X59592Y-26892D01*
X59551Y-26791D01*
X59460Y-26700D01*
X59340Y-26650D01*
X59211Y-26650D01*
X59091Y-26699D01*
X59000Y-26790D01*
X58954Y-26900D01*
X58825Y-26900D01*
X58825Y-26415D01*
X58825Y-26286D01*
X58776Y-26166D01*
X58685Y-26075D01*
X58565Y-26025D01*
X58436Y-26025D01*
X58316Y-26074D01*
X58240Y-26150D01*
X54310Y-26150D01*
X54235Y-26075D01*
X54115Y-26025D01*
X53986Y-26025D01*
X53866Y-26074D01*
X53790Y-26150D01*
X53525Y-26150D01*
X53525Y-26036D01*
X53476Y-25916D01*
X53385Y-25825D01*
X53265Y-25775D01*
X53175Y-25775D01*
X53175Y-25661D01*
X53126Y-25541D01*
X53035Y-25450D01*
X52915Y-25400D01*
X52786Y-25400D01*
X52666Y-25449D01*
X52590Y-25525D01*
X51575Y-25525D01*
X50335Y-25525D01*
X50260Y-25450D01*
X50140Y-25400D01*
X50011Y-25400D01*
X49891Y-25449D01*
X49800Y-25540D01*
X49750Y-25660D01*
X49750Y-25789D01*
X49799Y-25909D01*
X49890Y-26000D01*
X50010Y-26050D01*
X50025Y-26050D01*
X50025Y-26164D01*
X50074Y-26284D01*
X50165Y-26375D01*
X50285Y-26425D01*
X50414Y-26425D01*
X50534Y-26376D01*
X50610Y-26300D01*
X51310Y-26300D01*
X51275Y-26385D01*
X51275Y-26514D01*
X51324Y-26634D01*
X51415Y-26725D01*
X51535Y-26775D01*
X51664Y-26775D01*
X51784Y-26726D01*
X51860Y-26650D01*
X53400Y-26650D01*
X53400Y-26649D01*
X53476Y-26635D01*
X53477Y-26635D01*
X53541Y-26591D01*
X53582Y-26550D01*
X53790Y-26550D01*
X53865Y-26625D01*
X53985Y-26675D01*
X54114Y-26675D01*
X54234Y-26626D01*
X54310Y-26550D01*
X58240Y-26550D01*
X58315Y-26625D01*
X58435Y-26675D01*
X58564Y-26675D01*
X58684Y-26626D01*
X58775Y-26535D01*
X58825Y-26415D01*
X58825Y-26900D01*
X57982Y-26900D01*
X57866Y-26784D01*
X57802Y-26740D01*
X57725Y-26725D01*
X54760Y-26725D01*
X54685Y-26650D01*
X54565Y-26600D01*
X54436Y-26600D01*
X54316Y-26649D01*
X54225Y-26740D01*
X54175Y-26860D01*
X54175Y-26989D01*
X54224Y-27109D01*
X54315Y-27200D01*
X54435Y-27250D01*
X54564Y-27250D01*
X54684Y-27201D01*
X54760Y-27125D01*
X57235Y-27125D01*
X57200Y-27210D01*
X57200Y-27339D01*
X57249Y-27459D01*
X57315Y-27525D01*
X57250Y-27590D01*
X57200Y-27710D01*
X57200Y-27839D01*
X57249Y-27959D01*
X57340Y-28050D01*
X57460Y-28100D01*
X57589Y-28100D01*
X57709Y-28051D01*
X57800Y-27960D01*
X57850Y-27840D01*
X57850Y-27775D01*
X60000Y-27775D01*
X60000Y-27774D01*
X60076Y-27760D01*
X60077Y-27760D01*
X60090Y-27750D01*
X60091Y-27750D01*
X60214Y-27750D01*
X60334Y-27701D01*
X60425Y-27610D01*
X60475Y-27490D01*
X60475Y-29900D01*
X54400Y-29900D01*
X54323Y-29915D01*
X54258Y-29959D01*
X54092Y-30125D01*
X53986Y-30125D01*
X53866Y-30174D01*
X53775Y-30265D01*
X53725Y-30385D01*
X53725Y-30514D01*
X53774Y-30634D01*
X53865Y-30725D01*
X53985Y-30775D01*
X54114Y-30775D01*
X54234Y-30726D01*
X54325Y-30635D01*
X54375Y-30515D01*
X54375Y-30407D01*
X54482Y-30300D01*
X66467Y-30300D01*
X66575Y-30407D01*
X66575Y-30514D01*
X66624Y-30634D01*
X66640Y-30650D01*
X65310Y-30650D01*
X65235Y-30575D01*
X65115Y-30525D01*
X64986Y-30525D01*
X64866Y-30574D01*
X64775Y-30665D01*
X64725Y-30785D01*
X64725Y-30914D01*
X64774Y-31034D01*
X64865Y-31125D01*
X64985Y-31175D01*
X63760Y-31175D01*
X63685Y-31100D01*
X63565Y-31050D01*
X63436Y-31050D01*
X63316Y-31099D01*
X63240Y-31175D01*
X57335Y-31175D01*
X57267Y-31107D01*
X57284Y-31101D01*
X57360Y-31025D01*
X59690Y-31025D01*
X59765Y-31100D01*
X59885Y-31150D01*
X60014Y-31150D01*
X60134Y-31101D01*
X60225Y-31010D01*
X60275Y-30890D01*
X60275Y-30761D01*
X60226Y-30641D01*
X60135Y-30550D01*
X60015Y-30500D01*
X59886Y-30500D01*
X59766Y-30549D01*
X59690Y-30625D01*
X57360Y-30625D01*
X57285Y-30550D01*
X57165Y-30500D01*
X57036Y-30500D01*
X56916Y-30549D01*
X56825Y-30640D01*
X56775Y-30760D01*
X56775Y-30889D01*
X56824Y-31009D01*
X56907Y-31092D01*
X56891Y-31099D01*
X56800Y-31190D01*
X56750Y-31310D01*
X56750Y-31439D01*
X56795Y-31550D01*
X55410Y-31550D01*
X55335Y-31475D01*
X55215Y-31425D01*
X55086Y-31425D01*
X54966Y-31474D01*
X54875Y-31565D01*
X54825Y-31685D01*
X54825Y-31814D01*
X54874Y-31934D01*
X54965Y-32025D01*
X55085Y-32075D01*
X55214Y-32075D01*
X55334Y-32026D01*
X55410Y-31950D01*
X70217Y-31950D01*
X70350Y-32082D01*
X70350Y-32340D01*
X70287Y-32403D01*
X70287Y-32303D01*
X70287Y-32189D01*
X70243Y-32084D01*
X70163Y-32003D01*
X70057Y-31959D01*
X69943Y-31959D01*
X69838Y-32003D01*
X69757Y-32083D01*
X69713Y-32189D01*
X69713Y-32303D01*
X69757Y-32408D01*
X69837Y-32489D01*
X69943Y-32533D01*
X70057Y-32533D01*
X70162Y-32489D01*
X70243Y-32409D01*
X70287Y-32303D01*
X70287Y-32403D01*
X70275Y-32415D01*
X70225Y-32535D01*
X70225Y-32664D01*
X70274Y-32784D01*
X70365Y-32875D01*
X70485Y-32925D01*
X70614Y-32925D01*
X70734Y-32876D01*
X70825Y-32785D01*
X70875Y-32665D01*
X70875Y-32536D01*
X70826Y-32416D01*
X70750Y-32340D01*
X70750Y-32000D01*
X70735Y-31923D01*
X70691Y-31859D01*
X70691Y-31858D01*
X70441Y-31609D01*
X70391Y-31575D01*
X74300Y-31575D01*
X74360Y-31600D01*
X74489Y-31600D01*
X74609Y-31551D01*
X74700Y-31460D01*
X74750Y-31340D01*
X74750Y-33045D01*
X73172Y-33045D01*
X73187Y-33011D01*
X73187Y-32897D01*
X73187Y-32303D01*
X73187Y-32189D01*
X73143Y-32084D01*
X73063Y-32003D01*
X72957Y-31959D01*
X72843Y-31959D01*
X72738Y-32003D01*
X72657Y-32083D01*
X72613Y-32189D01*
X72613Y-32303D01*
X72657Y-32408D01*
X72737Y-32489D01*
X72843Y-32533D01*
X72957Y-32533D01*
X73062Y-32489D01*
X73143Y-32409D01*
X73187Y-32303D01*
X73187Y-32897D01*
X73143Y-32792D01*
X73063Y-32711D01*
X72957Y-32667D01*
X72843Y-32667D01*
X72738Y-32711D01*
X72657Y-32791D01*
X72613Y-32897D01*
X72613Y-33011D01*
X72627Y-33045D01*
X70272Y-33045D01*
X70287Y-33011D01*
X70287Y-32897D01*
X70243Y-32792D01*
X70163Y-32711D01*
X70057Y-32667D01*
X69943Y-32667D01*
X69838Y-32711D01*
X69757Y-32791D01*
X69713Y-32897D01*
X69713Y-33011D01*
X69727Y-33045D01*
X67372Y-33045D01*
X67387Y-33011D01*
X67387Y-32897D01*
X67387Y-32303D01*
X67387Y-32189D01*
X67343Y-32084D01*
X67263Y-32003D01*
X67157Y-31959D01*
X67043Y-31959D01*
X66938Y-32003D01*
X66857Y-32083D01*
X66813Y-32189D01*
X66813Y-32303D01*
X66857Y-32408D01*
X66937Y-32489D01*
X67043Y-32533D01*
X67157Y-32533D01*
X67262Y-32489D01*
X67343Y-32409D01*
X67387Y-32303D01*
X67387Y-32897D01*
X67343Y-32792D01*
X67263Y-32711D01*
X67157Y-32667D01*
X67043Y-32667D01*
X66938Y-32711D01*
X66857Y-32791D01*
X66813Y-32897D01*
X66813Y-33011D01*
X66827Y-33045D01*
X64924Y-33045D01*
X64924Y-32804D01*
X64924Y-32745D01*
X64924Y-32195D01*
X64901Y-32140D01*
X64859Y-32098D01*
X64804Y-32076D01*
X64745Y-32076D01*
X64195Y-32076D01*
X64140Y-32099D01*
X64098Y-32141D01*
X64076Y-32196D01*
X64076Y-32255D01*
X64076Y-32805D01*
X64099Y-32860D01*
X64141Y-32902D01*
X64196Y-32924D01*
X64255Y-32924D01*
X64805Y-32924D01*
X64860Y-32901D01*
X64902Y-32859D01*
X64924Y-32804D01*
X64924Y-33045D01*
X63925Y-33045D01*
X63925Y-32585D01*
X63925Y-32416D01*
X63861Y-32260D01*
X63741Y-32140D01*
X63585Y-32075D01*
X63416Y-32075D01*
X63260Y-32139D01*
X63140Y-32259D01*
X63075Y-32415D01*
X63075Y-32584D01*
X63139Y-32740D01*
X63259Y-32860D01*
X63415Y-32925D01*
X63584Y-32925D01*
X63740Y-32861D01*
X63860Y-32741D01*
X63925Y-32585D01*
X63925Y-33045D01*
X63019Y-33045D01*
X63019Y-32574D01*
X63008Y-32370D01*
X62952Y-32233D01*
X62861Y-32210D01*
X62790Y-32281D01*
X62790Y-32139D01*
X62767Y-32048D01*
X62574Y-31981D01*
X62370Y-31992D01*
X62233Y-32048D01*
X62210Y-32139D01*
X62500Y-32429D01*
X62790Y-32139D01*
X62790Y-32281D01*
X62571Y-32500D01*
X62861Y-32790D01*
X62952Y-32767D01*
X63019Y-32574D01*
X63019Y-33045D01*
X62790Y-33045D01*
X62790Y-32861D01*
X62500Y-32571D01*
X62429Y-32642D01*
X62429Y-32500D01*
X62139Y-32210D01*
X62048Y-32233D01*
X61981Y-32426D01*
X61992Y-32630D01*
X62048Y-32767D01*
X62139Y-32790D01*
X62429Y-32500D01*
X62429Y-32642D01*
X62210Y-32861D01*
X62233Y-32952D01*
X62426Y-33019D01*
X62630Y-33008D01*
X62767Y-32952D01*
X62790Y-32861D01*
X62790Y-33045D01*
X61925Y-33045D01*
X61925Y-32585D01*
X61925Y-32416D01*
X61861Y-32260D01*
X61741Y-32140D01*
X61585Y-32075D01*
X61416Y-32075D01*
X61260Y-32139D01*
X61140Y-32259D01*
X61075Y-32415D01*
X61075Y-32584D01*
X61139Y-32740D01*
X61259Y-32860D01*
X61415Y-32925D01*
X61584Y-32925D01*
X61740Y-32861D01*
X61860Y-32741D01*
X61925Y-32585D01*
X61925Y-33045D01*
X60925Y-33045D01*
X60925Y-32585D01*
X60925Y-32416D01*
X60861Y-32260D01*
X60741Y-32140D01*
X60585Y-32075D01*
X60416Y-32075D01*
X60260Y-32139D01*
X60140Y-32259D01*
X60075Y-32415D01*
X60075Y-32584D01*
X60139Y-32740D01*
X60259Y-32860D01*
X60415Y-32925D01*
X60584Y-32925D01*
X60740Y-32861D01*
X60860Y-32741D01*
X60925Y-32585D01*
X60925Y-33045D01*
X60019Y-33045D01*
X60019Y-32574D01*
X60008Y-32370D01*
X59952Y-32233D01*
X59861Y-32210D01*
X59790Y-32281D01*
X59790Y-32139D01*
X59767Y-32048D01*
X59574Y-31981D01*
X59370Y-31992D01*
X59233Y-32048D01*
X59210Y-32139D01*
X59500Y-32429D01*
X59790Y-32139D01*
X59790Y-32281D01*
X59571Y-32500D01*
X59861Y-32790D01*
X59952Y-32767D01*
X60019Y-32574D01*
X60019Y-33045D01*
X59790Y-33045D01*
X59790Y-32861D01*
X59500Y-32571D01*
X59429Y-32642D01*
X59429Y-32500D01*
X59139Y-32210D01*
X59048Y-32233D01*
X58981Y-32426D01*
X58992Y-32630D01*
X59048Y-32767D01*
X59139Y-32790D01*
X59429Y-32500D01*
X59429Y-32642D01*
X59210Y-32861D01*
X59233Y-32952D01*
X59426Y-33019D01*
X59630Y-33008D01*
X59767Y-32952D01*
X59790Y-32861D01*
X59790Y-33045D01*
X58925Y-33045D01*
X58925Y-32585D01*
X58925Y-32416D01*
X58861Y-32260D01*
X58741Y-32140D01*
X58585Y-32075D01*
X58416Y-32075D01*
X58260Y-32139D01*
X58140Y-32259D01*
X58075Y-32415D01*
X58075Y-32584D01*
X58139Y-32740D01*
X58259Y-32860D01*
X58415Y-32925D01*
X58584Y-32925D01*
X58740Y-32861D01*
X58860Y-32741D01*
X58925Y-32585D01*
X58925Y-33045D01*
X57925Y-33045D01*
X57925Y-32585D01*
X57925Y-32416D01*
X57861Y-32260D01*
X57741Y-32140D01*
X57585Y-32075D01*
X57416Y-32075D01*
X57260Y-32139D01*
X57140Y-32259D01*
X57075Y-32415D01*
X57075Y-32584D01*
X57139Y-32740D01*
X57259Y-32860D01*
X57415Y-32925D01*
X57584Y-32925D01*
X57740Y-32861D01*
X57860Y-32741D01*
X57925Y-32585D01*
X57925Y-33045D01*
X57019Y-33045D01*
X57019Y-32574D01*
X57008Y-32370D01*
X56952Y-32233D01*
X56861Y-32210D01*
X56790Y-32281D01*
X56790Y-32139D01*
X56767Y-32048D01*
X56574Y-31981D01*
X56370Y-31992D01*
X56233Y-32048D01*
X56210Y-32139D01*
X56500Y-32429D01*
X56790Y-32139D01*
X56790Y-32281D01*
X56571Y-32500D01*
X56861Y-32790D01*
X56952Y-32767D01*
X57019Y-32574D01*
X57019Y-33045D01*
X56790Y-33045D01*
X56790Y-32861D01*
X56500Y-32571D01*
X56429Y-32642D01*
X56429Y-32500D01*
X56139Y-32210D01*
X56048Y-32233D01*
X55981Y-32426D01*
X55992Y-32630D01*
X56048Y-32767D01*
X56139Y-32790D01*
X56429Y-32500D01*
X56429Y-32642D01*
X56210Y-32861D01*
X56233Y-32952D01*
X56426Y-33019D01*
X56630Y-33008D01*
X56767Y-32952D01*
X56790Y-32861D01*
X56790Y-33045D01*
X55925Y-33045D01*
X55925Y-32585D01*
X55925Y-32416D01*
X55861Y-32260D01*
X55741Y-32140D01*
X55585Y-32075D01*
X55416Y-32075D01*
X55260Y-32139D01*
X55140Y-32259D01*
X55075Y-32415D01*
X55075Y-32584D01*
X55139Y-32740D01*
X55259Y-32860D01*
X55415Y-32925D01*
X55584Y-32925D01*
X55740Y-32861D01*
X55860Y-32741D01*
X55925Y-32585D01*
X55925Y-33045D01*
X54925Y-33045D01*
X54925Y-32585D01*
X54925Y-32416D01*
X54861Y-32260D01*
X54741Y-32140D01*
X54585Y-32075D01*
X54416Y-32075D01*
X54260Y-32139D01*
X54140Y-32259D01*
X54075Y-32415D01*
X54075Y-32584D01*
X54139Y-32740D01*
X54259Y-32860D01*
X54415Y-32925D01*
X54584Y-32925D01*
X54740Y-32861D01*
X54860Y-32741D01*
X54925Y-32585D01*
X54925Y-33045D01*
X54019Y-33045D01*
X54019Y-32574D01*
X54008Y-32370D01*
X53952Y-32233D01*
X53861Y-32210D01*
X53790Y-32281D01*
X53790Y-32139D01*
X53767Y-32048D01*
X53574Y-31981D01*
X53370Y-31992D01*
X53233Y-32048D01*
X53210Y-32139D01*
X53500Y-32429D01*
X53790Y-32139D01*
X53790Y-32281D01*
X53571Y-32500D01*
X53861Y-32790D01*
X53952Y-32767D01*
X54019Y-32574D01*
X54019Y-33045D01*
X53790Y-33045D01*
X53790Y-32861D01*
X53500Y-32571D01*
X53429Y-32642D01*
X53429Y-32500D01*
X53139Y-32210D01*
X53048Y-32233D01*
X53003Y-32359D01*
X52952Y-32233D01*
X52861Y-32210D01*
X52790Y-32281D01*
X52790Y-32139D01*
X52767Y-32048D01*
X52574Y-31981D01*
X52435Y-31988D01*
X52435Y-28662D01*
X52435Y-28438D01*
X52434Y-27349D01*
X52434Y-27250D01*
X52396Y-27159D01*
X52326Y-27089D01*
X52234Y-27051D01*
X50852Y-27050D01*
X50790Y-27112D01*
X50790Y-28500D01*
X52373Y-28500D01*
X52435Y-28438D01*
X52435Y-28662D01*
X52373Y-28600D01*
X50790Y-28600D01*
X50790Y-29988D01*
X50852Y-30050D01*
X52234Y-30049D01*
X52326Y-30011D01*
X52396Y-29941D01*
X52434Y-29850D01*
X52434Y-29751D01*
X52435Y-28662D01*
X52435Y-31988D01*
X52370Y-31992D01*
X52233Y-32048D01*
X52210Y-32139D01*
X52500Y-32429D01*
X52790Y-32139D01*
X52790Y-32281D01*
X52571Y-32500D01*
X52861Y-32790D01*
X52952Y-32767D01*
X52996Y-32640D01*
X53048Y-32767D01*
X53139Y-32790D01*
X53429Y-32500D01*
X53429Y-32642D01*
X53210Y-32861D01*
X53233Y-32952D01*
X53426Y-33019D01*
X53630Y-33008D01*
X53767Y-32952D01*
X53790Y-32861D01*
X53790Y-33045D01*
X52790Y-33045D01*
X52790Y-32861D01*
X52500Y-32571D01*
X52429Y-32642D01*
X52429Y-32500D01*
X52139Y-32210D01*
X52048Y-32233D01*
X52003Y-32359D01*
X51952Y-32233D01*
X51861Y-32210D01*
X51790Y-32281D01*
X51790Y-32139D01*
X51767Y-32048D01*
X51574Y-31981D01*
X51370Y-31992D01*
X51233Y-32048D01*
X51210Y-32139D01*
X51500Y-32429D01*
X51790Y-32139D01*
X51790Y-32281D01*
X51571Y-32500D01*
X51861Y-32790D01*
X51952Y-32767D01*
X51996Y-32640D01*
X52048Y-32767D01*
X52139Y-32790D01*
X52429Y-32500D01*
X52429Y-32642D01*
X52210Y-32861D01*
X52233Y-32952D01*
X52426Y-33019D01*
X52630Y-33008D01*
X52767Y-32952D01*
X52790Y-32861D01*
X52790Y-33045D01*
X51790Y-33045D01*
X51790Y-32861D01*
X51500Y-32571D01*
X51429Y-32642D01*
X51429Y-32500D01*
X51139Y-32210D01*
X51048Y-32233D01*
X50981Y-32426D01*
X50992Y-32630D01*
X51048Y-32767D01*
X51139Y-32790D01*
X51429Y-32500D01*
X51429Y-32642D01*
X51210Y-32861D01*
X51233Y-32952D01*
X51426Y-33019D01*
X51630Y-33008D01*
X51767Y-32952D01*
X51790Y-32861D01*
X51790Y-33045D01*
X50740Y-33045D01*
X50740Y-32398D01*
X50740Y-32104D01*
X50628Y-31832D01*
X50420Y-31624D01*
X50148Y-31510D01*
X49854Y-31510D01*
X49582Y-31622D01*
X49374Y-31830D01*
X49260Y-32102D01*
X49260Y-32396D01*
X49372Y-32668D01*
X49580Y-32876D01*
X49852Y-32990D01*
X50146Y-32990D01*
X50418Y-32878D01*
X50626Y-32670D01*
X50740Y-32398D01*
X50740Y-33045D01*
X49205Y-33045D01*
X49205Y-31750D01*
X49205Y-30032D01*
X49246Y-30049D01*
X50628Y-30050D01*
X50690Y-29988D01*
X50690Y-28650D01*
X50690Y-28600D01*
X50690Y-28500D01*
X50690Y-28450D01*
X50690Y-27112D01*
X50628Y-27050D01*
X49246Y-27051D01*
X49205Y-27067D01*
X49205Y-23521D01*
X49211Y-23527D01*
X49266Y-23549D01*
X49325Y-23549D01*
X52215Y-23549D01*
X52270Y-23526D01*
X52312Y-23484D01*
X52334Y-23429D01*
X52334Y-23370D01*
X52334Y-20870D01*
X52311Y-20815D01*
X52269Y-20773D01*
X52214Y-20751D01*
X52155Y-20751D01*
X50970Y-20751D01*
X50970Y-20480D01*
X51145Y-20305D01*
X55720Y-20305D01*
X55765Y-20350D01*
X55885Y-20400D01*
X56014Y-20400D01*
X56134Y-20351D01*
X56225Y-20260D01*
X56275Y-20140D01*
X56275Y-20011D01*
X56226Y-19891D01*
X56135Y-19800D01*
X56015Y-19750D01*
X55886Y-19750D01*
X55766Y-19799D01*
X55720Y-19845D01*
X52019Y-19845D01*
X52019Y-18324D01*
X52008Y-18120D01*
X51952Y-17983D01*
X51861Y-17960D01*
X51790Y-18031D01*
X51790Y-17889D01*
X51767Y-17798D01*
X51574Y-17731D01*
X51370Y-17742D01*
X51233Y-17798D01*
X51210Y-17889D01*
X51500Y-18179D01*
X51790Y-17889D01*
X51790Y-18031D01*
X51571Y-18250D01*
X51861Y-18540D01*
X51952Y-18517D01*
X52019Y-18324D01*
X52019Y-19845D01*
X51790Y-19845D01*
X51790Y-18611D01*
X51500Y-18321D01*
X51429Y-18392D01*
X51429Y-18250D01*
X51139Y-17960D01*
X51048Y-17983D01*
X50981Y-18176D01*
X50992Y-18380D01*
X51048Y-18517D01*
X51139Y-18540D01*
X51429Y-18250D01*
X51429Y-18392D01*
X51210Y-18611D01*
X51233Y-18702D01*
X51426Y-18769D01*
X51630Y-18758D01*
X51767Y-18702D01*
X51790Y-18611D01*
X51790Y-19845D01*
X51050Y-19845D01*
X50962Y-19863D01*
X50887Y-19912D01*
X50885Y-19914D01*
X50740Y-20059D01*
X50740Y-18648D01*
X50740Y-18354D01*
X50628Y-18082D01*
X50420Y-17874D01*
X50148Y-17760D01*
X49854Y-17760D01*
X49582Y-17872D01*
X49374Y-18080D01*
X49260Y-18352D01*
X49260Y-18646D01*
X49372Y-18918D01*
X49580Y-19126D01*
X49852Y-19240D01*
X50146Y-19240D01*
X50418Y-19128D01*
X50626Y-18920D01*
X50740Y-18648D01*
X50740Y-20059D01*
X50577Y-20222D01*
X50528Y-20297D01*
X50509Y-20385D01*
X50510Y-20389D01*
X50510Y-20751D01*
X49265Y-20751D01*
X49210Y-20774D01*
X49205Y-20779D01*
X49205Y-17705D01*
X76450Y-17705D01*
X76450Y-20757D01*
X76434Y-20751D01*
X76375Y-20751D01*
X76240Y-20751D01*
X76240Y-18648D01*
X76240Y-18354D01*
X76128Y-18082D01*
X75920Y-17874D01*
X75648Y-17760D01*
X75354Y-17760D01*
X75082Y-17872D01*
X74874Y-18080D01*
X74760Y-18352D01*
X74760Y-18646D01*
X74872Y-18918D01*
X75080Y-19126D01*
X75352Y-19240D01*
X75646Y-19240D01*
X75918Y-19128D01*
X76126Y-18920D01*
X76240Y-18648D01*
X76240Y-20751D01*
X74925Y-20751D01*
X74925Y-19265D01*
X74925Y-19136D01*
X74876Y-19016D01*
X74785Y-18925D01*
X74665Y-18875D01*
X74536Y-18875D01*
X74416Y-18924D01*
X74340Y-19000D01*
X67560Y-19000D01*
X67485Y-18925D01*
X67365Y-18875D01*
X67236Y-18875D01*
X67116Y-18924D01*
X67025Y-19015D01*
X66975Y-19135D01*
X66975Y-19264D01*
X67024Y-19384D01*
X67115Y-19475D01*
X67235Y-19525D01*
X67364Y-19525D01*
X67484Y-19476D01*
X67560Y-19400D01*
X70460Y-19400D01*
X70425Y-19485D01*
X70425Y-19614D01*
X70474Y-19734D01*
X70565Y-19825D01*
X70685Y-19875D01*
X70814Y-19875D01*
X70934Y-19826D01*
X71010Y-19750D01*
X71450Y-19750D01*
X73790Y-19750D01*
X73865Y-19825D01*
X73985Y-19875D01*
X74114Y-19875D01*
X74234Y-19826D01*
X74325Y-19735D01*
X74375Y-19615D01*
X74375Y-19486D01*
X74340Y-19400D01*
X74415Y-19475D01*
X74535Y-19525D01*
X74664Y-19525D01*
X74784Y-19476D01*
X74875Y-19385D01*
X74925Y-19265D01*
X74925Y-20751D01*
X73485Y-20751D01*
X73430Y-20774D01*
X73388Y-20816D01*
X73366Y-20871D01*
X73366Y-20930D01*
X73366Y-23430D01*
X73389Y-23485D01*
X73431Y-23527D01*
X73486Y-23549D01*
X73545Y-23549D01*
X74310Y-23549D01*
X74310Y-27151D01*
X74128Y-27151D01*
X74128Y-26009D01*
X74128Y-25793D01*
X74046Y-25594D01*
X73894Y-25441D01*
X73695Y-25358D01*
X73479Y-25358D01*
X73280Y-25440D01*
X73127Y-25592D01*
X73044Y-25791D01*
X73044Y-26007D01*
X73126Y-26206D01*
X73278Y-26359D01*
X73477Y-26442D01*
X73693Y-26442D01*
X73892Y-26360D01*
X74045Y-26208D01*
X74128Y-26009D01*
X74128Y-27151D01*
X73485Y-27151D01*
X73430Y-27174D01*
X73388Y-27216D01*
X73366Y-27271D01*
X73366Y-27330D01*
X73366Y-29830D01*
X73389Y-29885D01*
X73431Y-29927D01*
X73486Y-29949D01*
X73545Y-29949D01*
X76435Y-29949D01*
X76450Y-29942D01*
X76450Y-33045D01*
M02*
