G04 (created by PCBNEW-RS274X (2012-jan-04)-stable) date Sun 27 Jan 2013 19:14:15 CET*
G01*
G70*
G90*
%MOIN*%
G04 Gerber Fmt 3.4, Leading zero omitted, Abs format*
%FSLAX34Y34*%
G04 APERTURE LIST*
%ADD10C,0.006000*%
%ADD11R,0.035400X0.070900*%
%ADD12C,0.027600*%
%ADD13R,0.039400X0.027600*%
%ADD14R,0.100000X0.050000*%
%ADD15R,0.035000X0.055000*%
%ADD16R,0.055000X0.035000*%
%ADD17R,0.040000X0.090000*%
%ADD18R,0.090000X0.040000*%
%ADD19R,0.040000X0.100000*%
%ADD20R,0.017700X0.068900*%
%ADD21R,0.074800X0.043300*%
%ADD22R,0.055000X0.055000*%
%ADD23C,0.055000*%
%ADD24R,0.055100X0.023600*%
%ADD25R,0.078700X0.047200*%
%ADD26C,0.118100*%
%ADD27C,0.078700*%
%ADD28C,0.035000*%
%ADD29C,0.016000*%
%ADD30C,0.010000*%
%ADD31C,0.038000*%
%ADD32C,0.012000*%
G04 APERTURE END LIST*
G54D10*
G54D11*
X69016Y-32600D03*
X70984Y-32600D03*
G54D12*
X70000Y-32954D03*
X70000Y-32246D03*
G54D11*
X66116Y-32600D03*
X68084Y-32600D03*
G54D12*
X67100Y-32954D03*
X67100Y-32246D03*
G54D13*
X54950Y-22275D03*
X54950Y-21900D03*
X54950Y-21525D03*
X55950Y-21525D03*
X55950Y-21900D03*
X55950Y-22275D03*
G54D14*
X56950Y-21300D03*
X56950Y-22500D03*
G54D15*
X53175Y-21650D03*
X53925Y-21650D03*
X54925Y-20850D03*
X54175Y-20850D03*
G54D16*
X63300Y-26475D03*
X63300Y-25725D03*
X58175Y-28025D03*
X58175Y-28775D03*
G54D15*
X68925Y-19800D03*
X69675Y-19800D03*
X68925Y-20600D03*
X69675Y-20600D03*
X67275Y-19800D03*
X66525Y-19800D03*
X66525Y-20600D03*
X67275Y-20600D03*
G54D16*
X53550Y-22425D03*
X53550Y-23175D03*
G54D15*
X70050Y-30350D03*
X70800Y-30350D03*
X65625Y-30200D03*
X66375Y-30200D03*
X65625Y-31100D03*
X66375Y-31100D03*
X55075Y-23000D03*
X55825Y-23000D03*
X72050Y-20600D03*
X72800Y-20600D03*
G54D17*
X65550Y-28700D03*
X66050Y-28700D03*
X66550Y-28700D03*
X67050Y-28700D03*
X67550Y-28700D03*
X68050Y-28700D03*
X68550Y-28700D03*
X69050Y-28700D03*
X69550Y-28700D03*
X70050Y-28700D03*
X70550Y-28700D03*
X71050Y-28700D03*
X71550Y-28700D03*
X72050Y-28700D03*
X72550Y-28700D03*
X73050Y-28700D03*
X73550Y-28700D03*
X74050Y-28700D03*
X74550Y-28700D03*
X75050Y-28700D03*
G54D18*
X75400Y-26850D03*
X75400Y-26350D03*
X75400Y-25850D03*
X75400Y-25350D03*
X75400Y-24850D03*
X75400Y-24350D03*
X75400Y-23850D03*
G54D17*
X75050Y-22200D03*
X74550Y-22200D03*
X74050Y-22200D03*
X73550Y-22200D03*
X73050Y-22200D03*
X72550Y-22200D03*
X72050Y-22200D03*
X71550Y-22200D03*
X71050Y-22200D03*
X70550Y-22200D03*
X70050Y-22200D03*
X69550Y-22200D03*
X69050Y-22200D03*
X68550Y-22200D03*
X68050Y-22200D03*
X67550Y-22200D03*
X67050Y-22200D03*
X66550Y-22200D03*
X66050Y-22200D03*
X65550Y-22200D03*
G54D18*
X65200Y-27350D03*
X65200Y-25850D03*
G54D19*
X77200Y-25350D03*
X79800Y-25350D03*
G54D15*
X68050Y-30350D03*
X68800Y-30350D03*
G54D20*
X58865Y-26318D03*
X59121Y-26318D03*
X59377Y-26318D03*
X59633Y-26318D03*
X59889Y-26318D03*
X60145Y-26318D03*
X60400Y-26318D03*
X60656Y-26318D03*
X60912Y-26318D03*
X61168Y-26318D03*
X61424Y-26318D03*
X61680Y-26318D03*
X61936Y-26318D03*
X62192Y-26318D03*
X62192Y-23483D03*
X61936Y-23483D03*
X61680Y-23483D03*
X61424Y-23483D03*
X61168Y-23483D03*
X60912Y-23483D03*
X60656Y-23483D03*
X60400Y-23483D03*
X60145Y-23483D03*
X59889Y-23483D03*
X59633Y-23483D03*
X59377Y-23483D03*
X59121Y-23483D03*
X58865Y-23483D03*
G54D16*
X59100Y-28775D03*
X59100Y-28025D03*
X62900Y-28025D03*
X62900Y-28775D03*
G54D21*
X60300Y-28900D03*
X61757Y-28900D03*
X61757Y-27994D03*
X60300Y-27994D03*
G54D22*
X64500Y-18250D03*
G54D23*
X63500Y-18250D03*
X62500Y-18250D03*
X61500Y-18250D03*
X60500Y-18250D03*
X59500Y-18250D03*
X58500Y-18250D03*
X57500Y-18250D03*
X56500Y-18250D03*
X55500Y-18250D03*
X54500Y-18250D03*
X53500Y-18250D03*
X52500Y-18250D03*
X51500Y-18250D03*
G54D11*
X71916Y-32600D03*
X73884Y-32600D03*
G54D12*
X72900Y-32954D03*
X72900Y-32246D03*
G54D15*
X72625Y-31050D03*
X73375Y-31050D03*
X62700Y-30825D03*
X61950Y-30825D03*
X61250Y-30825D03*
X60500Y-30825D03*
G54D24*
X51002Y-24538D03*
X51002Y-24932D03*
X51002Y-25325D03*
X51002Y-25719D03*
X51002Y-26113D03*
G54D25*
X49545Y-24026D03*
X49545Y-26625D03*
G54D22*
X64500Y-32500D03*
G54D23*
X63500Y-32500D03*
X62500Y-32500D03*
X61500Y-32500D03*
X60500Y-32500D03*
X59500Y-32500D03*
X58500Y-32500D03*
X57500Y-32500D03*
X56500Y-32500D03*
X55500Y-32500D03*
X54500Y-32500D03*
X53500Y-32500D03*
X52500Y-32500D03*
X51500Y-32500D03*
G54D26*
X75500Y-18500D03*
X75500Y-32250D03*
X50000Y-18500D03*
X50000Y-32250D03*
G54D27*
X73586Y-25900D03*
X52114Y-24800D03*
G54D28*
X69550Y-30500D03*
X65050Y-30850D03*
X63800Y-24800D03*
X55100Y-24800D03*
X72000Y-24800D03*
X65100Y-24800D03*
X56300Y-24800D03*
X64500Y-24800D03*
X72550Y-30500D03*
X60900Y-24800D03*
X70000Y-24800D03*
X56500Y-21900D03*
X66500Y-19200D03*
X62700Y-26000D03*
X50300Y-25200D03*
X65575Y-23025D03*
X72825Y-19975D03*
X71350Y-30350D03*
X65025Y-28700D03*
X72050Y-29500D03*
X75050Y-30225D03*
X74175Y-23850D03*
X75025Y-20500D03*
X74175Y-26850D03*
X69550Y-23000D03*
X68800Y-29775D03*
X72425Y-32600D03*
X69475Y-32600D03*
X66600Y-32600D03*
X70200Y-19825D03*
X61300Y-22750D03*
X60650Y-25450D03*
X55825Y-23600D03*
X54200Y-23150D03*
X58175Y-29300D03*
X53675Y-20800D03*
X61775Y-29425D03*
X58500Y-26350D03*
X51600Y-26450D03*
X54050Y-26350D03*
X66900Y-30450D03*
X54050Y-30450D03*
X67550Y-25650D03*
X62150Y-25650D03*
X74600Y-19200D03*
X67300Y-19200D03*
X61675Y-24150D03*
X66050Y-24150D03*
X55950Y-20075D03*
X60150Y-27425D03*
X57525Y-27775D03*
X67200Y-25300D03*
X61700Y-25600D03*
X67150Y-21250D03*
X68350Y-21250D03*
X61700Y-20600D03*
X66000Y-20600D03*
X70750Y-19550D03*
X74050Y-19550D03*
X74425Y-31275D03*
X56575Y-25500D03*
X59250Y-25325D03*
X63500Y-31375D03*
X57075Y-31375D03*
X59950Y-30825D03*
X57025Y-25675D03*
X57100Y-30825D03*
X59625Y-25650D03*
X54500Y-26925D03*
X59275Y-26975D03*
X57525Y-27275D03*
X59700Y-27200D03*
X60700Y-19300D03*
X60000Y-19000D03*
X59650Y-19350D03*
X59250Y-19600D03*
X70550Y-32600D03*
X55150Y-31750D03*
X69050Y-21450D03*
X59250Y-21450D03*
X58400Y-21450D03*
X58400Y-23850D03*
X56300Y-23850D03*
X59375Y-24200D03*
X53200Y-24450D03*
X53200Y-26100D03*
X50350Y-26100D03*
X50075Y-25725D03*
X52850Y-25725D03*
X52775Y-24250D03*
X58825Y-24100D03*
G54D29*
X55075Y-23650D02*
X52900Y-23650D01*
X52800Y-21650D02*
X53175Y-21650D01*
X52600Y-21850D02*
X52800Y-21650D01*
X52600Y-23350D02*
X52600Y-21850D01*
X52900Y-23650D02*
X52600Y-23350D01*
G54D30*
X62700Y-30825D02*
X64325Y-30825D01*
X64500Y-31000D02*
X64500Y-32500D01*
X64325Y-30825D02*
X64500Y-31000D01*
X70050Y-30350D02*
X69700Y-30350D01*
X69700Y-30350D02*
X69550Y-30500D01*
X65625Y-31100D02*
X65300Y-31100D01*
X65300Y-31100D02*
X65050Y-30850D01*
G54D29*
X70050Y-24850D02*
X70000Y-24800D01*
G54D30*
X63300Y-26475D02*
X63725Y-26475D01*
X65200Y-24900D02*
X65100Y-24800D01*
X65200Y-25850D02*
X65200Y-24900D01*
X64500Y-32850D02*
X64350Y-33000D01*
X58500Y-33000D02*
X55700Y-33000D01*
X61500Y-33000D02*
X58500Y-33000D01*
X64350Y-33000D02*
X61500Y-33000D01*
X55700Y-33000D02*
X55500Y-32800D01*
X55500Y-32800D02*
X55500Y-32500D01*
X55500Y-32500D02*
X55500Y-31950D01*
X56200Y-31250D02*
X55500Y-31950D01*
X56200Y-24900D02*
X56200Y-31250D01*
X56200Y-24900D02*
X56300Y-24800D01*
X61500Y-18250D02*
X61500Y-17700D01*
X58500Y-18250D02*
X58500Y-17700D01*
G54D29*
X55075Y-23000D02*
X55075Y-23650D01*
X55075Y-23650D02*
X55075Y-24775D01*
X55075Y-24775D02*
X55100Y-24800D01*
G54D30*
X64500Y-32500D02*
X64500Y-32850D01*
G54D29*
X54600Y-21900D02*
X54450Y-22050D01*
G54D30*
X70050Y-28700D02*
X70050Y-30350D01*
G54D29*
X54600Y-23000D02*
X55075Y-23000D01*
X54450Y-22850D02*
X54600Y-23000D01*
X54950Y-21900D02*
X54600Y-21900D01*
X72000Y-24800D02*
X72050Y-24750D01*
X72050Y-24750D02*
X72050Y-22200D01*
X54450Y-22050D02*
X54450Y-22700D01*
X54450Y-22700D02*
X54450Y-22850D01*
G54D30*
X64500Y-18250D02*
X64500Y-17900D01*
X64500Y-17900D02*
X64300Y-17700D01*
X64300Y-17700D02*
X61500Y-17700D01*
X55500Y-17900D02*
X55500Y-18250D01*
X55700Y-17700D02*
X55500Y-17900D01*
X61500Y-17700D02*
X58500Y-17700D01*
X58500Y-17700D02*
X55700Y-17700D01*
X61500Y-32500D02*
X61500Y-33000D01*
X58500Y-33000D02*
X58500Y-32500D01*
X64500Y-24800D02*
X64500Y-18250D01*
X72050Y-20600D02*
X72050Y-22200D01*
X72550Y-30500D02*
X72625Y-30575D01*
X72625Y-30575D02*
X72625Y-31050D01*
X63800Y-26400D02*
X63800Y-24800D01*
X63725Y-26475D02*
X63800Y-26400D01*
X62192Y-26318D02*
X62418Y-26318D01*
X62575Y-26475D02*
X63300Y-26475D01*
X62418Y-26318D02*
X62575Y-26475D01*
X60912Y-23483D02*
X60912Y-24788D01*
X60912Y-24788D02*
X60900Y-24800D01*
G54D29*
X70050Y-28700D02*
X70050Y-24850D01*
G54D31*
X75400Y-25350D02*
X77200Y-25350D01*
G54D30*
X55950Y-21900D02*
X56500Y-21900D01*
X66525Y-19800D02*
X66525Y-19225D01*
X66525Y-19225D02*
X66500Y-19200D01*
X63300Y-25725D02*
X62975Y-25725D01*
X62975Y-25725D02*
X62700Y-26000D01*
X51002Y-25325D02*
X50425Y-25325D01*
X72800Y-20600D02*
X72800Y-20000D01*
X61168Y-23483D02*
X61168Y-22882D01*
X65550Y-23000D02*
X65575Y-23025D01*
X65550Y-22200D02*
X65550Y-23000D01*
X75050Y-20525D02*
X75025Y-20500D01*
X75050Y-22200D02*
X75050Y-20525D01*
X72800Y-20000D02*
X72825Y-19975D01*
X54175Y-23175D02*
X54200Y-23150D01*
X75050Y-28700D02*
X75050Y-30225D01*
X75400Y-23850D02*
X74175Y-23850D01*
X65550Y-28700D02*
X65025Y-28700D01*
X72050Y-28700D02*
X72050Y-29500D01*
X62450Y-28775D02*
X62325Y-28900D01*
X75400Y-26350D02*
X75400Y-26850D01*
X75400Y-25850D02*
X75400Y-26350D01*
X75400Y-24350D02*
X75400Y-24850D01*
X75400Y-23850D02*
X75400Y-24350D01*
X69550Y-22200D02*
X69550Y-23000D01*
X69675Y-19800D02*
X70175Y-19800D01*
X68800Y-30350D02*
X68800Y-29775D01*
X71916Y-32600D02*
X72425Y-32600D01*
X69016Y-32600D02*
X69475Y-32600D01*
X66116Y-32600D02*
X66600Y-32600D01*
X50425Y-25325D02*
X50300Y-25200D01*
X70175Y-19800D02*
X70200Y-19825D01*
X61168Y-22882D02*
X61300Y-22750D01*
X60656Y-26318D02*
X60656Y-25456D01*
X60656Y-25456D02*
X60650Y-25450D01*
X55825Y-23000D02*
X55825Y-23600D01*
X53550Y-23175D02*
X54175Y-23175D01*
X54175Y-20850D02*
X53725Y-20850D01*
X53725Y-20850D02*
X53675Y-20800D01*
X61757Y-28900D02*
X61757Y-29407D01*
X61757Y-29407D02*
X61775Y-29425D01*
X62900Y-28775D02*
X62450Y-28775D01*
X62325Y-28900D02*
X61757Y-28900D01*
X70800Y-30350D02*
X71350Y-30350D01*
X58175Y-28775D02*
X58175Y-29300D01*
X75400Y-26850D02*
X74175Y-26850D01*
X58175Y-28475D02*
X58175Y-28775D01*
X58250Y-28400D02*
X58175Y-28475D01*
X59131Y-27994D02*
X59100Y-28025D01*
X59100Y-28025D02*
X59100Y-28250D01*
X58950Y-28400D02*
X58250Y-28400D01*
X59100Y-28250D02*
X58950Y-28400D01*
X60300Y-27994D02*
X59131Y-27994D01*
X51500Y-24650D02*
X51388Y-24538D01*
X51500Y-26350D02*
X51500Y-24650D01*
X58532Y-26318D02*
X58500Y-26350D01*
X51600Y-26450D02*
X51500Y-26350D01*
X51388Y-24538D02*
X51002Y-24538D01*
X58865Y-26318D02*
X58532Y-26318D01*
X54050Y-28600D02*
X54050Y-30450D01*
X66650Y-30200D02*
X66375Y-30200D01*
X66900Y-30450D02*
X66650Y-30200D01*
X54050Y-26350D02*
X54050Y-28600D01*
X61936Y-26318D02*
X61936Y-25864D01*
X61936Y-25864D02*
X62150Y-25650D01*
X67550Y-25650D02*
X67550Y-22200D01*
X67050Y-28700D02*
X67050Y-30075D01*
X67325Y-30350D02*
X68050Y-30350D01*
X67050Y-30075D02*
X67325Y-30350D01*
G54D32*
X53550Y-22425D02*
X53550Y-21800D01*
X53550Y-21800D02*
X53700Y-21650D01*
X53700Y-21650D02*
X53925Y-21650D01*
X54375Y-21525D02*
X54250Y-21650D01*
X54250Y-21650D02*
X53925Y-21650D01*
X54950Y-21525D02*
X54375Y-21525D01*
G54D30*
X67275Y-19800D02*
X67275Y-20600D01*
X74550Y-19250D02*
X74600Y-19200D01*
X67300Y-19200D02*
X67275Y-19225D01*
X74550Y-22200D02*
X74550Y-19250D01*
X67275Y-19225D02*
X67275Y-19800D01*
X61424Y-23899D02*
X61675Y-24150D01*
X61424Y-23483D02*
X61424Y-23899D01*
X66050Y-24150D02*
X66050Y-22200D01*
X61250Y-30825D02*
X61950Y-30825D01*
G54D32*
X56950Y-21000D02*
X56950Y-21300D01*
G54D29*
X55950Y-20075D02*
X55950Y-20850D01*
G54D32*
X55950Y-20850D02*
X56800Y-20850D01*
X55950Y-21525D02*
X55950Y-20850D01*
X55450Y-22100D02*
X55450Y-21700D01*
X56800Y-20850D02*
X56950Y-21000D01*
X55275Y-22275D02*
X55450Y-22100D01*
X54925Y-20850D02*
X55950Y-20850D01*
X54950Y-22275D02*
X55275Y-22275D01*
X55450Y-21700D02*
X55625Y-21525D01*
X55625Y-21525D02*
X55950Y-21525D01*
G54D30*
X61168Y-27868D02*
X61294Y-27994D01*
X61168Y-26318D02*
X61168Y-27868D01*
X62869Y-27994D02*
X62900Y-28025D01*
X61757Y-27994D02*
X62869Y-27994D01*
X61294Y-27994D02*
X61757Y-27994D01*
X66375Y-31100D02*
X67800Y-31100D01*
X68084Y-31384D02*
X68084Y-32600D01*
X67800Y-31100D02*
X68084Y-31384D01*
X65625Y-30200D02*
X65800Y-30200D01*
X66100Y-31100D02*
X66375Y-31100D01*
X66000Y-31000D02*
X66100Y-31100D01*
X66000Y-30400D02*
X66000Y-31000D01*
X65800Y-30200D02*
X66000Y-30400D01*
G54D32*
X56725Y-22275D02*
X56950Y-22500D01*
X55950Y-22275D02*
X56725Y-22275D01*
G54D30*
X60145Y-26318D02*
X60145Y-27420D01*
X57525Y-27775D02*
X57775Y-28025D01*
X57775Y-28025D02*
X58175Y-28025D01*
X60145Y-27420D02*
X60150Y-27425D01*
X67300Y-25200D02*
X67300Y-23400D01*
X68350Y-20850D02*
X68600Y-20600D01*
X68350Y-21250D02*
X68350Y-20850D01*
X67050Y-22750D02*
X67050Y-22200D01*
X67300Y-23400D02*
X67300Y-23000D01*
X67300Y-23000D02*
X67050Y-22750D01*
X61680Y-25620D02*
X61700Y-25600D01*
X68600Y-20600D02*
X68925Y-20600D01*
X61680Y-26318D02*
X61680Y-25620D01*
X67050Y-21350D02*
X67150Y-21250D01*
X67050Y-22200D02*
X67050Y-21350D01*
X67200Y-25300D02*
X67300Y-25200D01*
X66000Y-20600D02*
X66525Y-20600D01*
X61680Y-20620D02*
X61700Y-20600D01*
X61680Y-23483D02*
X61680Y-20620D01*
X66550Y-20625D02*
X66525Y-20600D01*
X66550Y-22200D02*
X66550Y-20625D01*
X59750Y-28900D02*
X60300Y-28900D01*
X59625Y-28775D02*
X59750Y-28900D01*
X59100Y-28775D02*
X59625Y-28775D01*
X60912Y-28788D02*
X60800Y-28900D01*
X60800Y-28900D02*
X60300Y-28900D01*
X60912Y-26318D02*
X60912Y-28788D01*
X74050Y-22200D02*
X74050Y-19550D01*
X70550Y-20600D02*
X69675Y-20600D01*
X70750Y-20400D02*
X70550Y-20600D01*
X70750Y-19550D02*
X70750Y-20400D01*
X68925Y-19800D02*
X69200Y-19800D01*
X69400Y-20600D02*
X69675Y-20600D01*
X69300Y-20500D02*
X69400Y-20600D01*
X69300Y-19900D02*
X69300Y-20500D01*
X69200Y-19800D02*
X69300Y-19900D01*
X56750Y-31050D02*
X57075Y-31375D01*
X73884Y-32600D02*
X73884Y-31791D01*
X73884Y-31791D02*
X73984Y-31691D01*
X73984Y-31691D02*
X73984Y-31300D01*
X56775Y-25925D02*
X56775Y-27175D01*
X56675Y-27275D02*
X56675Y-28075D01*
X56575Y-25500D02*
X56575Y-25725D01*
X59121Y-26318D02*
X59121Y-25454D01*
X56575Y-25725D02*
X56775Y-25925D01*
X56750Y-30675D02*
X56750Y-31050D01*
X56775Y-27175D02*
X56675Y-27275D01*
X59121Y-25454D02*
X59250Y-25325D01*
X56675Y-28075D02*
X57025Y-28425D01*
X74400Y-31300D02*
X73984Y-31300D01*
X73375Y-31050D02*
X73750Y-31050D01*
X74425Y-31275D02*
X74400Y-31300D01*
X73984Y-31284D02*
X73984Y-31300D01*
X57025Y-30400D02*
X56750Y-30675D01*
X57025Y-28425D02*
X57025Y-30400D01*
X73750Y-31050D02*
X73984Y-31284D01*
X63500Y-31375D02*
X63500Y-32500D01*
X57275Y-28350D02*
X57275Y-30650D01*
X59377Y-26318D02*
X59377Y-25898D01*
X56925Y-27375D02*
X56925Y-28000D01*
X59377Y-25898D02*
X59625Y-25650D01*
X57275Y-30650D02*
X57100Y-30825D01*
X59950Y-30825D02*
X60500Y-30825D01*
X57025Y-27275D02*
X56925Y-27375D01*
X56925Y-28000D02*
X57275Y-28350D01*
X57025Y-25675D02*
X57025Y-27275D01*
X60500Y-30825D02*
X60500Y-32500D01*
X59633Y-26792D02*
X59450Y-26975D01*
X59633Y-26318D02*
X59633Y-26792D01*
X59450Y-26975D02*
X59275Y-26975D01*
X54500Y-26925D02*
X54500Y-32500D01*
X57525Y-27275D02*
X57150Y-27650D01*
X57500Y-28250D02*
X57500Y-32500D01*
X59889Y-26318D02*
X59889Y-27011D01*
X59889Y-27011D02*
X59700Y-27200D01*
X57150Y-27900D02*
X57500Y-28250D01*
X57150Y-27650D02*
X57150Y-27900D01*
X60656Y-23483D02*
X60656Y-19344D01*
X60656Y-19344D02*
X60700Y-19300D01*
X60400Y-19500D02*
X60300Y-19400D01*
X60300Y-19200D02*
X60500Y-19000D01*
X60400Y-23483D02*
X60400Y-19500D01*
X60300Y-19400D02*
X60300Y-19200D01*
X60500Y-19000D02*
X60500Y-18250D01*
X60145Y-19645D02*
X60000Y-19500D01*
X60000Y-19500D02*
X60000Y-19000D01*
X60145Y-23483D02*
X60145Y-19645D01*
X59889Y-23483D02*
X59889Y-19739D01*
X59889Y-19739D02*
X59650Y-19500D01*
X59650Y-19500D02*
X59650Y-19350D01*
X59633Y-19833D02*
X59400Y-19600D01*
X59400Y-19600D02*
X59250Y-19600D01*
X59633Y-23483D02*
X59633Y-19833D01*
X56300Y-24200D02*
X56300Y-23850D01*
X58400Y-22900D02*
X58400Y-21450D01*
X55950Y-30950D02*
X55950Y-24550D01*
X55950Y-24550D02*
X56300Y-24200D01*
X69050Y-21450D02*
X69050Y-22200D01*
X59377Y-23483D02*
X59377Y-21577D01*
X55150Y-31750D02*
X55950Y-30950D01*
X59377Y-21577D02*
X59250Y-21450D01*
X58400Y-23850D02*
X58400Y-22900D01*
X70984Y-32600D02*
X70550Y-32600D01*
X59121Y-23946D02*
X59375Y-24200D01*
X53200Y-24450D02*
X53200Y-26100D01*
X59121Y-23483D02*
X59121Y-23946D01*
X50350Y-26100D02*
X50363Y-26113D01*
X50363Y-26113D02*
X51002Y-26113D01*
X58865Y-23483D02*
X58865Y-24060D01*
X50081Y-25719D02*
X51002Y-25719D01*
X50075Y-25725D02*
X50081Y-25719D01*
X52950Y-25625D02*
X52850Y-25725D01*
X52950Y-24800D02*
X52950Y-25625D01*
X52775Y-24625D02*
X52950Y-24800D01*
X52775Y-24250D02*
X52775Y-24625D01*
X58865Y-24060D02*
X58825Y-24100D01*
M02*
