G04 (created by PCBNEW-RS274X (2012-jan-04)-stable) date Sun 27 Jan 2013 19:14:15 CET*
G01*
G70*
G90*
%MOIN*%
G04 Gerber Fmt 3.4, Leading zero omitted, Abs format*
%FSLAX34Y34*%
G04 APERTURE LIST*
%ADD10C,0.006000*%
%ADD11R,0.055400X0.090900*%
%ADD12C,0.047600*%
%ADD13R,0.059400X0.047600*%
%ADD14R,0.120000X0.070000*%
%ADD15R,0.055000X0.075000*%
%ADD16R,0.075000X0.055000*%
%ADD17R,0.060000X0.110000*%
%ADD18R,0.110000X0.060000*%
%ADD19R,0.060000X0.120000*%
%ADD20R,0.037700X0.088900*%
%ADD21R,0.094800X0.063300*%
%ADD22R,0.075000X0.075000*%
%ADD23C,0.075000*%
%ADD24R,0.075100X0.043600*%
%ADD25R,0.098700X0.067200*%
%ADD26C,0.138100*%
%ADD27C,0.098700*%
G04 APERTURE END LIST*
G54D10*
G54D11*
X69016Y-32600D03*
X70984Y-32600D03*
G54D12*
X70000Y-32954D03*
X70000Y-32246D03*
G54D11*
X66116Y-32600D03*
X68084Y-32600D03*
G54D12*
X67100Y-32954D03*
X67100Y-32246D03*
G54D13*
X54950Y-22275D03*
X54950Y-21900D03*
X54950Y-21525D03*
X55950Y-21525D03*
X55950Y-21900D03*
X55950Y-22275D03*
G54D14*
X56950Y-21300D03*
X56950Y-22500D03*
G54D15*
X53175Y-21650D03*
X53925Y-21650D03*
X54925Y-20850D03*
X54175Y-20850D03*
G54D16*
X63300Y-26475D03*
X63300Y-25725D03*
X58175Y-28025D03*
X58175Y-28775D03*
G54D15*
X68925Y-19800D03*
X69675Y-19800D03*
X68925Y-20600D03*
X69675Y-20600D03*
X67275Y-19800D03*
X66525Y-19800D03*
X66525Y-20600D03*
X67275Y-20600D03*
G54D16*
X53550Y-22425D03*
X53550Y-23175D03*
G54D15*
X70050Y-30350D03*
X70800Y-30350D03*
X65625Y-30200D03*
X66375Y-30200D03*
X65625Y-31100D03*
X66375Y-31100D03*
X55075Y-23000D03*
X55825Y-23000D03*
X72050Y-20600D03*
X72800Y-20600D03*
G54D17*
X65550Y-28700D03*
X66050Y-28700D03*
X66550Y-28700D03*
X67050Y-28700D03*
X67550Y-28700D03*
X68050Y-28700D03*
X68550Y-28700D03*
X69050Y-28700D03*
X69550Y-28700D03*
X70050Y-28700D03*
X70550Y-28700D03*
X71050Y-28700D03*
X71550Y-28700D03*
X72050Y-28700D03*
X72550Y-28700D03*
X73050Y-28700D03*
X73550Y-28700D03*
X74050Y-28700D03*
X74550Y-28700D03*
X75050Y-28700D03*
G54D18*
X75400Y-26850D03*
X75400Y-26350D03*
X75400Y-25850D03*
X75400Y-25350D03*
X75400Y-24850D03*
X75400Y-24350D03*
X75400Y-23850D03*
G54D17*
X75050Y-22200D03*
X74550Y-22200D03*
X74050Y-22200D03*
X73550Y-22200D03*
X73050Y-22200D03*
X72550Y-22200D03*
X72050Y-22200D03*
X71550Y-22200D03*
X71050Y-22200D03*
X70550Y-22200D03*
X70050Y-22200D03*
X69550Y-22200D03*
X69050Y-22200D03*
X68550Y-22200D03*
X68050Y-22200D03*
X67550Y-22200D03*
X67050Y-22200D03*
X66550Y-22200D03*
X66050Y-22200D03*
X65550Y-22200D03*
G54D18*
X65200Y-27350D03*
X65200Y-25850D03*
G54D19*
X77200Y-25350D03*
X79800Y-25350D03*
G54D15*
X68050Y-30350D03*
X68800Y-30350D03*
G54D20*
X58865Y-26318D03*
X59121Y-26318D03*
X59377Y-26318D03*
X59633Y-26318D03*
X59889Y-26318D03*
X60145Y-26318D03*
X60400Y-26318D03*
X60656Y-26318D03*
X60912Y-26318D03*
X61168Y-26318D03*
X61424Y-26318D03*
X61680Y-26318D03*
X61936Y-26318D03*
X62192Y-26318D03*
X62192Y-23483D03*
X61936Y-23483D03*
X61680Y-23483D03*
X61424Y-23483D03*
X61168Y-23483D03*
X60912Y-23483D03*
X60656Y-23483D03*
X60400Y-23483D03*
X60145Y-23483D03*
X59889Y-23483D03*
X59633Y-23483D03*
X59377Y-23483D03*
X59121Y-23483D03*
X58865Y-23483D03*
G54D16*
X59100Y-28775D03*
X59100Y-28025D03*
X62900Y-28025D03*
X62900Y-28775D03*
G54D21*
X60300Y-28900D03*
X61757Y-28900D03*
X61757Y-27994D03*
X60300Y-27994D03*
G54D22*
X64500Y-18250D03*
G54D23*
X63500Y-18250D03*
X62500Y-18250D03*
X61500Y-18250D03*
X60500Y-18250D03*
X59500Y-18250D03*
X58500Y-18250D03*
X57500Y-18250D03*
X56500Y-18250D03*
X55500Y-18250D03*
X54500Y-18250D03*
X53500Y-18250D03*
X52500Y-18250D03*
X51500Y-18250D03*
G54D11*
X71916Y-32600D03*
X73884Y-32600D03*
G54D12*
X72900Y-32954D03*
X72900Y-32246D03*
G54D15*
X72625Y-31050D03*
X73375Y-31050D03*
X62700Y-30825D03*
X61950Y-30825D03*
X61250Y-30825D03*
X60500Y-30825D03*
G54D24*
X51002Y-24538D03*
X51002Y-24932D03*
X51002Y-25325D03*
X51002Y-25719D03*
X51002Y-26113D03*
G54D25*
X49545Y-24026D03*
X49545Y-26625D03*
G54D22*
X64500Y-32500D03*
G54D23*
X63500Y-32500D03*
X62500Y-32500D03*
X61500Y-32500D03*
X60500Y-32500D03*
X59500Y-32500D03*
X58500Y-32500D03*
X57500Y-32500D03*
X56500Y-32500D03*
X55500Y-32500D03*
X54500Y-32500D03*
X53500Y-32500D03*
X52500Y-32500D03*
X51500Y-32500D03*
G54D26*
X75500Y-18500D03*
X75500Y-32250D03*
X50000Y-18500D03*
X50000Y-32250D03*
G54D27*
X73586Y-25900D03*
X52114Y-24800D03*
M02*
