G04 (created by PCBNEW-RS274X (2012-jan-04)-stable) date Sun 27 Jan 2013 19:14:15 CET*
G01*
G70*
G90*
%MOIN*%
G04 Gerber Fmt 3.4, Leading zero omitted, Abs format*
%FSLAX34Y34*%
G04 APERTURE LIST*
%ADD10C,0.006000*%
%ADD11C,0.015000*%
%ADD12C,0.012000*%
G04 APERTURE END LIST*
G54D10*
G54D11*
X74661Y-25400D02*
X51039Y-25400D01*
X51039Y-25400D02*
X51039Y-31700D01*
X51039Y-31700D02*
X74661Y-31700D01*
X74661Y-31700D02*
X74661Y-25400D01*
X51039Y-25300D02*
X74661Y-25300D01*
X74661Y-25300D02*
X74661Y-19000D01*
X74661Y-19000D02*
X51039Y-19000D01*
X51039Y-19000D02*
X51039Y-25300D01*
G54D12*
X60171Y-27692D02*
X60085Y-27720D01*
X60057Y-27749D01*
X60028Y-27806D01*
X60028Y-27892D01*
X60057Y-27949D01*
X60085Y-27977D01*
X60143Y-28006D01*
X60371Y-28006D01*
X60371Y-27406D01*
X60171Y-27406D01*
X60114Y-27434D01*
X60085Y-27463D01*
X60057Y-27520D01*
X60057Y-27577D01*
X60085Y-27634D01*
X60114Y-27663D01*
X60171Y-27692D01*
X60371Y-27692D01*
X59857Y-27406D02*
X59514Y-27406D01*
X59685Y-28006D02*
X59685Y-27406D01*
X59343Y-27463D02*
X59314Y-27434D01*
X59257Y-27406D01*
X59114Y-27406D01*
X59057Y-27434D01*
X59028Y-27463D01*
X59000Y-27520D01*
X59000Y-27577D01*
X59028Y-27663D01*
X59371Y-28006D01*
X59000Y-28006D01*
X66471Y-22866D02*
X66385Y-22894D01*
X66357Y-22923D01*
X66328Y-22980D01*
X66328Y-23066D01*
X66357Y-23123D01*
X66385Y-23151D01*
X66443Y-23180D01*
X66671Y-23180D01*
X66671Y-22580D01*
X66471Y-22580D01*
X66414Y-22608D01*
X66385Y-22637D01*
X66357Y-22694D01*
X66357Y-22751D01*
X66385Y-22808D01*
X66414Y-22837D01*
X66471Y-22866D01*
X66671Y-22866D01*
X66157Y-22580D02*
X65814Y-22580D01*
X65985Y-23180D02*
X65985Y-22580D01*
X65300Y-23180D02*
X65643Y-23180D01*
X65471Y-23180D02*
X65471Y-22580D01*
X65528Y-22666D01*
X65586Y-22723D01*
X65643Y-22751D01*
M02*
