G04 (created by PCBNEW-RS274X (2012-jan-04)-stable) date Sun 27 Jan 2013 19:14:15 CET*
G01*
G70*
G90*
%MOIN*%
G04 Gerber Fmt 3.4, Leading zero omitted, Abs format*
%FSLAX34Y34*%
G04 APERTURE LIST*
%ADD10C,0.006000*%
%ADD11C,0.015000*%
%ADD12C,0.005000*%
%ADD13C,0.012000*%
%ADD14C,0.003000*%
%ADD15C,0.010700*%
G04 APERTURE END LIST*
G54D10*
G54D11*
X68650Y-33000D02*
X68650Y-32100D01*
X68650Y-32100D02*
X69250Y-32100D01*
X69250Y-32100D02*
X69250Y-31950D01*
X69250Y-31950D02*
X70750Y-31950D01*
X70750Y-31950D02*
X70750Y-32100D01*
X70750Y-32100D02*
X71350Y-32100D01*
X71350Y-32100D02*
X71350Y-33000D01*
X65750Y-33000D02*
X65750Y-32100D01*
X65750Y-32100D02*
X66350Y-32100D01*
X66350Y-32100D02*
X66350Y-31950D01*
X66350Y-31950D02*
X67850Y-31950D01*
X67850Y-31950D02*
X67850Y-32100D01*
X67850Y-32100D02*
X68450Y-32100D01*
X68450Y-32100D02*
X68450Y-33000D01*
G54D12*
X55750Y-22100D02*
X55550Y-22400D01*
X55750Y-21400D02*
X55750Y-22425D01*
X55750Y-22425D02*
X55150Y-22425D01*
X55150Y-22425D02*
X55150Y-21400D01*
X55150Y-21400D02*
X55750Y-21400D01*
X56420Y-20950D02*
X56418Y-20963D01*
X56414Y-20976D01*
X56408Y-20988D01*
X56399Y-20999D01*
X56389Y-21008D01*
X56377Y-21014D01*
X56364Y-21018D01*
X56350Y-21019D01*
X56337Y-21018D01*
X56324Y-21014D01*
X56312Y-21008D01*
X56302Y-21000D01*
X56293Y-20989D01*
X56286Y-20977D01*
X56282Y-20964D01*
X56281Y-20950D01*
X56282Y-20938D01*
X56285Y-20925D01*
X56292Y-20913D01*
X56300Y-20902D01*
X56311Y-20893D01*
X56322Y-20886D01*
X56335Y-20882D01*
X56349Y-20881D01*
X56362Y-20882D01*
X56375Y-20885D01*
X56387Y-20891D01*
X56398Y-20900D01*
X56407Y-20910D01*
X56413Y-20922D01*
X56418Y-20935D01*
X56419Y-20949D01*
X56420Y-20950D01*
X57500Y-21600D02*
X57500Y-21000D01*
X57500Y-21000D02*
X56400Y-21000D01*
X56400Y-21000D02*
X56400Y-21600D01*
X56400Y-22200D02*
X56400Y-22800D01*
X56400Y-22800D02*
X57500Y-22800D01*
X57500Y-22800D02*
X57500Y-22200D01*
X52950Y-21950D02*
X52949Y-21959D01*
X52946Y-21969D01*
X52941Y-21977D01*
X52935Y-21985D01*
X52927Y-21991D01*
X52919Y-21996D01*
X52910Y-21998D01*
X52900Y-21999D01*
X52891Y-21999D01*
X52882Y-21996D01*
X52873Y-21991D01*
X52866Y-21985D01*
X52859Y-21978D01*
X52855Y-21969D01*
X52852Y-21960D01*
X52851Y-21950D01*
X52851Y-21941D01*
X52854Y-21932D01*
X52858Y-21923D01*
X52865Y-21916D01*
X52872Y-21909D01*
X52880Y-21905D01*
X52890Y-21902D01*
X52899Y-21901D01*
X52908Y-21901D01*
X52918Y-21904D01*
X52926Y-21908D01*
X52934Y-21914D01*
X52940Y-21922D01*
X52945Y-21930D01*
X52948Y-21939D01*
X52949Y-21949D01*
X52950Y-21950D01*
X53350Y-21950D02*
X52950Y-21950D01*
X52950Y-21950D02*
X52950Y-21350D01*
X52950Y-21350D02*
X53350Y-21350D01*
X53750Y-21350D02*
X54150Y-21350D01*
X54150Y-21350D02*
X54150Y-21950D01*
X54150Y-21950D02*
X53750Y-21950D01*
X55250Y-20550D02*
X55249Y-20559D01*
X55246Y-20569D01*
X55241Y-20577D01*
X55235Y-20585D01*
X55227Y-20591D01*
X55219Y-20596D01*
X55210Y-20598D01*
X55200Y-20599D01*
X55191Y-20599D01*
X55182Y-20596D01*
X55173Y-20591D01*
X55166Y-20585D01*
X55159Y-20578D01*
X55155Y-20569D01*
X55152Y-20560D01*
X55151Y-20550D01*
X55151Y-20541D01*
X55154Y-20532D01*
X55158Y-20523D01*
X55165Y-20516D01*
X55172Y-20509D01*
X55180Y-20505D01*
X55190Y-20502D01*
X55199Y-20501D01*
X55208Y-20501D01*
X55218Y-20504D01*
X55226Y-20508D01*
X55234Y-20514D01*
X55240Y-20522D01*
X55245Y-20530D01*
X55248Y-20539D01*
X55249Y-20549D01*
X55250Y-20550D01*
X54750Y-20550D02*
X55150Y-20550D01*
X55150Y-20550D02*
X55150Y-21150D01*
X55150Y-21150D02*
X54750Y-21150D01*
X54350Y-21150D02*
X53950Y-21150D01*
X53950Y-21150D02*
X53950Y-20550D01*
X53950Y-20550D02*
X54350Y-20550D01*
X63650Y-26750D02*
X63649Y-26759D01*
X63646Y-26769D01*
X63641Y-26777D01*
X63635Y-26785D01*
X63627Y-26791D01*
X63619Y-26796D01*
X63610Y-26798D01*
X63600Y-26799D01*
X63591Y-26799D01*
X63582Y-26796D01*
X63573Y-26791D01*
X63566Y-26785D01*
X63559Y-26778D01*
X63555Y-26769D01*
X63552Y-26760D01*
X63551Y-26750D01*
X63551Y-26741D01*
X63554Y-26732D01*
X63558Y-26723D01*
X63565Y-26716D01*
X63572Y-26709D01*
X63580Y-26705D01*
X63590Y-26702D01*
X63599Y-26701D01*
X63608Y-26701D01*
X63618Y-26704D01*
X63626Y-26708D01*
X63634Y-26714D01*
X63640Y-26722D01*
X63645Y-26730D01*
X63648Y-26739D01*
X63649Y-26749D01*
X63650Y-26750D01*
X63600Y-26300D02*
X63600Y-26700D01*
X63600Y-26700D02*
X63000Y-26700D01*
X63000Y-26700D02*
X63000Y-26300D01*
X63000Y-25900D02*
X63000Y-25500D01*
X63000Y-25500D02*
X63600Y-25500D01*
X63600Y-25500D02*
X63600Y-25900D01*
X57925Y-27750D02*
X57924Y-27759D01*
X57921Y-27769D01*
X57916Y-27777D01*
X57910Y-27785D01*
X57902Y-27791D01*
X57894Y-27796D01*
X57885Y-27798D01*
X57875Y-27799D01*
X57866Y-27799D01*
X57857Y-27796D01*
X57848Y-27791D01*
X57841Y-27785D01*
X57834Y-27778D01*
X57830Y-27769D01*
X57827Y-27760D01*
X57826Y-27750D01*
X57826Y-27741D01*
X57829Y-27732D01*
X57833Y-27723D01*
X57840Y-27716D01*
X57847Y-27709D01*
X57855Y-27705D01*
X57865Y-27702D01*
X57874Y-27701D01*
X57883Y-27701D01*
X57893Y-27704D01*
X57901Y-27708D01*
X57909Y-27714D01*
X57915Y-27722D01*
X57920Y-27730D01*
X57923Y-27739D01*
X57924Y-27749D01*
X57925Y-27750D01*
X57875Y-28200D02*
X57875Y-27800D01*
X57875Y-27800D02*
X58475Y-27800D01*
X58475Y-27800D02*
X58475Y-28200D01*
X58475Y-28600D02*
X58475Y-29000D01*
X58475Y-29000D02*
X57875Y-29000D01*
X57875Y-29000D02*
X57875Y-28600D01*
X68700Y-20100D02*
X68699Y-20109D01*
X68696Y-20119D01*
X68691Y-20127D01*
X68685Y-20135D01*
X68677Y-20141D01*
X68669Y-20146D01*
X68660Y-20148D01*
X68650Y-20149D01*
X68641Y-20149D01*
X68632Y-20146D01*
X68623Y-20141D01*
X68616Y-20135D01*
X68609Y-20128D01*
X68605Y-20119D01*
X68602Y-20110D01*
X68601Y-20100D01*
X68601Y-20091D01*
X68604Y-20082D01*
X68608Y-20073D01*
X68615Y-20066D01*
X68622Y-20059D01*
X68630Y-20055D01*
X68640Y-20052D01*
X68649Y-20051D01*
X68658Y-20051D01*
X68668Y-20054D01*
X68676Y-20058D01*
X68684Y-20064D01*
X68690Y-20072D01*
X68695Y-20080D01*
X68698Y-20089D01*
X68699Y-20099D01*
X68700Y-20100D01*
X69100Y-20100D02*
X68700Y-20100D01*
X68700Y-20100D02*
X68700Y-19500D01*
X68700Y-19500D02*
X69100Y-19500D01*
X69500Y-19500D02*
X69900Y-19500D01*
X69900Y-19500D02*
X69900Y-20100D01*
X69900Y-20100D02*
X69500Y-20100D01*
X68700Y-20900D02*
X68699Y-20909D01*
X68696Y-20919D01*
X68691Y-20927D01*
X68685Y-20935D01*
X68677Y-20941D01*
X68669Y-20946D01*
X68660Y-20948D01*
X68650Y-20949D01*
X68641Y-20949D01*
X68632Y-20946D01*
X68623Y-20941D01*
X68616Y-20935D01*
X68609Y-20928D01*
X68605Y-20919D01*
X68602Y-20910D01*
X68601Y-20900D01*
X68601Y-20891D01*
X68604Y-20882D01*
X68608Y-20873D01*
X68615Y-20866D01*
X68622Y-20859D01*
X68630Y-20855D01*
X68640Y-20852D01*
X68649Y-20851D01*
X68658Y-20851D01*
X68668Y-20854D01*
X68676Y-20858D01*
X68684Y-20864D01*
X68690Y-20872D01*
X68695Y-20880D01*
X68698Y-20889D01*
X68699Y-20899D01*
X68700Y-20900D01*
X69100Y-20900D02*
X68700Y-20900D01*
X68700Y-20900D02*
X68700Y-20300D01*
X68700Y-20300D02*
X69100Y-20300D01*
X69500Y-20300D02*
X69900Y-20300D01*
X69900Y-20300D02*
X69900Y-20900D01*
X69900Y-20900D02*
X69500Y-20900D01*
X67600Y-19500D02*
X67599Y-19509D01*
X67596Y-19519D01*
X67591Y-19527D01*
X67585Y-19535D01*
X67577Y-19541D01*
X67569Y-19546D01*
X67560Y-19548D01*
X67550Y-19549D01*
X67541Y-19549D01*
X67532Y-19546D01*
X67523Y-19541D01*
X67516Y-19535D01*
X67509Y-19528D01*
X67505Y-19519D01*
X67502Y-19510D01*
X67501Y-19500D01*
X67501Y-19491D01*
X67504Y-19482D01*
X67508Y-19473D01*
X67515Y-19466D01*
X67522Y-19459D01*
X67530Y-19455D01*
X67540Y-19452D01*
X67549Y-19451D01*
X67558Y-19451D01*
X67568Y-19454D01*
X67576Y-19458D01*
X67584Y-19464D01*
X67590Y-19472D01*
X67595Y-19480D01*
X67598Y-19489D01*
X67599Y-19499D01*
X67600Y-19500D01*
X67100Y-19500D02*
X67500Y-19500D01*
X67500Y-19500D02*
X67500Y-20100D01*
X67500Y-20100D02*
X67100Y-20100D01*
X66700Y-20100D02*
X66300Y-20100D01*
X66300Y-20100D02*
X66300Y-19500D01*
X66300Y-19500D02*
X66700Y-19500D01*
X66300Y-20900D02*
X66299Y-20909D01*
X66296Y-20919D01*
X66291Y-20927D01*
X66285Y-20935D01*
X66277Y-20941D01*
X66269Y-20946D01*
X66260Y-20948D01*
X66250Y-20949D01*
X66241Y-20949D01*
X66232Y-20946D01*
X66223Y-20941D01*
X66216Y-20935D01*
X66209Y-20928D01*
X66205Y-20919D01*
X66202Y-20910D01*
X66201Y-20900D01*
X66201Y-20891D01*
X66204Y-20882D01*
X66208Y-20873D01*
X66215Y-20866D01*
X66222Y-20859D01*
X66230Y-20855D01*
X66240Y-20852D01*
X66249Y-20851D01*
X66258Y-20851D01*
X66268Y-20854D01*
X66276Y-20858D01*
X66284Y-20864D01*
X66290Y-20872D01*
X66295Y-20880D01*
X66298Y-20889D01*
X66299Y-20899D01*
X66300Y-20900D01*
X66700Y-20900D02*
X66300Y-20900D01*
X66300Y-20900D02*
X66300Y-20300D01*
X66300Y-20300D02*
X66700Y-20300D01*
X67100Y-20300D02*
X67500Y-20300D01*
X67500Y-20300D02*
X67500Y-20900D01*
X67500Y-20900D02*
X67100Y-20900D01*
X53300Y-22150D02*
X53299Y-22159D01*
X53296Y-22169D01*
X53291Y-22177D01*
X53285Y-22185D01*
X53277Y-22191D01*
X53269Y-22196D01*
X53260Y-22198D01*
X53250Y-22199D01*
X53241Y-22199D01*
X53232Y-22196D01*
X53223Y-22191D01*
X53216Y-22185D01*
X53209Y-22178D01*
X53205Y-22169D01*
X53202Y-22160D01*
X53201Y-22150D01*
X53201Y-22141D01*
X53204Y-22132D01*
X53208Y-22123D01*
X53215Y-22116D01*
X53222Y-22109D01*
X53230Y-22105D01*
X53240Y-22102D01*
X53249Y-22101D01*
X53258Y-22101D01*
X53268Y-22104D01*
X53276Y-22108D01*
X53284Y-22114D01*
X53290Y-22122D01*
X53295Y-22130D01*
X53298Y-22139D01*
X53299Y-22149D01*
X53300Y-22150D01*
X53250Y-22600D02*
X53250Y-22200D01*
X53250Y-22200D02*
X53850Y-22200D01*
X53850Y-22200D02*
X53850Y-22600D01*
X53850Y-23000D02*
X53850Y-23400D01*
X53850Y-23400D02*
X53250Y-23400D01*
X53250Y-23400D02*
X53250Y-23000D01*
X69825Y-30650D02*
X69824Y-30659D01*
X69821Y-30669D01*
X69816Y-30677D01*
X69810Y-30685D01*
X69802Y-30691D01*
X69794Y-30696D01*
X69785Y-30698D01*
X69775Y-30699D01*
X69766Y-30699D01*
X69757Y-30696D01*
X69748Y-30691D01*
X69741Y-30685D01*
X69734Y-30678D01*
X69730Y-30669D01*
X69727Y-30660D01*
X69726Y-30650D01*
X69726Y-30641D01*
X69729Y-30632D01*
X69733Y-30623D01*
X69740Y-30616D01*
X69747Y-30609D01*
X69755Y-30605D01*
X69765Y-30602D01*
X69774Y-30601D01*
X69783Y-30601D01*
X69793Y-30604D01*
X69801Y-30608D01*
X69809Y-30614D01*
X69815Y-30622D01*
X69820Y-30630D01*
X69823Y-30639D01*
X69824Y-30649D01*
X69825Y-30650D01*
X70225Y-30650D02*
X69825Y-30650D01*
X69825Y-30650D02*
X69825Y-30050D01*
X69825Y-30050D02*
X70225Y-30050D01*
X70625Y-30050D02*
X71025Y-30050D01*
X71025Y-30050D02*
X71025Y-30650D01*
X71025Y-30650D02*
X70625Y-30650D01*
X65400Y-30500D02*
X65399Y-30509D01*
X65396Y-30519D01*
X65391Y-30527D01*
X65385Y-30535D01*
X65377Y-30541D01*
X65369Y-30546D01*
X65360Y-30548D01*
X65350Y-30549D01*
X65341Y-30549D01*
X65332Y-30546D01*
X65323Y-30541D01*
X65316Y-30535D01*
X65309Y-30528D01*
X65305Y-30519D01*
X65302Y-30510D01*
X65301Y-30500D01*
X65301Y-30491D01*
X65304Y-30482D01*
X65308Y-30473D01*
X65315Y-30466D01*
X65322Y-30459D01*
X65330Y-30455D01*
X65340Y-30452D01*
X65349Y-30451D01*
X65358Y-30451D01*
X65368Y-30454D01*
X65376Y-30458D01*
X65384Y-30464D01*
X65390Y-30472D01*
X65395Y-30480D01*
X65398Y-30489D01*
X65399Y-30499D01*
X65400Y-30500D01*
X65800Y-30500D02*
X65400Y-30500D01*
X65400Y-30500D02*
X65400Y-29900D01*
X65400Y-29900D02*
X65800Y-29900D01*
X66200Y-29900D02*
X66600Y-29900D01*
X66600Y-29900D02*
X66600Y-30500D01*
X66600Y-30500D02*
X66200Y-30500D01*
X65400Y-31400D02*
X65399Y-31409D01*
X65396Y-31419D01*
X65391Y-31427D01*
X65385Y-31435D01*
X65377Y-31441D01*
X65369Y-31446D01*
X65360Y-31448D01*
X65350Y-31449D01*
X65341Y-31449D01*
X65332Y-31446D01*
X65323Y-31441D01*
X65316Y-31435D01*
X65309Y-31428D01*
X65305Y-31419D01*
X65302Y-31410D01*
X65301Y-31400D01*
X65301Y-31391D01*
X65304Y-31382D01*
X65308Y-31373D01*
X65315Y-31366D01*
X65322Y-31359D01*
X65330Y-31355D01*
X65340Y-31352D01*
X65349Y-31351D01*
X65358Y-31351D01*
X65368Y-31354D01*
X65376Y-31358D01*
X65384Y-31364D01*
X65390Y-31372D01*
X65395Y-31380D01*
X65398Y-31389D01*
X65399Y-31399D01*
X65400Y-31400D01*
X65800Y-31400D02*
X65400Y-31400D01*
X65400Y-31400D02*
X65400Y-30800D01*
X65400Y-30800D02*
X65800Y-30800D01*
X66200Y-30800D02*
X66600Y-30800D01*
X66600Y-30800D02*
X66600Y-31400D01*
X66600Y-31400D02*
X66200Y-31400D01*
X54850Y-23300D02*
X54849Y-23309D01*
X54846Y-23319D01*
X54841Y-23327D01*
X54835Y-23335D01*
X54827Y-23341D01*
X54819Y-23346D01*
X54810Y-23348D01*
X54800Y-23349D01*
X54791Y-23349D01*
X54782Y-23346D01*
X54773Y-23341D01*
X54766Y-23335D01*
X54759Y-23328D01*
X54755Y-23319D01*
X54752Y-23310D01*
X54751Y-23300D01*
X54751Y-23291D01*
X54754Y-23282D01*
X54758Y-23273D01*
X54765Y-23266D01*
X54772Y-23259D01*
X54780Y-23255D01*
X54790Y-23252D01*
X54799Y-23251D01*
X54808Y-23251D01*
X54818Y-23254D01*
X54826Y-23258D01*
X54834Y-23264D01*
X54840Y-23272D01*
X54845Y-23280D01*
X54848Y-23289D01*
X54849Y-23299D01*
X54850Y-23300D01*
X55250Y-23300D02*
X54850Y-23300D01*
X54850Y-23300D02*
X54850Y-22700D01*
X54850Y-22700D02*
X55250Y-22700D01*
X55650Y-22700D02*
X56050Y-22700D01*
X56050Y-22700D02*
X56050Y-23300D01*
X56050Y-23300D02*
X55650Y-23300D01*
X71825Y-20900D02*
X71824Y-20909D01*
X71821Y-20919D01*
X71816Y-20927D01*
X71810Y-20935D01*
X71802Y-20941D01*
X71794Y-20946D01*
X71785Y-20948D01*
X71775Y-20949D01*
X71766Y-20949D01*
X71757Y-20946D01*
X71748Y-20941D01*
X71741Y-20935D01*
X71734Y-20928D01*
X71730Y-20919D01*
X71727Y-20910D01*
X71726Y-20900D01*
X71726Y-20891D01*
X71729Y-20882D01*
X71733Y-20873D01*
X71740Y-20866D01*
X71747Y-20859D01*
X71755Y-20855D01*
X71765Y-20852D01*
X71774Y-20851D01*
X71783Y-20851D01*
X71793Y-20854D01*
X71801Y-20858D01*
X71809Y-20864D01*
X71815Y-20872D01*
X71820Y-20880D01*
X71823Y-20889D01*
X71824Y-20899D01*
X71825Y-20900D01*
X72225Y-20900D02*
X71825Y-20900D01*
X71825Y-20900D02*
X71825Y-20300D01*
X71825Y-20300D02*
X72225Y-20300D01*
X72625Y-20300D02*
X73025Y-20300D01*
X73025Y-20300D02*
X73025Y-20900D01*
X73025Y-20900D02*
X72625Y-20900D01*
G54D11*
X65050Y-26950D02*
X65050Y-26200D01*
X75550Y-27200D02*
X75550Y-28700D01*
X75550Y-28700D02*
X75300Y-28700D01*
X75300Y-22200D02*
X75550Y-22200D01*
X75550Y-22200D02*
X75550Y-23450D01*
X65050Y-25450D02*
X65050Y-22200D01*
X65050Y-22200D02*
X65300Y-22200D01*
X65300Y-28700D02*
X65050Y-28700D01*
X65050Y-28700D02*
X65050Y-27700D01*
X79800Y-25950D02*
X77200Y-25950D01*
X77200Y-24750D02*
X79800Y-24750D01*
G54D12*
X67825Y-30650D02*
X67824Y-30659D01*
X67821Y-30669D01*
X67816Y-30677D01*
X67810Y-30685D01*
X67802Y-30691D01*
X67794Y-30696D01*
X67785Y-30698D01*
X67775Y-30699D01*
X67766Y-30699D01*
X67757Y-30696D01*
X67748Y-30691D01*
X67741Y-30685D01*
X67734Y-30678D01*
X67730Y-30669D01*
X67727Y-30660D01*
X67726Y-30650D01*
X67726Y-30641D01*
X67729Y-30632D01*
X67733Y-30623D01*
X67740Y-30616D01*
X67747Y-30609D01*
X67755Y-30605D01*
X67765Y-30602D01*
X67774Y-30601D01*
X67783Y-30601D01*
X67793Y-30604D01*
X67801Y-30608D01*
X67809Y-30614D01*
X67815Y-30622D01*
X67820Y-30630D01*
X67823Y-30639D01*
X67824Y-30649D01*
X67825Y-30650D01*
X68225Y-30650D02*
X67825Y-30650D01*
X67825Y-30650D02*
X67825Y-30050D01*
X67825Y-30050D02*
X68225Y-30050D01*
X68625Y-30050D02*
X69025Y-30050D01*
X69025Y-30050D02*
X69025Y-30650D01*
X69025Y-30650D02*
X68625Y-30650D01*
G54D11*
X58944Y-25570D02*
X58942Y-25585D01*
X58938Y-25600D01*
X58930Y-25613D01*
X58921Y-25625D01*
X58909Y-25635D01*
X58895Y-25642D01*
X58880Y-25647D01*
X58865Y-25648D01*
X58851Y-25647D01*
X58836Y-25643D01*
X58822Y-25636D01*
X58810Y-25626D01*
X58800Y-25614D01*
X58793Y-25601D01*
X58788Y-25586D01*
X58787Y-25571D01*
X58788Y-25556D01*
X58792Y-25541D01*
X58799Y-25528D01*
X58809Y-25516D01*
X58820Y-25506D01*
X58834Y-25498D01*
X58849Y-25493D01*
X58864Y-25492D01*
X58878Y-25493D01*
X58893Y-25497D01*
X58907Y-25504D01*
X58919Y-25513D01*
X58929Y-25525D01*
X58937Y-25538D01*
X58942Y-25553D01*
X58943Y-25568D01*
X58944Y-25570D01*
X58609Y-24468D02*
X58865Y-24468D01*
X58865Y-24468D02*
X58865Y-25255D01*
X58865Y-25255D02*
X58609Y-25255D01*
X58609Y-25885D02*
X58609Y-23916D01*
X58609Y-23916D02*
X62448Y-23916D01*
X62448Y-23916D02*
X62448Y-25885D01*
X62448Y-25885D02*
X58609Y-25885D01*
G54D12*
X59450Y-29050D02*
X59449Y-29059D01*
X59446Y-29069D01*
X59441Y-29077D01*
X59435Y-29085D01*
X59427Y-29091D01*
X59419Y-29096D01*
X59410Y-29098D01*
X59400Y-29099D01*
X59391Y-29099D01*
X59382Y-29096D01*
X59373Y-29091D01*
X59366Y-29085D01*
X59359Y-29078D01*
X59355Y-29069D01*
X59352Y-29060D01*
X59351Y-29050D01*
X59351Y-29041D01*
X59354Y-29032D01*
X59358Y-29023D01*
X59365Y-29016D01*
X59372Y-29009D01*
X59380Y-29005D01*
X59390Y-29002D01*
X59399Y-29001D01*
X59408Y-29001D01*
X59418Y-29004D01*
X59426Y-29008D01*
X59434Y-29014D01*
X59440Y-29022D01*
X59445Y-29030D01*
X59448Y-29039D01*
X59449Y-29049D01*
X59450Y-29050D01*
X59400Y-28600D02*
X59400Y-29000D01*
X59400Y-29000D02*
X58800Y-29000D01*
X58800Y-29000D02*
X58800Y-28600D01*
X58800Y-28200D02*
X58800Y-27800D01*
X58800Y-27800D02*
X59400Y-27800D01*
X59400Y-27800D02*
X59400Y-28200D01*
X62650Y-27750D02*
X62649Y-27759D01*
X62646Y-27769D01*
X62641Y-27777D01*
X62635Y-27785D01*
X62627Y-27791D01*
X62619Y-27796D01*
X62610Y-27798D01*
X62600Y-27799D01*
X62591Y-27799D01*
X62582Y-27796D01*
X62573Y-27791D01*
X62566Y-27785D01*
X62559Y-27778D01*
X62555Y-27769D01*
X62552Y-27760D01*
X62551Y-27750D01*
X62551Y-27741D01*
X62554Y-27732D01*
X62558Y-27723D01*
X62565Y-27716D01*
X62572Y-27709D01*
X62580Y-27705D01*
X62590Y-27702D01*
X62599Y-27701D01*
X62608Y-27701D01*
X62618Y-27704D01*
X62626Y-27708D01*
X62634Y-27714D01*
X62640Y-27722D01*
X62645Y-27730D01*
X62648Y-27739D01*
X62649Y-27749D01*
X62650Y-27750D01*
X62600Y-28200D02*
X62600Y-27800D01*
X62600Y-27800D02*
X63200Y-27800D01*
X63200Y-27800D02*
X63200Y-28200D01*
X63200Y-28600D02*
X63200Y-29000D01*
X63200Y-29000D02*
X62600Y-29000D01*
X62600Y-29000D02*
X62600Y-28600D01*
G54D11*
X59749Y-29018D02*
X59749Y-29294D01*
X59749Y-29294D02*
X59985Y-29294D01*
X59828Y-27680D02*
X62229Y-27680D01*
X62229Y-27680D02*
X62229Y-29176D01*
X62229Y-29176D02*
X62229Y-29215D01*
X62229Y-29215D02*
X59828Y-29215D01*
X59828Y-29215D02*
X59828Y-27680D01*
G54D13*
X65000Y-18750D02*
X51000Y-18750D01*
X51000Y-18750D02*
X51000Y-17750D01*
X51000Y-17750D02*
X65000Y-17750D01*
X65000Y-17750D02*
X65000Y-18750D01*
G54D11*
X71550Y-33000D02*
X71550Y-32100D01*
X71550Y-32100D02*
X72150Y-32100D01*
X72150Y-32100D02*
X72150Y-31950D01*
X72150Y-31950D02*
X73650Y-31950D01*
X73650Y-31950D02*
X73650Y-32100D01*
X73650Y-32100D02*
X74250Y-32100D01*
X74250Y-32100D02*
X74250Y-33000D01*
G54D12*
X72400Y-31350D02*
X72399Y-31359D01*
X72396Y-31369D01*
X72391Y-31377D01*
X72385Y-31385D01*
X72377Y-31391D01*
X72369Y-31396D01*
X72360Y-31398D01*
X72350Y-31399D01*
X72341Y-31399D01*
X72332Y-31396D01*
X72323Y-31391D01*
X72316Y-31385D01*
X72309Y-31378D01*
X72305Y-31369D01*
X72302Y-31360D01*
X72301Y-31350D01*
X72301Y-31341D01*
X72304Y-31332D01*
X72308Y-31323D01*
X72315Y-31316D01*
X72322Y-31309D01*
X72330Y-31305D01*
X72340Y-31302D01*
X72349Y-31301D01*
X72358Y-31301D01*
X72368Y-31304D01*
X72376Y-31308D01*
X72384Y-31314D01*
X72390Y-31322D01*
X72395Y-31330D01*
X72398Y-31339D01*
X72399Y-31349D01*
X72400Y-31350D01*
X72800Y-31350D02*
X72400Y-31350D01*
X72400Y-31350D02*
X72400Y-30750D01*
X72400Y-30750D02*
X72800Y-30750D01*
X73200Y-30750D02*
X73600Y-30750D01*
X73600Y-30750D02*
X73600Y-31350D01*
X73600Y-31350D02*
X73200Y-31350D01*
X63025Y-30525D02*
X63024Y-30534D01*
X63021Y-30544D01*
X63016Y-30552D01*
X63010Y-30560D01*
X63002Y-30566D01*
X62994Y-30571D01*
X62985Y-30573D01*
X62975Y-30574D01*
X62966Y-30574D01*
X62957Y-30571D01*
X62948Y-30566D01*
X62941Y-30560D01*
X62934Y-30553D01*
X62930Y-30544D01*
X62927Y-30535D01*
X62926Y-30525D01*
X62926Y-30516D01*
X62929Y-30507D01*
X62933Y-30498D01*
X62940Y-30491D01*
X62947Y-30484D01*
X62955Y-30480D01*
X62965Y-30477D01*
X62974Y-30476D01*
X62983Y-30476D01*
X62993Y-30479D01*
X63001Y-30483D01*
X63009Y-30489D01*
X63015Y-30497D01*
X63020Y-30505D01*
X63023Y-30514D01*
X63024Y-30524D01*
X63025Y-30525D01*
X62525Y-30525D02*
X62925Y-30525D01*
X62925Y-30525D02*
X62925Y-31125D01*
X62925Y-31125D02*
X62525Y-31125D01*
X62125Y-31125D02*
X61725Y-31125D01*
X61725Y-31125D02*
X61725Y-30525D01*
X61725Y-30525D02*
X62125Y-30525D01*
X61575Y-30525D02*
X61574Y-30534D01*
X61571Y-30544D01*
X61566Y-30552D01*
X61560Y-30560D01*
X61552Y-30566D01*
X61544Y-30571D01*
X61535Y-30573D01*
X61525Y-30574D01*
X61516Y-30574D01*
X61507Y-30571D01*
X61498Y-30566D01*
X61491Y-30560D01*
X61484Y-30553D01*
X61480Y-30544D01*
X61477Y-30535D01*
X61476Y-30525D01*
X61476Y-30516D01*
X61479Y-30507D01*
X61483Y-30498D01*
X61490Y-30491D01*
X61497Y-30484D01*
X61505Y-30480D01*
X61515Y-30477D01*
X61524Y-30476D01*
X61533Y-30476D01*
X61543Y-30479D01*
X61551Y-30483D01*
X61559Y-30489D01*
X61565Y-30497D01*
X61570Y-30505D01*
X61573Y-30514D01*
X61574Y-30524D01*
X61575Y-30525D01*
X61075Y-30525D02*
X61475Y-30525D01*
X61475Y-30525D02*
X61475Y-31125D01*
X61475Y-31125D02*
X61075Y-31125D01*
X60675Y-31125D02*
X60275Y-31125D01*
X60275Y-31125D02*
X60275Y-30525D01*
X60275Y-30525D02*
X60675Y-30525D01*
G54D11*
X50648Y-23751D02*
X51002Y-24105D01*
X51002Y-26388D02*
X51002Y-26900D01*
X51002Y-26900D02*
X49152Y-26900D01*
X49152Y-23751D02*
X51002Y-23751D01*
X51002Y-23751D02*
X51002Y-24262D01*
G54D13*
X65000Y-33000D02*
X51000Y-33000D01*
X51000Y-33000D02*
X51000Y-32000D01*
X51000Y-32000D02*
X65000Y-32000D01*
X65000Y-32000D02*
X65000Y-33000D01*
G54D14*
X55221Y-20934D02*
X55221Y-21177D01*
X55236Y-21206D01*
X55250Y-21220D01*
X55279Y-21234D01*
X55336Y-21234D01*
X55364Y-21220D01*
X55379Y-21206D01*
X55393Y-21177D01*
X55393Y-20934D01*
X55693Y-21234D02*
X55521Y-21234D01*
X55607Y-21234D02*
X55607Y-20934D01*
X55578Y-20977D01*
X55550Y-21006D01*
X55521Y-21020D01*
G54D12*
X57871Y-21950D02*
X57871Y-22093D01*
X57571Y-22093D01*
X57871Y-21692D02*
X57871Y-21864D01*
X57871Y-21778D02*
X57571Y-21778D01*
X57614Y-21807D01*
X57643Y-21835D01*
X57657Y-21864D01*
X53408Y-21351D02*
X53325Y-21232D01*
X53266Y-21351D02*
X53266Y-21101D01*
X53361Y-21101D01*
X53385Y-21113D01*
X53396Y-21125D01*
X53408Y-21149D01*
X53408Y-21185D01*
X53396Y-21208D01*
X53385Y-21220D01*
X53361Y-21232D01*
X53266Y-21232D01*
X53492Y-21101D02*
X53646Y-21101D01*
X53563Y-21196D01*
X53599Y-21196D01*
X53623Y-21208D01*
X53635Y-21220D01*
X53646Y-21244D01*
X53646Y-21304D01*
X53635Y-21327D01*
X53623Y-21339D01*
X53599Y-21351D01*
X53527Y-21351D01*
X53504Y-21339D01*
X53492Y-21327D01*
X55408Y-20777D02*
X55396Y-20789D01*
X55361Y-20801D01*
X55337Y-20801D01*
X55301Y-20789D01*
X55277Y-20765D01*
X55266Y-20742D01*
X55254Y-20694D01*
X55254Y-20658D01*
X55266Y-20611D01*
X55277Y-20587D01*
X55301Y-20563D01*
X55337Y-20551D01*
X55361Y-20551D01*
X55396Y-20563D01*
X55408Y-20575D01*
X55646Y-20801D02*
X55504Y-20801D01*
X55575Y-20801D02*
X55575Y-20551D01*
X55551Y-20587D01*
X55527Y-20611D01*
X55504Y-20623D01*
X63927Y-26192D02*
X63939Y-26204D01*
X63951Y-26239D01*
X63951Y-26263D01*
X63939Y-26299D01*
X63915Y-26323D01*
X63892Y-26334D01*
X63844Y-26346D01*
X63808Y-26346D01*
X63761Y-26334D01*
X63737Y-26323D01*
X63713Y-26299D01*
X63701Y-26263D01*
X63701Y-26239D01*
X63713Y-26204D01*
X63725Y-26192D01*
X63725Y-26096D02*
X63713Y-26084D01*
X63701Y-26061D01*
X63701Y-26001D01*
X63713Y-25977D01*
X63725Y-25965D01*
X63749Y-25954D01*
X63773Y-25954D01*
X63808Y-25965D01*
X63951Y-26108D01*
X63951Y-25954D01*
X57752Y-28442D02*
X57764Y-28454D01*
X57776Y-28489D01*
X57776Y-28513D01*
X57764Y-28549D01*
X57740Y-28573D01*
X57717Y-28584D01*
X57669Y-28596D01*
X57633Y-28596D01*
X57586Y-28584D01*
X57562Y-28573D01*
X57538Y-28549D01*
X57526Y-28513D01*
X57526Y-28489D01*
X57538Y-28454D01*
X57550Y-28442D01*
X57526Y-28358D02*
X57526Y-28204D01*
X57621Y-28287D01*
X57621Y-28251D01*
X57633Y-28227D01*
X57645Y-28215D01*
X57669Y-28204D01*
X57729Y-28204D01*
X57752Y-28215D01*
X57764Y-28227D01*
X57776Y-28251D01*
X57776Y-28323D01*
X57764Y-28346D01*
X57752Y-28358D01*
X68358Y-19901D02*
X68275Y-19782D01*
X68216Y-19901D02*
X68216Y-19651D01*
X68311Y-19651D01*
X68335Y-19663D01*
X68346Y-19675D01*
X68358Y-19699D01*
X68358Y-19735D01*
X68346Y-19758D01*
X68335Y-19770D01*
X68311Y-19782D01*
X68216Y-19782D01*
X68501Y-19758D02*
X68477Y-19746D01*
X68466Y-19735D01*
X68454Y-19711D01*
X68454Y-19699D01*
X68466Y-19675D01*
X68477Y-19663D01*
X68501Y-19651D01*
X68549Y-19651D01*
X68573Y-19663D01*
X68585Y-19675D01*
X68596Y-19699D01*
X68596Y-19711D01*
X68585Y-19735D01*
X68573Y-19746D01*
X68549Y-19758D01*
X68501Y-19758D01*
X68477Y-19770D01*
X68466Y-19782D01*
X68454Y-19806D01*
X68454Y-19854D01*
X68466Y-19877D01*
X68477Y-19889D01*
X68501Y-19901D01*
X68549Y-19901D01*
X68573Y-19889D01*
X68585Y-19877D01*
X68596Y-19854D01*
X68596Y-19806D01*
X68585Y-19782D01*
X68573Y-19770D01*
X68549Y-19758D01*
X68358Y-20701D02*
X68275Y-20582D01*
X68216Y-20701D02*
X68216Y-20451D01*
X68311Y-20451D01*
X68335Y-20463D01*
X68346Y-20475D01*
X68358Y-20499D01*
X68358Y-20535D01*
X68346Y-20558D01*
X68335Y-20570D01*
X68311Y-20582D01*
X68216Y-20582D01*
X68442Y-20451D02*
X68608Y-20451D01*
X68501Y-20701D01*
X65908Y-19901D02*
X65825Y-19782D01*
X65766Y-19901D02*
X65766Y-19651D01*
X65861Y-19651D01*
X65885Y-19663D01*
X65896Y-19675D01*
X65908Y-19699D01*
X65908Y-19735D01*
X65896Y-19758D01*
X65885Y-19770D01*
X65861Y-19782D01*
X65766Y-19782D01*
X66123Y-19651D02*
X66075Y-19651D01*
X66051Y-19663D01*
X66039Y-19675D01*
X66016Y-19711D01*
X66004Y-19758D01*
X66004Y-19854D01*
X66016Y-19877D01*
X66027Y-19889D01*
X66051Y-19901D01*
X66099Y-19901D01*
X66123Y-19889D01*
X66135Y-19877D01*
X66146Y-19854D01*
X66146Y-19794D01*
X66135Y-19770D01*
X66123Y-19758D01*
X66099Y-19746D01*
X66051Y-19746D01*
X66027Y-19758D01*
X66016Y-19770D01*
X66004Y-19794D01*
X66908Y-21251D02*
X66825Y-21132D01*
X66766Y-21251D02*
X66766Y-21001D01*
X66861Y-21001D01*
X66885Y-21013D01*
X66896Y-21025D01*
X66908Y-21049D01*
X66908Y-21085D01*
X66896Y-21108D01*
X66885Y-21120D01*
X66861Y-21132D01*
X66766Y-21132D01*
X67135Y-21001D02*
X67016Y-21001D01*
X67004Y-21120D01*
X67016Y-21108D01*
X67039Y-21096D01*
X67099Y-21096D01*
X67123Y-21108D01*
X67135Y-21120D01*
X67146Y-21144D01*
X67146Y-21204D01*
X67135Y-21227D01*
X67123Y-21239D01*
X67099Y-21251D01*
X67039Y-21251D01*
X67016Y-21239D01*
X67004Y-21227D01*
X53201Y-22842D02*
X53082Y-22925D01*
X53201Y-22984D02*
X52951Y-22984D01*
X52951Y-22889D01*
X52963Y-22865D01*
X52975Y-22854D01*
X52999Y-22842D01*
X53035Y-22842D01*
X53058Y-22854D01*
X53070Y-22865D01*
X53082Y-22889D01*
X53082Y-22984D01*
X53035Y-22627D02*
X53201Y-22627D01*
X52939Y-22687D02*
X53118Y-22746D01*
X53118Y-22592D01*
X69433Y-30452D02*
X69421Y-30464D01*
X69386Y-30476D01*
X69362Y-30476D01*
X69326Y-30464D01*
X69302Y-30440D01*
X69291Y-30417D01*
X69279Y-30369D01*
X69279Y-30333D01*
X69291Y-30286D01*
X69302Y-30262D01*
X69326Y-30238D01*
X69362Y-30226D01*
X69386Y-30226D01*
X69421Y-30238D01*
X69433Y-30250D01*
X69660Y-30226D02*
X69541Y-30226D01*
X69529Y-30345D01*
X69541Y-30333D01*
X69564Y-30321D01*
X69624Y-30321D01*
X69648Y-30333D01*
X69660Y-30345D01*
X69671Y-30369D01*
X69671Y-30429D01*
X69660Y-30452D01*
X69648Y-30464D01*
X69624Y-30476D01*
X69564Y-30476D01*
X69541Y-30464D01*
X69529Y-30452D01*
X66858Y-30301D02*
X66775Y-30182D01*
X66716Y-30301D02*
X66716Y-30051D01*
X66811Y-30051D01*
X66835Y-30063D01*
X66846Y-30075D01*
X66858Y-30099D01*
X66858Y-30135D01*
X66846Y-30158D01*
X66835Y-30170D01*
X66811Y-30182D01*
X66716Y-30182D01*
X66954Y-30075D02*
X66966Y-30063D01*
X66989Y-30051D01*
X67049Y-30051D01*
X67073Y-30063D01*
X67085Y-30075D01*
X67096Y-30099D01*
X67096Y-30123D01*
X67085Y-30158D01*
X66942Y-30301D01*
X67096Y-30301D01*
X65108Y-31201D02*
X65025Y-31082D01*
X64966Y-31201D02*
X64966Y-30951D01*
X65061Y-30951D01*
X65085Y-30963D01*
X65096Y-30975D01*
X65108Y-30999D01*
X65108Y-31035D01*
X65096Y-31058D01*
X65085Y-31070D01*
X65061Y-31082D01*
X64966Y-31082D01*
X65346Y-31201D02*
X65204Y-31201D01*
X65275Y-31201D02*
X65275Y-30951D01*
X65251Y-30987D01*
X65227Y-31011D01*
X65204Y-31023D01*
X56208Y-23027D02*
X56196Y-23039D01*
X56161Y-23051D01*
X56137Y-23051D01*
X56101Y-23039D01*
X56077Y-23015D01*
X56066Y-22992D01*
X56054Y-22944D01*
X56054Y-22908D01*
X56066Y-22861D01*
X56077Y-22837D01*
X56101Y-22813D01*
X56137Y-22801D01*
X56161Y-22801D01*
X56196Y-22813D01*
X56208Y-22825D01*
X56423Y-22885D02*
X56423Y-23051D01*
X56363Y-22789D02*
X56304Y-22968D01*
X56458Y-22968D01*
X71433Y-20702D02*
X71421Y-20714D01*
X71386Y-20726D01*
X71362Y-20726D01*
X71326Y-20714D01*
X71302Y-20690D01*
X71291Y-20667D01*
X71279Y-20619D01*
X71279Y-20583D01*
X71291Y-20536D01*
X71302Y-20512D01*
X71326Y-20488D01*
X71362Y-20476D01*
X71386Y-20476D01*
X71421Y-20488D01*
X71433Y-20500D01*
X71648Y-20476D02*
X71600Y-20476D01*
X71576Y-20488D01*
X71564Y-20500D01*
X71541Y-20536D01*
X71529Y-20583D01*
X71529Y-20679D01*
X71541Y-20702D01*
X71552Y-20714D01*
X71576Y-20726D01*
X71624Y-20726D01*
X71648Y-20714D01*
X71660Y-20702D01*
X71671Y-20679D01*
X71671Y-20619D01*
X71660Y-20595D01*
X71648Y-20583D01*
X71624Y-20571D01*
X71576Y-20571D01*
X71552Y-20583D01*
X71541Y-20595D01*
X71529Y-20619D01*
G54D13*
X72943Y-25907D02*
X73429Y-25907D01*
X73486Y-25879D01*
X73514Y-25850D01*
X73543Y-25793D01*
X73543Y-25679D01*
X73514Y-25621D01*
X73486Y-25593D01*
X73429Y-25564D01*
X72943Y-25564D01*
X72943Y-25335D02*
X72943Y-24964D01*
X73171Y-25164D01*
X73171Y-25078D01*
X73200Y-25021D01*
X73229Y-24992D01*
X73286Y-24964D01*
X73429Y-24964D01*
X73486Y-24992D01*
X73514Y-25021D01*
X73543Y-25078D01*
X73543Y-25250D01*
X73514Y-25307D01*
X73486Y-25335D01*
X78072Y-24321D02*
X78358Y-24321D01*
X78015Y-24493D02*
X78215Y-23893D01*
X78415Y-24493D01*
X78929Y-24493D02*
X78586Y-24493D01*
X78758Y-24493D02*
X78758Y-23893D01*
X78701Y-23979D01*
X78643Y-24036D01*
X78586Y-24064D01*
G54D12*
X67341Y-30451D02*
X67341Y-30201D01*
X67483Y-30451D02*
X67376Y-30308D01*
X67483Y-30201D02*
X67341Y-30344D01*
X67567Y-30201D02*
X67721Y-30201D01*
X67638Y-30296D01*
X67674Y-30296D01*
X67698Y-30308D01*
X67710Y-30320D01*
X67721Y-30344D01*
X67721Y-30404D01*
X67710Y-30427D01*
X67698Y-30439D01*
X67674Y-30451D01*
X67602Y-30451D01*
X67579Y-30439D01*
X67567Y-30427D01*
X58171Y-24479D02*
X58414Y-24479D01*
X58443Y-24464D01*
X58457Y-24450D01*
X58471Y-24421D01*
X58471Y-24364D01*
X58457Y-24336D01*
X58443Y-24321D01*
X58414Y-24307D01*
X58171Y-24307D01*
X58200Y-24179D02*
X58186Y-24165D01*
X58171Y-24136D01*
X58171Y-24065D01*
X58186Y-24036D01*
X58200Y-24022D01*
X58229Y-24007D01*
X58257Y-24007D01*
X58300Y-24022D01*
X58471Y-24193D01*
X58471Y-24007D01*
X59177Y-29342D02*
X59189Y-29354D01*
X59201Y-29389D01*
X59201Y-29413D01*
X59189Y-29449D01*
X59165Y-29473D01*
X59142Y-29484D01*
X59094Y-29496D01*
X59058Y-29496D01*
X59011Y-29484D01*
X58987Y-29473D01*
X58963Y-29449D01*
X58951Y-29413D01*
X58951Y-29389D01*
X58963Y-29354D01*
X58975Y-29342D01*
X59058Y-29199D02*
X59046Y-29223D01*
X59035Y-29234D01*
X59011Y-29246D01*
X58999Y-29246D01*
X58975Y-29234D01*
X58963Y-29223D01*
X58951Y-29199D01*
X58951Y-29151D01*
X58963Y-29127D01*
X58975Y-29115D01*
X58999Y-29104D01*
X59011Y-29104D01*
X59035Y-29115D01*
X59046Y-29127D01*
X59058Y-29151D01*
X59058Y-29199D01*
X59070Y-29223D01*
X59082Y-29234D01*
X59106Y-29246D01*
X59154Y-29246D01*
X59177Y-29234D01*
X59189Y-29223D01*
X59201Y-29199D01*
X59201Y-29151D01*
X59189Y-29127D01*
X59177Y-29115D01*
X59154Y-29104D01*
X59106Y-29104D01*
X59082Y-29115D01*
X59070Y-29127D01*
X59058Y-29151D01*
X62977Y-29342D02*
X62989Y-29354D01*
X63001Y-29389D01*
X63001Y-29413D01*
X62989Y-29449D01*
X62965Y-29473D01*
X62942Y-29484D01*
X62894Y-29496D01*
X62858Y-29496D01*
X62811Y-29484D01*
X62787Y-29473D01*
X62763Y-29449D01*
X62751Y-29413D01*
X62751Y-29389D01*
X62763Y-29354D01*
X62775Y-29342D01*
X63001Y-29223D02*
X63001Y-29175D01*
X62989Y-29151D01*
X62977Y-29139D01*
X62942Y-29115D01*
X62894Y-29104D01*
X62799Y-29104D01*
X62775Y-29115D01*
X62763Y-29127D01*
X62751Y-29151D01*
X62751Y-29199D01*
X62763Y-29223D01*
X62775Y-29234D01*
X62799Y-29246D01*
X62858Y-29246D01*
X62882Y-29234D01*
X62894Y-29223D01*
X62906Y-29199D01*
X62906Y-29151D01*
X62894Y-29127D01*
X62882Y-29115D01*
X62858Y-29104D01*
X62057Y-27221D02*
X62257Y-27521D01*
X62257Y-27221D02*
X62057Y-27521D01*
X62529Y-27521D02*
X62357Y-27521D01*
X62443Y-27521D02*
X62443Y-27221D01*
X62414Y-27264D01*
X62386Y-27293D01*
X62357Y-27307D01*
G54D15*
X63984Y-19675D02*
X63984Y-18994D01*
X64147Y-18994D01*
X64188Y-19027D01*
X64208Y-19059D01*
X64228Y-19124D01*
X64228Y-19221D01*
X64208Y-19286D01*
X64188Y-19318D01*
X64147Y-19351D01*
X63984Y-19351D01*
X64636Y-19675D02*
X64392Y-19675D01*
X64514Y-19675D02*
X64514Y-18994D01*
X64473Y-19091D01*
X64432Y-19156D01*
X64392Y-19189D01*
G54D12*
X72058Y-31151D02*
X71975Y-31032D01*
X71916Y-31151D02*
X71916Y-30901D01*
X72011Y-30901D01*
X72035Y-30913D01*
X72046Y-30925D01*
X72058Y-30949D01*
X72058Y-30985D01*
X72046Y-31008D01*
X72035Y-31020D01*
X72011Y-31032D01*
X71916Y-31032D01*
X72177Y-31151D02*
X72225Y-31151D01*
X72249Y-31139D01*
X72261Y-31127D01*
X72285Y-31092D01*
X72296Y-31044D01*
X72296Y-30949D01*
X72285Y-30925D01*
X72273Y-30913D01*
X72249Y-30901D01*
X72201Y-30901D01*
X72177Y-30913D01*
X72166Y-30925D01*
X72154Y-30949D01*
X72154Y-31008D01*
X72166Y-31032D01*
X72177Y-31044D01*
X72201Y-31056D01*
X72249Y-31056D01*
X72273Y-31044D01*
X72285Y-31032D01*
X72296Y-31008D01*
X63214Y-30926D02*
X63131Y-30807D01*
X63072Y-30926D02*
X63072Y-30676D01*
X63167Y-30676D01*
X63191Y-30688D01*
X63202Y-30700D01*
X63214Y-30724D01*
X63214Y-30760D01*
X63202Y-30783D01*
X63191Y-30795D01*
X63167Y-30807D01*
X63072Y-30807D01*
X63452Y-30926D02*
X63310Y-30926D01*
X63381Y-30926D02*
X63381Y-30676D01*
X63357Y-30712D01*
X63333Y-30736D01*
X63310Y-30748D01*
X63607Y-30676D02*
X63631Y-30676D01*
X63655Y-30688D01*
X63667Y-30700D01*
X63679Y-30724D01*
X63690Y-30771D01*
X63690Y-30831D01*
X63679Y-30879D01*
X63667Y-30902D01*
X63655Y-30914D01*
X63631Y-30926D01*
X63607Y-30926D01*
X63583Y-30914D01*
X63571Y-30902D01*
X63560Y-30879D01*
X63548Y-30831D01*
X63548Y-30771D01*
X63560Y-30724D01*
X63571Y-30700D01*
X63583Y-30688D01*
X63607Y-30676D01*
X60691Y-30376D02*
X60691Y-30126D01*
X60750Y-30126D01*
X60786Y-30138D01*
X60810Y-30162D01*
X60821Y-30186D01*
X60833Y-30233D01*
X60833Y-30269D01*
X60821Y-30317D01*
X60810Y-30340D01*
X60786Y-30364D01*
X60750Y-30376D01*
X60691Y-30376D01*
X61071Y-30376D02*
X60929Y-30376D01*
X61000Y-30376D02*
X61000Y-30126D01*
X60976Y-30162D01*
X60952Y-30186D01*
X60929Y-30198D01*
X51792Y-25626D02*
X51492Y-25626D01*
X51792Y-25454D02*
X51621Y-25583D01*
X51492Y-25454D02*
X51664Y-25626D01*
X51792Y-25168D02*
X51792Y-25340D01*
X51792Y-25254D02*
X51492Y-25254D01*
X51535Y-25283D01*
X51564Y-25311D01*
X51578Y-25340D01*
G54D15*
X63984Y-31675D02*
X63984Y-30994D01*
X64147Y-30994D01*
X64188Y-31027D01*
X64208Y-31059D01*
X64228Y-31124D01*
X64228Y-31221D01*
X64208Y-31286D01*
X64188Y-31318D01*
X64147Y-31351D01*
X63984Y-31351D01*
X64392Y-31059D02*
X64412Y-31027D01*
X64453Y-30994D01*
X64555Y-30994D01*
X64595Y-31027D01*
X64616Y-31059D01*
X64636Y-31124D01*
X64636Y-31189D01*
X64616Y-31286D01*
X64371Y-31675D01*
X64636Y-31675D01*
G54D13*
M02*
